<?xml version="1.0" standalone="no"?>
<!DOCTYPE svg PUBLIC "-//W3C//DTD SVG 1.1//EN" "http://www.w3.org/Graphics/SVG/1.1/DTD/svg11.dtd" >
<svg xmlns="http://www.w3.org/2000/svg" xmlns:xlink="http://www.w3.org/1999/xlink" version="1.1">
<metadata>
Created by FontForge 20170731 at Sat Nov 27 11:23:04 2021
 By Aleksey,,,
Copyright (c) 2021 by Dino dos Santos. All rights reserved.
</metadata>
<defs>
<font id="UEFAEuro-Book" horiz-adv-x="1220" >
  <font-face 
    font-family="UEFA Euro Book"
    font-weight="400"
    font-stretch="normal"
    units-per-em="2048"
    panose-1="0 0 0 0 0 0 0 0 0 0"
    ascent="1638"
    descent="-410"
    x-height="1024"
    cap-height="1434"
    bbox="-221 -559 3619 2038"
    underline-thickness="102"
    underline-position="-460"
    unicode-range="U+0020-FB02"
  />
<missing-glyph horiz-adv-x="1638" 
d="M819 -20q-219 0 -388.5 99.5t-259 266.5t-89.5 371t89.5 371t259 266.5t388.5 99.5t388.5 -99.5t259 -266.5t89.5 -371t-89.5 -371t-259 -266.5t-388.5 -99.5zM600 717q0 -93 60.5 -156t158.5 -63t158.5 63t60.5 156t-60.5 156t-158.5 63t-158.5 -63t-60.5 -156z" />
    <glyph glyph-name="fi" unicode="fi" horiz-adv-x="1171" 
d="M20 1024h248v139q0 147 91 219t249 72h4q61 0 123 -10v-127q-62 10 -106 10h-4q-199 0 -199 -176v-127h309v-127h-309v-897h-158v897h-248v127zM842 1280q0 47 32 76.5t80 29.5q47 0 80 -30t33 -76t-33 -76t-80 -30q-48 0 -80 29.5t-32 76.5zM874 0v1024h158v-1024h-158z
" />
    <glyph glyph-name="fl" unicode="fl" horiz-adv-x="1171" 
d="M20 1024h248v139q0 147 91 219t249 72h4q61 0 123 -10v-127q-62 10 -106 10h-4q-199 0 -199 -176v-127h309v-127h-309v-897h-158v897h-248v127zM874 0v1434h158v-1434h-158z" />
    <glyph glyph-name=".notdef" horiz-adv-x="1638" 
d="M819 -20q-219 0 -388.5 99.5t-259 266.5t-89.5 371t89.5 371t259 266.5t388.5 99.5t388.5 -99.5t259 -266.5t89.5 -371t-89.5 -371t-259 -266.5t-388.5 -99.5zM600 717q0 -93 60.5 -156t158.5 -63t158.5 63t60.5 156t-60.5 156t-158.5 63t-158.5 -63t-60.5 -156z" />
    <glyph glyph-name=".null" horiz-adv-x="0" 
 />
    <glyph glyph-name="nonmarkingreturn" horiz-adv-x="682" 
 />
    <glyph glyph-name="space" unicode=" " horiz-adv-x="366" 
 />
    <glyph glyph-name="exclam" unicode="!" horiz-adv-x="532" 
d="M348 1434l-4 -1106h-156l-4 1106h164zM160 82q0 45 28.5 73.5t77.5 28.5q47 0 77 -29t30 -73t-30 -73t-77 -29q-49 0 -77.5 28.5t-28.5 73.5z" />
    <glyph glyph-name="quotedbl" unicode="&#x22;" horiz-adv-x="696" 
d="M422 1038l-27 396h178l-28 -396h-123zM123 1434h178l-29 -396h-122z" />
    <glyph glyph-name="numbersign" unicode="#" horiz-adv-x="1550" 
d="M256 0h-154l191 397h-191v129h252l183 383h-367v127h428l190 398h154l-190 -398h352l190 398h154l-191 -398h191v-127h-252l-184 -383h366v-129h-428l-190 -397h-152l191 397h-353zM508 526h352l182 383h-352z" />
    <glyph glyph-name="dollar" unicode="$" horiz-adv-x="1228" 
d="M1044 1169q-162 128 -360 142v-500q59 -16 97.5 -27.5t92 -32t88.5 -41t74 -52t61 -67t37 -84.5t15 -106v-20q0 -188 -129 -287t-354 -112v-187h-97v185q-303 6 -491 137l84 116q73 -49 184 -80t232 -32v551q-58 15 -95.5 26.5t-90 31t-86.5 39.5t-71.5 50t-59 64
t-36 80.5t-14.5 101.5v20q0 166 127 263.5t344 105.5v184h96v-186q244 -16 436 -164zM293 1073q0 -42 17 -76t43 -57.5t70 -44.5t83 -34.5t98 -29.5v482q-137 -5 -224 -59.5t-87 -163.5v-17zM659 123q324 20 324 252v16q0 45 -18 82t-44.5 62t-73 47.5t-86.5 36t-102 30.5
v-526z" />
    <glyph glyph-name="percent" unicode="%" horiz-adv-x="1959" 
d="M481 1454q177 0 278 -106.5t101 -262.5q0 -155 -101 -261.5t-278 -106.5t-278 106.5t-101 261.5q0 156 101 262.5t278 106.5zM231 1085q0 -110 68 -183t182 -73q115 0 182.5 72.5t67.5 183.5t-67.5 183.5t-182.5 72.5q-114 0 -182 -73t-68 -183zM348 0l1122 1434h142
l-1123 -1434h-141zM1100 348q0 156 100.5 262.5t278.5 106.5q177 0 278 -106.5t101 -262.5q0 -155 -101 -261.5t-278 -106.5q-178 0 -278.5 106t-100.5 262zM1229 348q0 -111 67.5 -183.5t182.5 -72.5t181 72.5t66 183.5t-66 183.5t-181 72.5t-182.5 -72.5t-67.5 -183.5z
" />
    <glyph glyph-name="ampersand" unicode="&#x26;" horiz-adv-x="1474" 
d="M727 1327q-124 0 -200 -55t-76 -156v-16q0 -66 44 -134t130 -151l10 -10q88 31 146 57t114.5 63.5t84.5 84t28 104.5v8q0 53 -22.5 93.5t-62 64.5t-88 35.5t-104.5 11.5h-4zM98 348v21q0 64 21 118t54.5 93.5t85 73.5t103.5 57.5t119 46.5v4q-180 192 -180 336v20
q0 156 112.5 246t313.5 90h4q192 0 307 -84.5t115 -239.5v-8q0 -72 -33 -132t-97 -106.5t-137 -80.5t-173 -68v-8l401 -401q119 162 119 368h158q0 -261 -197 -446l248 -248h-195l-153 152q-175 -172 -465 -172h-4q-238 0 -382.5 95t-144.5 273zM260 362q0 -124 104.5 -190
t278.5 -66h6q221 0 371 121l-457 453q-146 -50 -224.5 -121t-78.5 -180v-17z" />
    <glyph glyph-name="quotesingle" unicode="'" horiz-adv-x="423" 
d="M150 1038l-27 396h178l-29 -396h-122z" />
    <glyph glyph-name="parenleft" unicode="(" horiz-adv-x="710" 
d="M676 1434q-166 -187 -257 -428.5t-91 -493.5t91 -493.5t257 -428.5h-129q-167 161 -272 402t-105 520t105 520t272 402h129z" />
    <glyph glyph-name="parenright" unicode=")" horiz-adv-x="710" 
d="M164 1434q167 -161 272 -402t105 -520t-105 -520t-272 -402h-129q166 187 257 428.5t91 493.5t-91 493.5t-257 428.5h129z" />
    <glyph glyph-name="asterisk" unicode="*" horiz-adv-x="757" 
d="M328 813v221l-195 -110l-51 90l192 108l-192 109l51 90l195 -111v224h102v-224l195 111l51 -90l-193 -109l193 -108l-51 -88l-195 108v-221h-102z" />
    <glyph glyph-name="plus" unicode="+" horiz-adv-x="1003" 
d="M901 778v-123h-338v-338h-123v338h-338v123h338v338h123v-338h338z" />
    <glyph glyph-name="comma" unicode="," horiz-adv-x="409" 
d="M27 -287l90 465h190l-157 -465h-123z" />
    <glyph glyph-name="hyphen" unicode="-" horiz-adv-x="880" 
d="M102 473v127h676v-127h-676z" />
    <glyph glyph-name="period" unicode="." horiz-adv-x="415" 
d="M209 -20q-49 0 -78 28.5t-29 73.5t29 73.5t78 28.5q47 0 75.5 -28.5t28.5 -73.5t-28.5 -73.5t-75.5 -28.5z" />
    <glyph glyph-name="slash" unicode="/" horiz-adv-x="948" 
d="M20 0l777 1434h131l-776 -1434h-132z" />
    <glyph glyph-name="zero" unicode="0" horiz-adv-x="1366" 
d="M680 1313q-186 0 -290.5 -152t-104.5 -434v-20q0 -282 104.5 -434t290.5 -152h4q186 0 291.5 152.5t105.5 433.5v20q0 281 -105.5 433.5t-291.5 152.5h-4zM117 707v20q0 348 153 537.5t410 189.5h4q258 0 410.5 -189t152.5 -538v-20q0 -349 -152.5 -538t-410.5 -189h-4
q-257 0 -410 189.5t-153 537.5z" />
    <glyph glyph-name="one" unicode="1" horiz-adv-x="901" 
d="M700 1434v-1434h-163v1260l-406 -240l-80 119l486 295h163z" />
    <glyph glyph-name="two" unicode="2" horiz-adv-x="1183" 
d="M301 141h821v-141h-1061v141l672 615q77 69 119.5 139.5t42.5 159.5v8q0 84 -45.5 142t-115.5 83t-159 25h-4q-246 0 -415 -152l-84 115q200 178 506 178h4q219 0 350 -101t131 -284v-10q0 -117 -56 -212.5t-163 -189.5l-543 -505v-11z" />
    <glyph glyph-name="three" unicode="3" horiz-adv-x="1253" 
d="M600 1454q228 0 356.5 -101t128.5 -276v-12q0 -114 -61.5 -195t-161.5 -120v-11q136 -32 215.5 -120.5t79.5 -225.5v-12q0 -186 -144.5 -293.5t-402.5 -107.5h-4q-341 0 -545 178l82 114q171 -151 457 -151h4q191 0 288 72.5t97 203.5v9q0 123 -86 191.5t-227 68.5h-264
v139h235q122 0 198.5 64.5t76.5 179.5v6q0 121 -88 189.5t-242 68.5h-4q-252 0 -424 -152l-82 115q204 178 514 178h4z" />
    <glyph glyph-name="four" unicode="4" horiz-adv-x="1286" 
d="M866 1434h164v-1000h195v-141h-195v-293h-164v293h-805v141zM248 434h618v780h-10l-608 -770v-10z" />
    <glyph glyph-name="five" unicode="5" horiz-adv-x="1253" 
d="M1157 428q0 -200 -146 -324t-401 -124h-4q-341 0 -545 178l82 114q171 -151 457 -151h4q190 0 287.5 85t97.5 222v6q0 129 -85 206t-240 77h-506l61 717h862v-142h-725l-41 -434h344q104 0 189 -23t141.5 -62t95 -93t55.5 -114t17 -126v-12z" />
    <glyph glyph-name="six" unicode="6" horiz-adv-x="1298" 
d="M1049 479q0 163 -100.5 251.5t-278.5 88.5h-4q-182 0 -289 -82.5t-107 -253.5v-18q0 -168 104.5 -256t284.5 -88h5q178 0 281.5 87.5t103.5 252.5v18zM109 504v20q0 398 224 625t711 303l25 -133q-74 -11 -138.5 -24.5t-141 -37t-139 -52t-125.5 -72t-109.5 -95.5
t-82.5 -123.5t-52 -154.5h8q50 89 152.5 145t265.5 56h4q229 0 365 -125t136 -353v-20q0 -219 -144 -351t-398 -132h-4q-266 0 -411.5 141.5t-145.5 382.5z" />
    <glyph glyph-name="seven" unicode="7" horiz-adv-x="1130" 
d="M287 0q80 699 614 1282v10h-850v142h1028v-131q-551 -615 -626 -1303h-166z" />
    <glyph glyph-name="eight" unicode="8" horiz-adv-x="1290" 
d="M647 1454q224 0 350.5 -100t126.5 -273v-12q0 -116 -65.5 -198t-171.5 -121v-11q140 -32 223.5 -121.5t83.5 -224.5v-12q0 -186 -144.5 -293.5t-402.5 -107.5h-4q-258 0 -402.5 107.5t-144.5 293.5v12q0 134 84.5 224t222.5 122v11q-105 39 -170 121t-65 198v12
q0 173 125.5 273t349.5 100h4zM264 395q0 -131 95 -202.5t284 -71.5h4q190 0 285.5 72t95.5 202v6q0 126 -100 195.5t-281 69.5h-4q-181 0 -280 -69.5t-99 -195.5v-6zM330 1053q0 -117 87.5 -182.5t225.5 -65.5h4q139 0 227.5 65.5t88.5 182.5v6q0 123 -82.5 189.5
t-233.5 66.5h-4q-151 0 -232 -66.5t-81 -189.5v-6z" />
    <glyph glyph-name="nine" unicode="9" horiz-adv-x="1298" 
d="M250 954q0 -163 100.5 -251.5t280.5 -88.5h4q181 0 287 82.5t106 253.5v19q0 168 -104 256t-283 88h-4q-179 0 -283 -87.5t-104 -252.5v-19zM88 950v21q0 219 144 351t399 132h4q266 0 411.5 -141.5t145.5 -382.5v-21q0 -398 -224.5 -624.5t-711.5 -302.5l-25 133
q74 11 138.5 24.5t140.5 37t138.5 52t125.5 72t110 95.5t82.5 123.5t51.5 154.5h-8q-50 -89 -152.5 -145t-265.5 -56h-4q-229 0 -364.5 124.5t-135.5 352.5z" />
    <glyph glyph-name="colon" unicode=":" horiz-adv-x="415" 
d="M209 -20q-49 0 -78 28.5t-29 73.5t29 73.5t78 28.5q47 0 75.5 -28.5t28.5 -73.5t-28.5 -73.5t-75.5 -28.5zM102 696q0 45 29 74t78 29q47 0 75.5 -29t28.5 -74t-28.5 -73.5t-75.5 -28.5q-49 0 -78 28.5t-29 73.5z" />
    <glyph glyph-name="semicolon" unicode=";" horiz-adv-x="409" 
d="M203 594q-49 0 -78 28.5t-29 73.5t29 74t78 29q47 0 75.5 -29t28.5 -74t-28.5 -73.5t-75.5 -28.5zM27 -287l90 465h190l-157 -465h-123z" />
    <glyph glyph-name="less" unicode="&#x3c;" horiz-adv-x="1003" 
d="M102 774l799 289v-123l-627 -227l627 -219v-123l-799 280v123z" />
    <glyph glyph-name="equal" unicode="=" horiz-adv-x="1003" 
d="M901 614v-122h-799v122h799zM102 819v123h799v-123h-799z" />
    <glyph glyph-name="greater" unicode="&#x3e;" horiz-adv-x="1003" 
d="M901 774v-123l-799 -280v123l627 219l-627 227v123z" />
    <glyph glyph-name="question" unicode="?" horiz-adv-x="1253" 
d="M1174 1004q0 -64 -15.5 -122t-52.5 -112t-92.5 -93.5t-142 -63t-195.5 -23.5h-51v-262h-158v401h213q157 0 242.5 74.5t85.5 202.5v8q0 137 -97 219t-288 82h-5q-282 0 -456 -154l-84 115q204 178 547 178h4q256 0 400.5 -120t144.5 -318v-12zM440 82q0 45 29 73.5
t78 28.5q47 0 75.5 -28.5t28.5 -73.5t-28.5 -73.5t-75.5 -28.5q-49 0 -78 28.5t-29 73.5z" />
    <glyph glyph-name="at" unicode="@" horiz-adv-x="1746" 
d="M1608 0h-158v199h-10q-41 -106 -133 -162.5t-226 -56.5h-4q-197 0 -312.5 119.5t-115.5 324.5v41q0 204 115.5 323t312.5 119h4q134 0 225.5 -56t133.5 -161h10v58q0 301 -130.5 440t-414.5 139h-4q-130 0 -234.5 -42.5t-174.5 -115.5t-117 -175.5t-67.5 -218
t-20.5 -247.5v-32q0 -127 23.5 -241t75.5 -214t128.5 -173t188 -115t247.5 -42h105v-127h-105q-166 0 -304 48t-234.5 132t-163 199t-98 248t-31.5 281v40q0 149 28 282.5t89 251.5t151 203.5t221.5 135t292.5 49.5h4q361 0 532 -176t171 -526v-752zM811 426
q0 -146 82.5 -233t234.5 -87h5q147 0 232 88t85 232v35q0 144 -85 231.5t-232 87.5h-5q-152 0 -234.5 -86.5t-82.5 -232.5v-35z" />
    <glyph glyph-name="A" unicode="A" horiz-adv-x="1349" 
d="M395 539h559l-272 743h-10zM35 0l526 1434h230l524 -1434h-168l-143 403h-658l-143 -403h-168z" />
    <glyph glyph-name="B" unicode="B" horiz-adv-x="1329" 
d="M940 741q132 -31 204.5 -120.5t72.5 -227.5v-12q0 -183 -121 -282t-338 -99h-598v1434h524q216 0 336.5 -94t120.5 -267v-12q0 -117 -53 -195t-148 -114v-11zM324 141h432q140 0 216.5 66t76.5 192v9q0 126 -76.5 192t-216.5 66h-432v-525zM324 805h401q121 0 186.5 60.5
t65.5 178.5v7q0 119 -76.5 181t-216.5 62h-360v-489z" />
    <glyph glyph-name="C" unicode="C" horiz-adv-x="1353" 
d="M119 737q0 352 170 534.5t467 182.5h4q170 0 292.5 -45t221.5 -133l-82 -115q-176 152 -424 152h-4q-228 0 -352.5 -146.5t-124.5 -433.5v-33q0 -287 124.5 -433t352.5 -146h4q249 0 424 151l82 -114q-99 -88 -221.5 -133t-292.5 -45h-4q-297 0 -467 182t-170 534v41z
" />
    <glyph glyph-name="D" unicode="D" horiz-adv-x="1411" 
d="M682 1292h-358v-1151h358q202 0 322 138t120 421v33q0 283 -120 421t-322 138zM160 0v1434h526q134 0 243.5 -43t190.5 -127.5t125.5 -218.5t44.5 -308v-41q0 -174 -44.5 -308t-125.5 -218t-190.5 -127t-243.5 -43h-526z" />
    <glyph glyph-name="E" unicode="E" horiz-adv-x="1230" 
d="M324 141h786v-141h-950v1434h950v-142h-786v-489h766v-141h-766v-521z" />
    <glyph glyph-name="F" unicode="F" horiz-adv-x="1128" 
d="M324 756h733v-142h-733v-614h-164v1434h917v-142h-753v-536z" />
    <glyph glyph-name="G" unicode="G" horiz-adv-x="1495" 
d="M774 121q438 0 438 497h-446v142h610v-98q0 -69 -7 -133.5t-26 -134t-48 -128.5t-76.5 -113t-109.5 -91.5t-148.5 -59.5t-190.5 -22h-4q-299 0 -473 182.5t-174 533.5v41q0 351 176 534t477 183h4q314 0 514 -178l-84 -115q-171 152 -424 152h-4q-230 0 -360.5 -147.5
t-130.5 -432.5v-33q0 -287 126.5 -433t356.5 -146h4z" />
    <glyph glyph-name="H" unicode="H" horiz-adv-x="1413" 
d="M324 803h766v631h163v-1434h-163v662h-766v-662h-164v1434h164v-631z" />
    <glyph glyph-name="I" unicode="I" horiz-adv-x="485" 
d="M160 0v1434h164v-1434h-164z" />
    <glyph glyph-name="J" unicode="J" horiz-adv-x="1034" 
d="M428 -20q-232 0 -377 124l74 119q114 -102 289 -102h4q139 0 216 75t77 214v882h-518v142h681v-1024q0 -213 -119.5 -321.5t-322.5 -108.5h-4z" />
    <glyph glyph-name="K" unicode="K" horiz-adv-x="1314" 
d="M334 629q434 315 735 805h182q-238 -384 -512 -658l541 -776h-186l-473 662q-144 -131 -297 -244v-418h-164v1434h164v-805h10z" />
    <glyph glyph-name="L" unicode="L" horiz-adv-x="1128" 
d="M324 141h753v-141h-917v1434h164v-1293z" />
    <glyph glyph-name="M" unicode="M" horiz-adv-x="1640" 
d="M160 0v1434h166l491 -756h10l488 756h166v-1434h-160v1147h-10l-420 -641h-139l-420 641h-10v-1147h-162z" />
    <glyph glyph-name="N" unicode="N" horiz-adv-x="1402" 
d="M160 0v1434h174l737 -1139h10v1139h160v-1434h-174l-735 1139h-10v-1139h-162z" />
    <glyph glyph-name="O" unicode="O" horiz-adv-x="1490" 
d="M743 -20q-293 0 -458.5 180.5t-165.5 535.5v41q0 355 166 536t458 181h5q292 0 457 -181t165 -536v-41q0 -355 -165 -535.5t-457 -180.5h-5zM287 700q0 -299 119.5 -439t336.5 -140h5q217 0 336.5 140t119.5 439v33q0 299 -119.5 439.5t-336.5 140.5h-5
q-217 0 -336.5 -140.5t-119.5 -439.5v-33z" />
    <glyph glyph-name="P" unicode="P" horiz-adv-x="1263" 
d="M160 0v1434h569q215 0 336 -108.5t121 -299.5v-12q0 -190 -121 -298t-336 -108h-405v-608h-164zM324 748h395q143 0 222 69t79 201v6q0 130 -79 199t-222 69h-395v-544z" />
    <glyph glyph-name="Q" unicode="Q" horiz-adv-x="1490" 
d="M743 1313q-217 0 -336.5 -140.5t-119.5 -439.5v-33q0 -299 119.5 -439t336.5 -140h5q217 0 336.5 140t119.5 439v33q0 299 -119.5 439.5t-336.5 140.5h-5zM119 696v41q0 355 166 536t458 181h5q292 0 457 -181t165 -536v-41q0 -338 -150 -518.5t-417 -195.5v-7
q65 -70 178.5 -104.5t235.5 -34.5l-11 -137q-197 0 -346.5 71t-226.5 216q-243 33 -378.5 212t-135.5 498z" />
    <glyph glyph-name="R" unicode="R" horiz-adv-x="1323" 
d="M160 0v1434h563q213 0 333 -108t120 -294v-12q0 -155 -83 -251.5t-239 -125.5v-10q251 -246 426 -633h-174q-150 330 -432 612h-350v-612h-164zM324 754h385q142 0 220.5 69t78.5 197v6q0 129 -78.5 198.5t-220.5 69.5h-385v-540z" />
    <glyph glyph-name="S" unicode="S" horiz-adv-x="1228" 
d="M1044 1169q-183 144 -413 144h-4q-94 0 -166.5 -21.5t-120 -73t-47.5 -128.5v-17q0 -56 29.5 -98t79 -68.5t113.5 -47.5t135 -40t142 -39.5t135 -52t113.5 -73t79 -106t29.5 -147.5v-20q0 -137 -71.5 -228.5t-191.5 -132t-286 -40.5h-4q-324 0 -518 137l84 116
q75 -51 190.5 -81.5t241.5 -30.5h4q385 0 385 254v16q0 75 -47.5 127t-123 81.5t-167 53.5t-183 53t-167 69.5t-123 114t-47.5 175.5v20q0 172 136.5 270.5t365.5 98.5h4q283 0 497 -166z" />
    <glyph glyph-name="T" unicode="T" horiz-adv-x="1236" 
d="M700 1292v-1292h-163v1292h-486v142h1135v-142h-486z" />
    <glyph glyph-name="U" unicode="U" horiz-adv-x="1417" 
d="M707 -20q-270 0 -408.5 129.5t-138.5 384.5v940h164v-940q0 -190 93 -281.5t290 -91.5h4q197 0 290 91.5t93 281.5v940h163v-940q0 -256 -137.5 -385t-408.5 -129h-4z" />
    <glyph glyph-name="V" unicode="V" horiz-adv-x="1349" 
d="M559 0l-524 1434h168l465 -1282h10l469 1282h168l-527 -1434h-229z" />
    <glyph glyph-name="W" unicode="W" horiz-adv-x="2058" 
d="M1511 188l351 1246h163l-409 -1434h-225l-357 1260h-10l-356 -1260h-226l-407 1434h164l350 -1246h10l348 1246h246l348 -1246h10z" />
    <glyph glyph-name="X" unicode="X" horiz-adv-x="1298" 
d="M1071 0l-424 606h-10l-430 -606h-172l514 748l-481 686h192l393 -555h11l391 555h176l-479 -697l512 -737h-193z" />
    <glyph glyph-name="Y" unicode="Y" horiz-adv-x="1349" 
d="M668 700h10l465 734h172l-559 -908v-526h-164v526l-557 908h174z" />
    <glyph glyph-name="Z" unicode="Z" horiz-adv-x="1198" 
d="M66 0v131l837 1151v10h-817v142h1026v-134l-838 -1148v-11h859v-141h-1067z" />
    <glyph glyph-name="bracketleft" unicode="[" horiz-adv-x="669" 
d="M635 1434v-121h-287v-1602h287v-121h-445v1844h445z" />
    <glyph glyph-name="backslash" unicode="\" horiz-adv-x="948" 
d="M928 0h-131l-777 1434h132z" />
    <glyph glyph-name="bracketright" unicode="]" horiz-adv-x="669" 
d="M35 1434h444v-1844h-444v121h287v1602h-287v121z" />
    <glyph glyph-name="asciicircum" unicode="^" horiz-adv-x="1013" 
d="M451 1116h122l279 -799h-123l-219 627l-225 -627h-123z" />
    <glyph glyph-name="underscore" unicode="_" horiz-adv-x="880" 
d="M102 -203v127h676v-127h-676z" />
    <glyph glyph-name="grave" unicode="`" horiz-adv-x="645" 
d="M543 1260l-31 -86l-410 135l39 116z" />
    <glyph glyph-name="a" unicode="a" horiz-adv-x="1171" 
d="M582 1044q227 0 337.5 -87t110.5 -267v-690h-158v195h-10q-95 -215 -377 -215h-4q-182 0 -282.5 82t-100.5 219v20q0 141 116.5 224t330.5 83h327v88q0 111 -70 166.5t-235 55.5h-4q-198 0 -362 -82l-45 118q188 90 422 90h4zM260 291q0 -86 69.5 -135.5t202.5 -49.5h5
q166 0 250.5 93.5t84.5 240.5v43h-311q-143 0 -222 -45.5t-79 -132.5v-14z" />
    <glyph glyph-name="b" unicode="b" horiz-adv-x="1247" 
d="M139 0v1434h158v-613h10q48 108 143.5 165.5t233.5 57.5h4q216 0 338.5 -132t122.5 -380v-40q0 -248 -122.5 -380t-338.5 -132h-4q-138 0 -233.5 57.5t-143.5 165.5h-10v-203h-158zM297 496q0 -190 90 -290t254 -100h4q166 0 254 99.5t88 290.5v32q0 191 -88 290.5
t-254 99.5h-4q-164 0 -254 -100t-90 -290v-32z" />
    <glyph glyph-name="c" unicode="c" horiz-adv-x="1089" 
d="M618 106q209 0 340 138l70 -105q-152 -159 -418 -159h-4q-237 0 -372.5 132t-135.5 380v40q0 248 135.5 380t372.5 132h4q266 0 418 -159l-70 -103q-132 136 -340 136h-4q-175 0 -264.5 -99t-89.5 -291v-32q0 -192 89.5 -291t264.5 -99h4z" />
    <glyph glyph-name="d" unicode="d" horiz-adv-x="1247" 
d="M1108 0h-158v203h-10q-48 -108 -143.5 -165.5t-233.5 -57.5h-4q-216 0 -338.5 132t-122.5 380v40q0 248 122.5 380t338.5 132h4q138 0 233.5 -57.5t143.5 -165.5h10v613h158v-1434zM260 496q0 -191 88 -290.5t254 -99.5h4q164 0 254 100t90 290v32q0 190 -90 290
t-254 100h-4q-166 0 -254 -99.5t-88 -290.5v-32z" />
    <glyph glyph-name="e" unicode="e" horiz-adv-x="1189" 
d="M651 106q209 0 361 91l47 -117q-165 -100 -428 -100h-4q-247 0 -388 132.5t-141 379.5v40q0 247 133.5 379.5t368.5 132.5h4q123 0 217 -39t152.5 -109.5t87.5 -164t29 -207.5v-67h-828q19 -351 385 -351h4zM262 582h668q0 68 -18.5 127t-56.5 106.5t-102.5 75
t-148.5 27.5h-4q-157 0 -242 -86.5t-96 -249.5z" />
    <glyph glyph-name="f" unicode="f" horiz-adv-x="743" 
d="M20 1024h248v139q0 147 91 219t249 72h4q130 0 240 -35l-29 -123q-95 31 -194 31h-4q-199 0 -199 -176v-127h309v-127h-309v-897h-158v897h-248v127z" />
    <glyph glyph-name="g" unicode="g" horiz-adv-x="1247" 
d="M1108 -27q0 -403 -510 -403h-4q-247 0 -438 76l28 121q174 -70 410 -70h4q81 0 141.5 12.5t110 43t75 85.5t25.5 135v283h-10q-48 -107 -143.5 -164t-233.5 -57h-4q-214 0 -337.5 127.5t-123.5 355.5v41q0 230 123.5 357.5t337.5 127.5h4q138 0 233.5 -57.5t143.5 -165.5
h10v203h158v-1051zM260 522q0 -173 89 -266.5t253 -93.5h4q163 0 253.5 93.5t90.5 266.5v35q0 173 -90.5 267t-253.5 94h-4q-164 0 -253 -94t-89 -267v-35z" />
    <glyph glyph-name="h" unicode="h" 
d="M623 918q-160 0 -243 -94t-83 -261v-563h-158v1434h158v-605h10q19 40 43.5 72.5t67 67.5t109.5 55t153 20h4q181 0 289 -97t108 -285v-662h-157v641q0 137 -81 207t-216 70h-4z" />
    <glyph glyph-name="i" unicode="i" horiz-adv-x="436" 
d="M297 0h-158v1024h158v-1024zM106 1280q0 47 32.5 76.5t80.5 29.5q47 0 80 -30t33 -76t-33 -76t-80 -30q-48 0 -80.5 29.5t-32.5 76.5z" />
    <glyph glyph-name="j" unicode="j" horiz-adv-x="436" 
d="M219 1174q-48 0 -80.5 29.5t-32.5 76.5t32.5 76.5t80.5 29.5q47 0 80 -30t33 -76t-33 -76t-80 -30zM-221 -393l28 123q79 -31 162 -31h4q89 0 127.5 38t38.5 109v1178h158v-1196q0 -122 -76 -189t-223 -67h-4q-125 0 -215 35z" />
    <glyph glyph-name="k" unicode="k" horiz-adv-x="1132" 
d="M295 0h-158v1434h158v-949h10q173 94 322.5 231t261.5 308h170q-164 -256 -379 -440l420 -584h-174l-365 489q-111 -83 -266 -170v-319z" />
    <glyph glyph-name="l" unicode="l" horiz-adv-x="436" 
d="M139 0v1434h158v-1434h-158z" />
    <glyph glyph-name="m" unicode="m" horiz-adv-x="1896" 
d="M596 918q-143 0 -221 -94.5t-78 -260.5v-563h-158v1024h158v-195h10q16 33 31 57.5t44 56.5t63 52t87.5 34.5t118.5 14.5h4q137 0 229.5 -61.5t125.5 -181.5h10q15 37 30.5 66t45 64t66 58t94 39t126.5 16h4q171 0 271 -97t100 -285v-662h-158v641q0 138 -72.5 207.5
t-197.5 69.5h-4q-143 0 -221 -94.5t-78 -260.5v-563h-156v641q0 138 -72.5 207.5t-197.5 69.5h-4z" />
    <glyph glyph-name="n" unicode="n" 
d="M623 918q-160 0 -243 -94t-83 -261v-563h-158v1024h158v-195h10q19 40 43.5 72.5t67 67.5t109.5 55t153 20h4q181 0 289 -97t108 -285v-662h-157v641q0 137 -81 207t-216 70h-4z" />
    <glyph glyph-name="o" unicode="o" horiz-adv-x="1210" 
d="M602 -20q-236 0 -370 132t-134 380v40q0 248 134 380t370 132h4q237 0 370.5 -132t133.5 -380v-40q0 -248 -133.5 -380t-370.5 -132h-4zM260 496q0 -192 86.5 -291t255.5 -99h4q170 0 257 99t87 291v32q0 192 -87 291t-257 99h-4q-169 0 -255.5 -99t-86.5 -291v-32z" />
    <glyph glyph-name="p" unicode="p" horiz-adv-x="1247" 
d="M139 -410v1434h158v-203h10q48 108 143.5 165.5t233.5 57.5h4q216 0 338.5 -132t122.5 -380v-40q0 -248 -122.5 -380t-338.5 -132h-4q-138 0 -233.5 57.5t-143.5 165.5h-10v-613h-158zM297 496q0 -190 90 -290t254 -100h4q166 0 254 99.5t88 290.5v32q0 191 -88 290.5
t-254 99.5h-4q-164 0 -254 -100t-90 -290v-32z" />
    <glyph glyph-name="q" unicode="q" horiz-adv-x="1247" 
d="M1108 -410h-158v613h-10q-48 -108 -143.5 -165.5t-233.5 -57.5h-4q-216 0 -338.5 132t-122.5 380v40q0 248 122.5 380t338.5 132h4q138 0 233.5 -57.5t143.5 -165.5h10v203h158v-1434zM260 496q0 -191 88 -290.5t254 -99.5h4q164 0 254 100t90 290v32q0 190 -90 290
t-254 100h-4q-166 0 -254 -99.5t-88 -290.5v-32z" />
    <glyph glyph-name="r" unicode="r" horiz-adv-x="890" 
d="M612 905q-169 0 -242 -102.5t-73 -290.5v-512h-158v1024h158v-199h10q13 31 25.5 54.5t40 56.5t60.5 54.5t87.5 37.5t120.5 16h4q117 0 219 -24l-33 -137q-107 22 -215 22h-4z" />
    <glyph glyph-name="s" unicode="s" horiz-adv-x="1011" 
d="M512 1044q227 0 416 -92l-49 -118q-173 84 -357 84h-4q-256 0 -256 -150v-14q0 -41 29.5 -70t77.5 -44t109.5 -29t125.5 -25t125.5 -33.5t109.5 -52t77.5 -83t29.5 -124.5v-21q0 -141 -113 -216.5t-323 -75.5h-4q-133 0 -249 25.5t-191 66.5l45 118q65 -32 175.5 -58
t213.5 -26h4q144 0 213 40t69 122v15q0 52 -37.5 85.5t-98 50.5t-133.5 30.5t-146 32.5t-133.5 47.5t-98 84t-37.5 134.5v20q0 132 107.5 204t298.5 72h4z" />
    <glyph glyph-name="t" unicode="t" horiz-adv-x="890" 
d="M20 897v127h248v231l158 50v-281h412v-127h-412v-618q0 -93 51 -133t156 -40h4q113 0 205 39l28 -118q-117 -47 -260 -47h-4q-338 0 -338 284v633h-248z" />
    <glyph glyph-name="u" unicode="u" 
d="M600 106q160 0 242 93.5t82 261.5v563h157v-1024h-157v195h-11q-98 -215 -370 -215h-4q-181 0 -290.5 98t-109.5 284v662h158v-641q0 -137 81.5 -207t217.5 -70h4z" />
    <glyph glyph-name="v" unicode="v" horiz-adv-x="1120" 
d="M453 0l-433 1024h164l369 -883h10l373 883h164l-434 -1024h-213z" />
    <glyph glyph-name="w" unicode="w" horiz-adv-x="1771" 
d="M395 0l-375 1024h162l307 -872h11l280 872h213l279 -872h10l307 872h162l-373 -1024h-204l-283 850h-10l-285 -850h-201z" />
    <glyph glyph-name="x" unicode="x" horiz-adv-x="1067" 
d="M850 0l-318 408h-10l-315 -408h-172l399 537l-371 487h185l289 -377h10l284 377h173l-371 -504l399 -520h-182z" />
    <glyph glyph-name="y" unicode="y" horiz-adv-x="1120" 
d="M20 1024h164l381 -883h10l367 883h158l-500 -1200q-53 -130 -138.5 -191t-232.5 -61h-4q-118 0 -209 25l29 124q70 -22 172 -22h4q98 0 152 37t84 108l61 156h-57z" />
    <glyph glyph-name="z" unicode="z" horiz-adv-x="1009" 
d="M61 121l660 766v10h-639v127h848v-121l-660 -766v-10h680v-127h-889v121z" />
    <glyph glyph-name="braceleft" unicode="{" horiz-adv-x="634" 
d="M537 1313q-103 0 -152 -39.5t-49 -132.5q0 -53 25.5 -195t25.5 -211q0 -88 -47 -144.5t-168 -76.5v-4q121 -20 168 -76.5t47 -144.5q0 -69 -25.5 -211t-25.5 -195q0 -93 49 -132.5t152 -39.5h63v-121h-98q-169 0 -245.5 69t-76.5 206q0 68 25.5 212.5t25.5 205.5
q0 86 -53.5 130t-142.5 44v110q89 0 142.5 44t53.5 130q0 61 -25.5 206t-25.5 212q0 137 76.5 206t245.5 69h98v-121h-63z" />
    <glyph glyph-name="bar" unicode="|" horiz-adv-x="532" 
d="M205 -205v1843h123v-1843h-123z" />
    <glyph glyph-name="braceright" unicode="}" horiz-adv-x="634" 
d="M98 1313h-63v121h98q169 0 245.5 -69t76.5 -206q0 -67 -26 -212t-26 -206q0 -86 54 -130t143 -44v-110q-89 0 -143 -44t-54 -130q0 -61 26 -206t26 -212q0 -137 -76.5 -206t-245.5 -69h-98v121h63q103 0 152 39.5t49 132.5q0 53 -25.5 195t-25.5 211q0 88 47 144.5
t168 76.5v4q-121 20 -168 76.5t-47 144.5q0 69 25.5 211t25.5 195q0 93 -49 132.5t-152 39.5z" />
    <glyph glyph-name="asciitilde" unicode="~" horiz-adv-x="1064" 
d="M102 612q0 105 42.5 153t129.5 48q79 0 258 -39t236 -39q44 0 61 21t17 65h117q0 -105 -43 -152.5t-129 -47.5q-81 0 -260 38.5t-234 38.5q-44 0 -61 -20.5t-17 -65.5h-117z" />
    <glyph glyph-name="uni00A0" unicode="&#xa0;" horiz-adv-x="366" 
 />
    <glyph glyph-name="exclamdown" unicode="&#xa1;" horiz-adv-x="532" 
d="M348 -410h-164l4 1106h156zM160 942q0 45 28.5 73.5t77.5 28.5q47 0 77 -29t30 -73t-30 -73t-77 -29q-49 0 -77.5 28.5t-28.5 73.5z" />
    <glyph glyph-name="cent" unicode="&#xa2;" horiz-adv-x="1089" 
d="M567 -205v185q-220 11 -344.5 142.5t-124.5 369.5v40q0 238 124.5 369.5t344.5 142.5v185h97v-187q228 -14 364 -157l-70 -103q-119 123 -301 133v-806q183 10 301 135l70 -105q-136 -143 -364 -157v-187h-97zM260 496q0 -366 315 -387v806q-315 -21 -315 -387v-32z" />
    <glyph glyph-name="sterling" unicode="&#xa3;" horiz-adv-x="1144" 
d="M438 369q-13 -90 -50 -142t-103 -77v-9h819v-141h-1063v141h37q160 0 186 160l62 375h-269v96h285l57 348q29 166 132 250t264 84h4q167 0 305 -86l-51 -131q-109 76 -246 76h-4q-210 0 -246 -221l-53 -320h409v-96h-424z" />
    <glyph glyph-name="currency" unicode="&#xa4;" horiz-adv-x="1150" 
d="M84 717q0 185 123 327l-166 179l70 65l170 -180q131 100 294 100q164 0 295 -100l170 180l70 -65l-166 -179q123 -142 123 -327q0 -186 -123 -328l166 -178l-70 -66l-170 181q-132 -101 -295 -101q-162 0 -294 101l-170 -181l-70 66l166 178q-123 142 -123 328zM209 717
q0 -155 106.5 -261t259.5 -106t260 106t107 261q0 154 -107 260t-260 106t-259.5 -105.5t-106.5 -260.5z" />
    <glyph glyph-name="yen" unicode="&#xa5;" horiz-adv-x="1349" 
d="M256 492v92h301l-522 850h174l459 -734h10l465 734h172l-524 -850h301v-92h-336v-492h-164v492h-336z" />
    <glyph glyph-name="brokenbar" unicode="&#xa6;" horiz-adv-x="532" 
d="M205 819v819h123v-819h-123zM205 -205v819h123v-819h-123z" />
    <glyph glyph-name="section" unicode="&#xa7;" horiz-adv-x="997" 
d="M895 1337q-81 0 -140 -5.5t-113 -21t-88 -42t-53.5 -70.5t-19.5 -104q0 -77 30.5 -166.5t76.5 -169t100 -172t100 -174.5t76.5 -177t30.5 -180q0 -68 -18 -130.5t-63.5 -124.5t-114 -108t-177.5 -74t-246 -28h-174v97q103 0 177 13t130.5 43t84.5 83t28 131
q0 92 -43.5 199t-105 207.5t-123 201.5t-105 213t-43.5 211q0 69 18 131t62 120t109.5 100.5t167 68t229.5 25.5h207v-97zM203 997q0 -96 43.5 -207t105 -213l123 -204t105 -211.5t43.5 -204.5q0 -170 -146 -260q169 33 243.5 129t74.5 229q0 97 -42.5 207.5t-103 211.5
t-121 201.5t-103 209t-42.5 202.5q0 166 135 246q-167 -29 -241 -119t-74 -217z" />
    <glyph glyph-name="dieresis" unicode="&#xa8;" horiz-adv-x="731" 
d="M528 1174q-41 0 -69.5 28.5t-28.5 71.5q0 41 28.5 69.5t69.5 28.5q43 0 72 -28.5t29 -69.5q0 -43 -29 -71.5t-72 -28.5zM102 1274q0 41 29 69.5t70 28.5q43 0 71.5 -28.5t28.5 -69.5q0 -43 -28.5 -71.5t-71.5 -28.5q-41 0 -70 29t-29 71z" />
    <glyph glyph-name="copyright" unicode="&#xa9;" horiz-adv-x="1679" 
d="M840 -20q-150 0 -287 58t-235.5 157t-157 235.5t-58.5 286.5t58.5 286.5t157 235.5t235.5 157t287 58t286.5 -58t235.5 -157t157 -235.5t58 -286.5t-58 -286.5t-157 -235.5t-235.5 -157t-286.5 -58zM166 717q0 -139 52.5 -264t142.5 -215t215 -142.5t264 -52.5t264 52.5
t214.5 142.5t142 215t52.5 264t-52.5 264t-142 215t-214.5 142.5t-264 52.5t-264 -52.5t-215 -142.5t-142.5 -215t-52.5 -264zM457 705v24q0 211 102 320.5t283 109.5h2q191 0 309 -108l-53 -74q-105 88 -252 88h-2q-133 0 -206 -85.5t-73 -252.5v-20q0 -167 73 -252.5
t206 -85.5h2q149 0 252 90l53 -76q-119 -109 -309 -109h-2q-181 0 -283 110t-102 321z" />
    <glyph glyph-name="ordfeminine" unicode="&#xaa;" horiz-adv-x="876" 
d="M455 1454q315 0 315 -252v-479h-131v131h-6q-76 -145 -260 -145h-2q-127 0 -196 56t-69 150v15q0 100 81 155.5t235 55.5h217v65q0 76 -46 113t-161 37h-2q-136 0 -254 -56l-33 91q141 63 308 63h4zM76 508v92h725v-92h-725zM238 934q0 -56 46 -89.5t134 -33.5h4
q108 0 162.5 61t54.5 158v41h-203q-93 0 -145.5 -33.5t-52.5 -91.5v-12z" />
    <glyph glyph-name="guillemotleft" unicode="&#xab;" horiz-adv-x="860" 
d="M492 133h-144l-266 379l266 379h144l-265 -379zM369 512l266 379h143l-264 -379l264 -379h-143z" />
    <glyph glyph-name="logicalnot" unicode="&#xac;" horiz-adv-x="1105" 
d="M1004 778v-430h-123v307h-779v123h902z" />
    <glyph glyph-name="uni00AD" unicode="&#xad;" horiz-adv-x="880" 
d="M102 473v127h676v-127h-676z" />
    <glyph glyph-name="registered" unicode="&#xae;" horiz-adv-x="1089" 
d="M545 569q-183 0 -313 130t-130 313t130 312.5t313 129.5t312.5 -129.5t129.5 -312.5t-129.5 -313t-312.5 -130zM154 1012q0 -164 114 -277.5t277 -113.5q164 0 277.5 114t113.5 277t-113.5 277t-277.5 114q-163 0 -277 -113.5t-114 -277.5zM389 762v500h168
q75 0 117.5 -38t42.5 -102v-6q0 -52 -29 -85t-82 -42v-4q92 -100 146 -223h-64q-65 137 -145 217h-94v-217h-60zM449 1026h104q46 0 73.5 24t28.5 66v2q-1 42 -28.5 66t-73.5 24h-104v-182z" />
    <glyph glyph-name="macron" unicode="&#xaf;" horiz-adv-x="825" 
d="M102 1243v94h621v-94h-621z" />
    <glyph glyph-name="degree" unicode="&#xb0;" horiz-adv-x="962" 
d="M481 1454q177 0 278 -106.5t101 -262.5q0 -155 -101 -261.5t-278 -106.5t-278 106.5t-101 261.5q0 156 101 262.5t278 106.5zM231 1085q0 -110 68 -183t182 -73q115 0 182.5 72.5t67.5 183.5t-67.5 183.5t-182.5 72.5q-114 0 -182 -73t-68 -183z" />
    <glyph glyph-name="plusminus" unicode="&#xb1;" horiz-adv-x="1003" 
d="M901 311v-123h-799v123h799zM102 764v123h338v338h123v-338h338v-123h-338v-338h-123v338h-338z" />
    <glyph glyph-name="uni00B2" unicode="&#xb2;" horiz-adv-x="835" 
d="M231 745h562v-110h-752v110l469 424q108 94 108 201v4q0 83 -61 125.5t-154 42.5h-2q-170 -3 -286 -104l-66 88q140 127 359 127h2q155 0 248.5 -72.5t93.5 -200.5v-8q0 -82 -40 -149t-114 -131l-367 -338v-9z" />
    <glyph glyph-name="uni00B3" unicode="&#xb3;" horiz-adv-x="884" 
d="M426 1653q161 0 252.5 -71t91.5 -193v-11q0 -76 -43.5 -133.5t-112.5 -85.5v-6q95 -24 150 -86.5t55 -155.5v-10q0 -130 -103 -205t-284 -75h-2q-246 0 -389 127l68 88q114 -102 315 -105h2q128 1 194 49.5t66 134.5v7q0 81 -57 126.5t-150 45.5h-188v110h166
q81 0 132.5 43t51.5 119v4q0 79 -60 124.5t-163 47.5h-4q-171 0 -291 -104l-68 88q143 127 367 127h4z" />
    <glyph glyph-name="acute" unicode="&#xb4;" horiz-adv-x="645" 
d="M102 1260l402 165l39 -116l-410 -135z" />
    <glyph glyph-name="uni00B5" unicode="&#xb5;" 
d="M139 -410v1434h158v-641q0 -137 81.5 -207t217.5 -70h4q160 0 242 93.5t82 261.5v563h157v-1024h-157v195h-11q-98 -215 -370 -215h-4q-144 0 -242 61v-451h-158z" />
    <glyph glyph-name="paragraph" unicode="&#xb6;" horiz-adv-x="1308" 
d="M874 0h-129v608h-210q-215 0 -337 108.5t-122 297.5v12q0 191 122 299.5t337 108.5h339v-1434zM1018 0v1434h131v-1434h-131z" />
    <glyph glyph-name="periodcentered" unicode="&#xb7;" horiz-adv-x="415" 
d="M209 444q-49 0 -78 29t-29 74t29 73.5t78 28.5q47 0 75.5 -28.5t28.5 -73.5t-28.5 -74t-75.5 -29z" />
    <glyph glyph-name="cedilla" unicode="&#xb8;" horiz-adv-x="530" 
d="M266 -109q67 0 114.5 -32.5t47.5 -110.5q0 -92 -78.5 -128t-247.5 -36v78q113 0 165 19t52 71q0 46 -27 61t-73 15h-78l27 172h82l-14 -109h30z" />
    <glyph glyph-name="uni00B9" unicode="&#xb9;" horiz-adv-x="643" 
d="M506 1638v-1003h-131v866l-277 -166l-63 92l340 211h131z" />
    <glyph glyph-name="ordmasculine" unicode="&#xba;" horiz-adv-x="876" 
d="M436 709q-167 0 -262.5 92t-95.5 266v29q0 174 95.5 266t262.5 92h2q168 0 264.5 -93t96.5 -265v-29q0 -172 -96.5 -265t-264.5 -93h-2zM76 508v92h725v-92h-725zM211 1069q0 -126 57.5 -191t167.5 -65h2q112 0 170 65t58 191v25q0 126 -58 191t-170 65h-2
q-110 0 -167.5 -65t-57.5 -191v-25z" />
    <glyph glyph-name="guillemotright" unicode="&#xbb;" horiz-adv-x="860" 
d="M369 133l264 379l-264 379h143l266 -379l-266 -379h-143zM82 133l264 379l-264 379h143l267 -379l-267 -379h-143z" />
    <glyph glyph-name="onequarter" unicode="&#xbc;" horiz-adv-x="1826" 
d="M506 1434v-1004h-131v866l-277 -166l-63 93l340 211h131zM426 0l776 1434h131l-776 -1434h-131zM961 203v112l561 689h131v-689h131v-112h-131v-203h-131v203h-561zM1108 315h414v519h-9l-405 -510v-9z" />
    <glyph glyph-name="onehalf" unicode="&#xbd;" horiz-adv-x="1957" 
d="M506 1434v-1004h-131v866l-277 -166l-63 93l340 211h131zM426 0l776 1434h131l-776 -1434h-131zM1163 0v111l469 424q53 46 81 93t28 107v4q0 83 -61 125.5t-154 42.5h-2q-171 -3 -287 -104l-66 88q140 127 359 127h2q155 0 248.5 -72.5t93.5 -200.5v-8q0 -82 -40 -149
t-114 -131l-366 -338v-8h561v-111h-752z" />
    <glyph glyph-name="threequarters" unicode="&#xbe;" horiz-adv-x="2043" 
d="M426 1448q161 0 252.5 -71t91.5 -193v-10q0 -77 -43.5 -135t-112.5 -85v-6q95 -24 150 -86t55 -155v-11q0 -130 -103 -205t-284 -75h-2q-246 0 -389 127l68 88q114 -102 315 -105h2q128 1 194 50t66 135v6q0 81 -57 126.5t-150 45.5h-188v110h166q81 0 132.5 43t51.5 119
v4q0 79 -60 124.5t-163 47.5h-4q-171 0 -291 -104l-68 88q143 127 367 127h4zM643 0l776 1434h131l-776 -1434h-131zM1178 203v112l561 689h131v-689h131v-112h-131v-203h-131v203h-561zM1325 315h414v519h-8l-406 -510v-9z" />
    <glyph glyph-name="questiondown" unicode="&#xbf;" horiz-adv-x="1193" 
d="M80 20q0 64 15.5 122t52.5 112t92.5 93.5t142 63t195.5 23.5h51v262h157v-401h-213q-157 0 -242 -74.5t-85 -202.5v-8q0 -137 97 -219t288 -82h4q283 0 457 154l84 -115q-204 -178 -547 -178h-4q-256 0 -400.5 120t-144.5 318v12zM602 942q0 45 29 73.5t76 28.5
q49 0 77.5 -28.5t28.5 -73.5t-28.5 -73.5t-77.5 -28.5q-47 0 -76 28.5t-29 73.5z" />
    <glyph glyph-name="Agrave" unicode="&#xc0;" horiz-adv-x="1349" 
d="M395 539h559l-272 743h-10zM35 0l526 1434h230l524 -1434h-168l-143 403h-658l-143 -403h-168zM455 1718l39 117l401 -166l-31 -86z" />
    <glyph glyph-name="Aacute" unicode="&#xc1;" horiz-adv-x="1349" 
d="M395 539h559l-272 743h-10zM35 0l526 1434h230l524 -1434h-168l-143 403h-658l-143 -403h-168zM455 1669l401 166l39 -117l-410 -135z" />
    <glyph glyph-name="Acircumflex" unicode="&#xc2;" horiz-adv-x="1349" 
d="M395 539h559l-272 743h-10zM35 0l526 1434h230l524 -1434h-168l-143 403h-658l-143 -403h-168zM362 1669l314 137l311 -137l-31 -86l-280 98l-283 -98z" />
    <glyph glyph-name="Atilde" unicode="&#xc3;" horiz-adv-x="1349" 
d="M395 539h559l-272 743h-10zM35 0l526 1434h230l524 -1434h-168l-143 403h-658l-143 -403h-168zM358 1583q0 101 43 150t115 49q54 0 109.5 -25t103.5 -49.5t84 -24.5q46 0 65 30.5t19 68.5h92q0 -94 -43.5 -146.5t-114.5 -52.5q-50 0 -105 24.5t-104 49t-87 24.5
q-45 0 -64.5 -28.5t-19.5 -69.5h-93z" />
    <glyph glyph-name="Adieresis" unicode="&#xc4;" horiz-adv-x="1349" 
d="M395 539h559l-272 743h-10zM35 0l526 1434h230l524 -1434h-168l-143 403h-658l-143 -403h-168zM412 1683q0 41 28.5 70t69.5 29q42 0 71 -29t29 -70q0 -43 -28.5 -71.5t-71.5 -28.5q-41 0 -69.5 28.5t-28.5 71.5zM739 1683q0 41 29 70t70 29q42 0 71 -29t29 -70
q0 -43 -28.5 -71.5t-71.5 -28.5q-42 0 -70.5 28.5t-28.5 71.5z" />
    <glyph glyph-name="Aring" unicode="&#xc5;" horiz-adv-x="1349" 
d="M395 539h559l-272 743h-10zM35 0l526 1434h230l524 -1434h-168l-143 403h-658l-143 -403h-168zM408 1810q0 102 75.5 165t190.5 63q117 0 192.5 -63t75.5 -165q0 -100 -76 -163.5t-192 -63.5q-115 0 -190.5 63.5t-75.5 163.5zM508 1810q0 -62 44 -97.5t122 -35.5
t123 35.5t45 97.5q0 63 -45 98.5t-123 35.5t-122 -35.5t-44 -98.5z" />
    <glyph glyph-name="AE" unicode="&#xc6;" horiz-adv-x="1841" 
d="M205 0h-170l717 1434h970v-142h-684v-489h664v-141h-664v-521h684v-141h-848v403h-462zM479 539h395v753h-10z" />
    <glyph glyph-name="Ccedilla" unicode="&#xc7;" horiz-adv-x="1353" 
d="M119 737q0 352 170 534.5t467 182.5h4q170 0 292.5 -45t221.5 -133l-82 -115q-176 152 -424 152h-4q-228 0 -352.5 -146.5t-124.5 -433.5v-33q0 -287 124.5 -433t352.5 -146h4q249 0 424 151l82 -114q-94 -82 -208.5 -127t-268.5 -51l-13 -89h31q67 0 114.5 -32.5
t47.5 -110.5q0 -92 -78.5 -128t-247.5 -36v78q113 0 165 19t52 71q0 46 -27 61t-73 15h-78l25 152q-279 14 -437.5 195.5t-158.5 520.5v41z" />
    <glyph glyph-name="Egrave" unicode="&#xc8;" horiz-adv-x="1230" 
d="M324 141h786v-141h-950v1434h950v-142h-786v-489h766v-141h-766v-521zM416 1718l39 117l401 -166l-31 -86z" />
    <glyph glyph-name="Eacute" unicode="&#xc9;" horiz-adv-x="1230" 
d="M324 141h786v-141h-950v1434h950v-142h-786v-489h766v-141h-766v-521zM416 1669l401 166l39 -117l-410 -135z" />
    <glyph glyph-name="Ecircumflex" unicode="&#xca;" horiz-adv-x="1230" 
d="M324 141h786v-141h-950v1434h950v-142h-786v-489h766v-141h-766v-521zM324 1669l313 137l311 -137l-30 -86l-281 98l-283 -98z" />
    <glyph glyph-name="Edieresis" unicode="&#xcb;" horiz-adv-x="1230" 
d="M324 141h786v-141h-950v1434h950v-142h-786v-489h766v-141h-766v-521zM373 1683q0 41 28.5 70t69.5 29q43 0 71.5 -29t28.5 -70q0 -43 -28.5 -71.5t-71.5 -28.5q-41 0 -69.5 28.5t-28.5 71.5zM700 1683q0 41 29 70t70 29q43 0 71.5 -29t28.5 -70q0 -43 -28.5 -71.5
t-71.5 -28.5q-41 0 -70 28.5t-29 71.5z" />
    <glyph glyph-name="Igrave" unicode="&#xcc;" horiz-adv-x="485" 
d="M160 0v1434h164v-1434h-164zM23 1718l38 117l402 -166l-31 -86z" />
    <glyph glyph-name="Iacute" unicode="&#xcd;" horiz-adv-x="485" 
d="M160 0v1434h164v-1434h-164zM23 1669l401 166l39 -117l-410 -135z" />
    <glyph glyph-name="Icircumflex" unicode="&#xce;" horiz-adv-x="485" 
d="M160 0v1434h164v-1434h-164zM-70 1669l314 137l311 -137l-31 -86l-280 98l-283 -98z" />
    <glyph glyph-name="Idieresis" unicode="&#xcf;" horiz-adv-x="485" 
d="M160 0v1434h164v-1434h-164zM-20 1683q0 41 28.5 70t69.5 29q42 0 71 -29t29 -70q0 -43 -28.5 -71.5t-71.5 -28.5q-41 0 -69.5 28.5t-28.5 71.5zM307 1683q0 41 29 70t70 29q42 0 71 -29t29 -70q0 -43 -28.5 -71.5t-71.5 -28.5q-42 0 -70.5 28.5t-28.5 71.5z" />
    <glyph glyph-name="Eth" unicode="&#xd0;" horiz-adv-x="1411" 
d="M35 682v106h125v646h526q134 0 243.5 -43t190.5 -127.5t125.5 -218.5t44.5 -308v-41q0 -174 -44.5 -308t-125.5 -218t-190.5 -127t-243.5 -43h-526v682h-125zM324 141h358q202 0 322 138t120 421v33q0 283 -120 421t-322 138h-358v-504h393v-106h-393v-541z" />
    <glyph glyph-name="Ntilde" unicode="&#xd1;" horiz-adv-x="1402" 
d="M160 0v1434h174l737 -1139h10v1139h160v-1434h-174l-735 1139h-10v-1139h-162zM385 1583q0 101 43 150t115 49q54 0 109.5 -25t103.5 -49.5t84 -24.5q46 0 65 30.5t19 68.5h92q0 -94 -43.5 -146.5t-114.5 -52.5q-50 0 -105 24.5t-104.5 49t-87.5 24.5q-45 0 -64.5 -28.5
t-19.5 -69.5h-92z" />
    <glyph glyph-name="Ograve" unicode="&#xd2;" horiz-adv-x="1490" 
d="M743 -20q-293 0 -458.5 180.5t-165.5 535.5v41q0 355 166 536t458 181h5q292 0 457 -181t165 -536v-41q0 -355 -165 -535.5t-457 -180.5h-5zM287 700q0 -299 119.5 -439t336.5 -140h5q217 0 336.5 140t119.5 439v33q0 299 -119.5 439.5t-336.5 140.5h-5
q-217 0 -336.5 -140.5t-119.5 -439.5v-33zM524 1718l39 117l402 -166l-31 -86z" />
    <glyph glyph-name="Oacute" unicode="&#xd3;" horiz-adv-x="1490" 
d="M743 -20q-293 0 -458.5 180.5t-165.5 535.5v41q0 355 166 536t458 181h5q292 0 457 -181t165 -536v-41q0 -355 -165 -535.5t-457 -180.5h-5zM287 700q0 -299 119.5 -439t336.5 -140h5q217 0 336.5 140t119.5 439v33q0 299 -119.5 439.5t-336.5 140.5h-5
q-217 0 -336.5 -140.5t-119.5 -439.5v-33zM524 1669l402 166l39 -117l-410 -135z" />
    <glyph glyph-name="Ocircumflex" unicode="&#xd4;" horiz-adv-x="1490" 
d="M743 -20q-293 0 -458.5 180.5t-165.5 535.5v41q0 355 166 536t458 181h5q292 0 457 -181t165 -536v-41q0 -355 -165 -535.5t-457 -180.5h-5zM287 700q0 -299 119.5 -439t336.5 -140h5q217 0 336.5 140t119.5 439v33q0 299 -119.5 439.5t-336.5 140.5h-5
q-217 0 -336.5 -140.5t-119.5 -439.5v-33zM432 1669l313 137l312 -137l-31 -86l-281 98l-282 -98z" />
    <glyph glyph-name="Otilde" unicode="&#xd5;" horiz-adv-x="1490" 
d="M743 -20q-293 0 -458.5 180.5t-165.5 535.5v41q0 355 166 536t458 181h5q292 0 457 -181t165 -536v-41q0 -355 -165 -535.5t-457 -180.5h-5zM287 700q0 -299 119.5 -439t336.5 -140h5q217 0 336.5 140t119.5 439v33q0 299 -119.5 439.5t-336.5 140.5h-5
q-217 0 -336.5 -140.5t-119.5 -439.5v-33zM430 1583q0 101 43 150t115 49q54 0 109.5 -25t103.5 -49.5t84 -24.5q46 0 65 30.5t19 68.5h92q0 -94 -43.5 -146.5t-114.5 -52.5q-50 0 -105 24.5t-104.5 49t-87.5 24.5q-45 0 -64.5 -28.5t-19.5 -69.5h-92z" />
    <glyph glyph-name="Odieresis" unicode="&#xd6;" horiz-adv-x="1490" 
d="M743 -20q-293 0 -458.5 180.5t-165.5 535.5v41q0 355 166 536t458 181h5q292 0 457 -181t165 -536v-41q0 -355 -165 -535.5t-457 -180.5h-5zM287 700q0 -299 119.5 -439t336.5 -140h5q217 0 336.5 140t119.5 439v33q0 299 -119.5 439.5t-336.5 140.5h-5
q-217 0 -336.5 -140.5t-119.5 -439.5v-33zM483 1683q0 41 29 70t70 29q42 0 71 -29t29 -70q0 -43 -28.5 -71.5t-71.5 -28.5q-42 0 -70.5 28.5t-28.5 71.5zM811 1683q0 41 28.5 70t69.5 29q43 0 72 -29t29 -70q0 -43 -29 -71.5t-72 -28.5q-41 0 -69.5 28.5t-28.5 71.5z" />
    <glyph glyph-name="multiply" unicode="&#xd7;" horiz-adv-x="1003" 
d="M205 334l-86 86l297 297l-297 297l86 88l297 -297l297 297l88 -88l-297 -297l297 -297l-88 -86l-297 297z" />
    <glyph glyph-name="Oslash" unicode="&#xd8;" horiz-adv-x="1490" 
d="M119 0l143 188q-143 182 -143 508v41q0 355 166 536t458 181h5q236 0 389 -117l73 97h162l-143 -189q141 -186 141 -508v-41q0 -355 -165 -535.5t-457 -180.5h-5q-241 0 -391 118l-73 -98h-160zM287 700q0 -233 78 -376l679 890q-114 99 -296 99h-5q-217 0 -336.5 -140.5
t-119.5 -439.5v-33zM446 219q110 -98 297 -98h5q217 0 336.5 140t119.5 439v33q0 234 -78 377z" />
    <glyph glyph-name="Ugrave" unicode="&#xd9;" horiz-adv-x="1417" 
d="M707 -20q-270 0 -408.5 129.5t-138.5 384.5v940h164v-940q0 -190 93 -281.5t290 -91.5h4q197 0 290 91.5t93 281.5v940h163v-940q0 -256 -137.5 -385t-408.5 -129h-4zM489 1718l39 117l402 -166l-31 -86z" />
    <glyph glyph-name="Uacute" unicode="&#xda;" horiz-adv-x="1417" 
d="M707 -20q-270 0 -408.5 129.5t-138.5 384.5v940h164v-940q0 -190 93 -281.5t290 -91.5h4q197 0 290 91.5t93 281.5v940h163v-940q0 -256 -137.5 -385t-408.5 -129h-4zM489 1669l402 166l39 -117l-410 -135z" />
    <glyph glyph-name="Ucircumflex" unicode="&#xdb;" horiz-adv-x="1417" 
d="M707 -20q-270 0 -408.5 129.5t-138.5 384.5v940h164v-940q0 -190 93 -281.5t290 -91.5h4q197 0 290 91.5t93 281.5v940h163v-940q0 -256 -137.5 -385t-408.5 -129h-4zM397 1669l314 137l311 -137l-31 -86l-280 98l-283 -98z" />
    <glyph glyph-name="Udieresis" unicode="&#xdc;" horiz-adv-x="1417" 
d="M707 -20q-270 0 -408.5 129.5t-138.5 384.5v940h164v-940q0 -190 93 -281.5t290 -91.5h4q197 0 290 91.5t93 281.5v940h163v-940q0 -256 -137.5 -385t-408.5 -129h-4zM446 1683q0 41 29 70t70 29q43 0 71.5 -29t28.5 -70q0 -43 -28.5 -71.5t-71.5 -28.5q-41 0 -70 28.5
t-29 71.5zM774 1683q0 41 28.5 70t69.5 29q43 0 72 -29t29 -70q0 -43 -29 -71.5t-72 -28.5q-41 0 -69.5 28.5t-28.5 71.5z" />
    <glyph glyph-name="Yacute" unicode="&#xdd;" horiz-adv-x="1349" 
d="M668 700h10l465 734h172l-559 -908v-526h-164v526l-557 908h174zM455 1669l401 166l39 -117l-410 -135z" />
    <glyph glyph-name="Thorn" unicode="&#xde;" horiz-adv-x="1265" 
d="M160 0v1434h164v-304h405q215 0 336 -108.5t121 -298.5v-12q0 -190 -121.5 -299t-335.5 -109h-405v-303h-164zM324 444h395q143 0 222 69t79 200v8q0 130 -79 199t-222 69h-395v-545z" />
    <glyph glyph-name="germandbls" unicode="&#xdf;" horiz-adv-x="1202" 
d="M596 1454q217 0 332.5 -98t115.5 -275v-20q0 -118 -62 -201.5t-165 -122.5v-10q141 -32 223 -121t82 -229v-21q0 -178 -119 -277t-321 -99h-4q-111 0 -199 20l17 123q80 -17 157 -17h4q140 0 223 71.5t83 201.5v14q0 127 -91.5 198t-236.5 71h-88v126h63q123 0 200 68.5
t77 190.5v14q0 127 -72.5 196.5t-214.5 69.5h-4q-155 0 -227 -81t-72 -216v-1030h-158v1044q0 193 115.5 301.5t337.5 108.5h4z" />
    <glyph glyph-name="agrave" unicode="&#xe0;" horiz-adv-x="1171" 
d="M582 1044q227 0 337.5 -87t110.5 -267v-690h-158v195h-10q-95 -215 -377 -215h-4q-182 0 -282.5 82t-100.5 219v20q0 141 116.5 224t330.5 83h327v88q0 111 -70 166.5t-235 55.5h-4q-198 0 -362 -82l-45 118q188 90 422 90h4zM260 291q0 -86 69.5 -135.5t202.5 -49.5h5
q166 0 250.5 93.5t84.5 240.5v43h-311q-143 0 -222 -45.5t-79 -132.5v-14zM367 1309l39 116l401 -165l-31 -86z" />
    <glyph glyph-name="aacute" unicode="&#xe1;" horiz-adv-x="1171" 
d="M582 1044q227 0 337.5 -87t110.5 -267v-690h-158v195h-10q-95 -215 -377 -215h-4q-182 0 -282.5 82t-100.5 219v20q0 141 116.5 224t330.5 83h327v88q0 111 -70 166.5t-235 55.5h-4q-198 0 -362 -82l-45 118q188 90 422 90h4zM260 291q0 -86 69.5 -135.5t202.5 -49.5h5
q166 0 250.5 93.5t84.5 240.5v43h-311q-143 0 -222 -45.5t-79 -132.5v-14zM367 1260l401 165l39 -116l-410 -135z" />
    <glyph glyph-name="acircumflex" unicode="&#xe2;" horiz-adv-x="1171" 
d="M582 1044q227 0 337.5 -87t110.5 -267v-690h-158v195h-10q-95 -215 -377 -215h-4q-182 0 -282.5 82t-100.5 219v20q0 141 116.5 224t330.5 83h327v88q0 111 -70 166.5t-235 55.5h-4q-198 0 -362 -82l-45 118q188 90 422 90h4zM260 291q0 -86 69.5 -135.5t202.5 -49.5h5
q166 0 250.5 93.5t84.5 240.5v43h-311q-143 0 -222 -45.5t-79 -132.5v-14zM274 1260l314 137l311 -137l-31 -86l-280 98l-283 -98z" />
    <glyph glyph-name="atilde" unicode="&#xe3;" horiz-adv-x="1171" 
d="M582 1044q227 0 337.5 -87t110.5 -267v-690h-158v195h-10q-95 -215 -377 -215h-4q-182 0 -282.5 82t-100.5 219v20q0 141 116.5 224t330.5 83h327v88q0 111 -70 166.5t-235 55.5h-4q-198 0 -362 -82l-45 118q188 90 422 90h4zM260 291q0 -86 69.5 -135.5t202.5 -49.5h5
q166 0 250.5 93.5t84.5 240.5v43h-311q-143 0 -222 -45.5t-79 -132.5v-14zM270 1174q0 101 43 149.5t115 48.5q54 0 109.5 -24.5t103.5 -49t84 -24.5q46 0 65 30t19 68h92q0 -94 -43.5 -146t-114.5 -52q-50 0 -105 24.5t-104.5 49t-87.5 24.5q-45 0 -64.5 -28.5t-19.5 -69.5
h-92z" />
    <glyph glyph-name="adieresis" unicode="&#xe4;" horiz-adv-x="1171" 
d="M582 1044q227 0 337.5 -87t110.5 -267v-690h-158v195h-10q-95 -215 -377 -215h-4q-182 0 -282.5 82t-100.5 219v20q0 141 116.5 224t330.5 83h327v88q0 111 -70 166.5t-235 55.5h-4q-198 0 -362 -82l-45 118q188 90 422 90h4zM260 291q0 -86 69.5 -135.5t202.5 -49.5h5
q166 0 250.5 93.5t84.5 240.5v43h-311q-143 0 -222 -45.5t-79 -132.5v-14zM324 1274q0 41 28.5 69.5t69.5 28.5q43 0 71.5 -28.5t28.5 -69.5q0 -43 -28.5 -71.5t-71.5 -28.5q-41 0 -69.5 28.5t-28.5 71.5zM651 1274q0 41 29 69.5t70 28.5q43 0 71.5 -28.5t28.5 -69.5
q0 -43 -28.5 -71.5t-71.5 -28.5q-42 0 -70.5 29t-28.5 71z" />
    <glyph glyph-name="aring" unicode="&#xe5;" horiz-adv-x="1171" 
d="M582 1044q227 0 337.5 -87t110.5 -267v-690h-158v195h-10q-95 -215 -377 -215h-4q-182 0 -282.5 82t-100.5 219v20q0 141 116.5 224t330.5 83h327v88q0 111 -70 166.5t-235 55.5h-4q-198 0 -362 -82l-45 118q188 90 422 90h4zM260 291q0 -86 69.5 -135.5t202.5 -49.5h5
q166 0 250.5 93.5t84.5 240.5v43h-311q-143 0 -222 -45.5t-79 -132.5v-14zM319 1401q0 101 75.5 164t191.5 63q117 0 192.5 -62.5t75.5 -164.5q0 -100 -76 -163.5t-192 -63.5q-115 0 -191 63.5t-76 163.5zM420 1401q0 -62 44 -97.5t122 -35.5t123 35.5t45 97.5q0 63 -45 98
t-123 35t-122 -35t-44 -98z" />
    <glyph glyph-name="ae" unicode="&#xe6;" horiz-adv-x="1961" 
d="M584 1044q308 0 395 -170q123 170 395 170h4q123 0 217 -36.5t152.5 -102.5t87.5 -154.5t29 -197.5v-84h-832q6 -179 103 -271t284 -92h4q211 0 363 91l45 -117q-165 -100 -428 -100h-4q-177 0 -298.5 71t-176.5 207h-6q-85 -278 -424 -278h-5q-186 0 -288.5 82
t-102.5 219v14q0 140 116.5 219.5t332.5 79.5h325v96q0 115 -70 171.5t-239 56.5h-4q-198 0 -362 -82l-41 118q194 90 424 90h4zM260 285q0 -86 69.5 -132.5t202.5 -46.5h5q167 0 251 89.5t84 240.5v33h-311q-144 0 -222.5 -43.5t-78.5 -130.5v-10zM1034 594h670
q0 145 -80 234.5t-248 89.5h-4q-311 0 -338 -324z" />
    <glyph glyph-name="ccedilla" unicode="&#xe7;" horiz-adv-x="1089" 
d="M618 106q209 0 340 138l70 -105q-141 -148 -383 -159l-12 -89h31q67 0 114 -32.5t47 -110.5q0 -92 -78 -128t-247 -36v78q113 0 165 19t52 71q0 46 -27.5 61t-73.5 15h-77l24 154q-218 11 -341.5 142.5t-123.5 367.5v40q0 248 135.5 380t372.5 132h4q266 0 418 -159
l-70 -103q-132 136 -340 136h-4q-175 0 -264.5 -99t-89.5 -291v-32q0 -192 89.5 -291t264.5 -99h4z" />
    <glyph glyph-name="egrave" unicode="&#xe8;" horiz-adv-x="1189" 
d="M651 106q209 0 361 91l47 -117q-165 -100 -428 -100h-4q-247 0 -388 132.5t-141 379.5v40q0 247 133.5 379.5t368.5 132.5h4q123 0 217 -39t152.5 -109.5t87.5 -164t29 -207.5v-67h-828q19 -351 385 -351h4zM262 582h668q0 68 -18.5 127t-56.5 106.5t-102.5 75
t-148.5 27.5h-4q-157 0 -242 -86.5t-96 -249.5zM379 1309l39 116l401 -165l-31 -86z" />
    <glyph glyph-name="eacute" unicode="&#xe9;" horiz-adv-x="1189" 
d="M651 106q209 0 361 91l47 -117q-165 -100 -428 -100h-4q-247 0 -388 132.5t-141 379.5v40q0 247 133.5 379.5t368.5 132.5h4q123 0 217 -39t152.5 -109.5t87.5 -164t29 -207.5v-67h-828q19 -351 385 -351h4zM262 582h668q0 68 -18.5 127t-56.5 106.5t-102.5 75
t-148.5 27.5h-4q-157 0 -242 -86.5t-96 -249.5zM379 1260l401 165l39 -116l-409 -135z" />
    <glyph glyph-name="ecircumflex" unicode="&#xea;" horiz-adv-x="1189" 
d="M651 106q209 0 361 91l47 -117q-165 -100 -428 -100h-4q-247 0 -388 132.5t-141 379.5v40q0 247 133.5 379.5t368.5 132.5h4q123 0 217 -39t152.5 -109.5t87.5 -164t29 -207.5v-67h-828q19 -351 385 -351h4zM262 582h668q0 68 -18.5 127t-56.5 106.5t-102.5 75
t-148.5 27.5h-4q-157 0 -242 -86.5t-96 -249.5zM287 1260l313 137l311 -137l-30 -86l-281 98l-283 -98z" />
    <glyph glyph-name="edieresis" unicode="&#xeb;" horiz-adv-x="1189" 
d="M651 106q209 0 361 91l47 -117q-165 -100 -428 -100h-4q-247 0 -388 132.5t-141 379.5v40q0 247 133.5 379.5t368.5 132.5h4q123 0 217 -39t152.5 -109.5t87.5 -164t29 -207.5v-67h-828q19 -351 385 -351h4zM262 582h668q0 68 -18.5 127t-56.5 106.5t-102.5 75
t-148.5 27.5h-4q-157 0 -242 -86.5t-96 -249.5zM336 1274q0 41 28.5 69.5t69.5 28.5q43 0 72 -28.5t29 -69.5q0 -43 -29 -71.5t-72 -28.5q-41 0 -69.5 28.5t-28.5 71.5zM664 1274q0 41 28.5 69.5t69.5 28.5q43 0 71.5 -28.5t28.5 -69.5q0 -43 -28.5 -71.5t-71.5 -28.5
q-41 0 -69.5 28.5t-28.5 71.5z" />
    <glyph glyph-name="igrave" unicode="&#xec;" horiz-adv-x="436" 
d="M297 0h-158v1024h158v-1024zM-2 1309l39 116l401 -165l-30 -86z" />
    <glyph glyph-name="iacute" unicode="&#xed;" horiz-adv-x="436" 
d="M297 0h-158v1024h158v-1024zM-2 1260l401 165l39 -116l-409 -135z" />
    <glyph glyph-name="icircumflex" unicode="&#xee;" horiz-adv-x="436" 
d="M297 0h-158v1024h158v-1024zM-94 1260l313 137l311 -137l-30 -86l-281 98l-282 -98z" />
    <glyph glyph-name="idieresis" unicode="&#xef;" horiz-adv-x="436" 
d="M297 0h-158v1024h158v-1024zM-45 1274q0 41 28.5 69.5t69.5 28.5q43 0 72 -28.5t29 -69.5q0 -43 -29 -71.5t-72 -28.5q-41 0 -69.5 28.5t-28.5 71.5zM283 1274q0 41 28.5 69.5t69.5 28.5q43 0 71.5 -28.5t28.5 -69.5q0 -43 -28.5 -71.5t-71.5 -28.5q-41 0 -69.5 28.5
t-28.5 71.5z" />
    <glyph glyph-name="eth" unicode="&#xf0;" horiz-adv-x="1210" 
d="M602 795q-165 0 -253.5 -91.5t-88.5 -242.5v-21q0 -151 88.5 -242.5t253.5 -91.5h4q167 0 255.5 91.5t88.5 242.5v21q0 151 -88.5 242.5t-255.5 91.5h-4zM98 440v21q0 207 135 334t369 127h4q143 0 254 -54q-88 167 -266 338l-270 -94l-29 105l205 71q-81 67 -191 146
h209q64 -48 121 -99l281 99l28 -105l-221 -76q169 -169 276 -367.5t107 -408.5v-20q0 -216 -134 -346.5t-370 -130.5h-4q-234 0 -369 126.5t-135 333.5z" />
    <glyph glyph-name="ntilde" unicode="&#xf1;" 
d="M623 918q-160 0 -243 -94t-83 -261v-563h-158v1024h158v-195h10q19 40 43.5 72.5t67 67.5t109.5 55t153 20h4q181 0 289 -97t108 -285v-662h-157v641q0 137 -81 207t-216 70h-4zM295 1174q0 101 43 149.5t115 48.5q54 0 109.5 -24.5t103.5 -49t84 -24.5q46 0 65 30t19 68
h92q0 -94 -43.5 -146t-114.5 -52q-50 0 -105 24.5t-104.5 49t-87.5 24.5q-45 0 -64.5 -28.5t-19.5 -69.5h-92z" />
    <glyph glyph-name="ograve" unicode="&#xf2;" horiz-adv-x="1210" 
d="M602 -20q-236 0 -370 132t-134 380v40q0 248 134 380t370 132h4q237 0 370.5 -132t133.5 -380v-40q0 -248 -133.5 -380t-370.5 -132h-4zM260 496q0 -192 86.5 -291t255.5 -99h4q170 0 257 99t87 291v32q0 192 -87 291t-257 99h-4q-169 0 -255.5 -99t-86.5 -291v-32z
M385 1309l39 116l401 -165l-30 -86z" />
    <glyph glyph-name="oacute" unicode="&#xf3;" horiz-adv-x="1210" 
d="M602 -20q-236 0 -370 132t-134 380v40q0 248 134 380t370 132h4q237 0 370.5 -132t133.5 -380v-40q0 -248 -133.5 -380t-370.5 -132h-4zM260 496q0 -192 86.5 -291t255.5 -99h4q170 0 257 99t87 291v32q0 192 -87 291t-257 99h-4q-169 0 -255.5 -99t-86.5 -291v-32z
M385 1260l401 165l39 -116l-409 -135z" />
    <glyph glyph-name="ocircumflex" unicode="&#xf4;" horiz-adv-x="1210" 
d="M602 -20q-236 0 -370 132t-134 380v40q0 248 134 380t370 132h4q237 0 370.5 -132t133.5 -380v-40q0 -248 -133.5 -380t-370.5 -132h-4zM260 496q0 -192 86.5 -291t255.5 -99h4q170 0 257 99t87 291v32q0 192 -87 291t-257 99h-4q-169 0 -255.5 -99t-86.5 -291v-32z
M293 1260l313 137l312 -137l-31 -86l-281 98l-282 -98z" />
    <glyph glyph-name="otilde" unicode="&#xf5;" horiz-adv-x="1210" 
d="M602 -20q-236 0 -370 132t-134 380v40q0 248 134 380t370 132h4q237 0 370.5 -132t133.5 -380v-40q0 -248 -133.5 -380t-370.5 -132h-4zM260 496q0 -192 86.5 -291t255.5 -99h4q170 0 257 99t87 291v32q0 192 -87 291t-257 99h-4q-169 0 -255.5 -99t-86.5 -291v-32z
M289 1174q0 101 42.5 149.5t114.5 48.5q54 0 109.5 -24.5t103.5 -49t84 -24.5q46 0 65 30t19 68h93q0 -94 -43.5 -146t-114.5 -52q-50 0 -105 24.5t-104.5 49t-87.5 24.5q-45 0 -64.5 -28.5t-19.5 -69.5h-92z" />
    <glyph glyph-name="odieresis" unicode="&#xf6;" horiz-adv-x="1210" 
d="M602 -20q-236 0 -370 132t-134 380v40q0 248 134 380t370 132h4q237 0 370.5 -132t133.5 -380v-40q0 -248 -133.5 -380t-370.5 -132h-4zM260 496q0 -192 86.5 -291t255.5 -99h4q170 0 257 99t87 291v32q0 192 -87 291t-257 99h-4q-169 0 -255.5 -99t-86.5 -291v-32z
M342 1274q0 41 28.5 69.5t69.5 28.5q43 0 72 -28.5t29 -69.5q0 -43 -29 -71.5t-72 -28.5q-41 0 -69.5 28.5t-28.5 71.5zM670 1274q0 41 28.5 69.5t69.5 28.5q43 0 71.5 -28.5t28.5 -69.5q0 -43 -28.5 -71.5t-71.5 -28.5q-41 0 -69.5 28.5t-28.5 71.5z" />
    <glyph glyph-name="divide" unicode="&#xf7;" horiz-adv-x="1085" 
d="M983 778v-123h-881v123h881zM436 362q0 45 29 74t78 29q47 0 76.5 -29t29.5 -74t-29.5 -73.5t-76.5 -28.5q-49 0 -78 28.5t-29 73.5zM436 1071q0 45 29 74t78 29q47 0 76.5 -29t29.5 -74t-29.5 -73.5t-76.5 -28.5q-49 0 -78 28.5t-29 73.5z" />
    <glyph glyph-name="oslash" unicode="&#xf8;" horiz-adv-x="1210" 
d="M98 0l113 135q-113 132 -113 357v40q0 248 134 380t370 132h4q183 0 305 -79l50 59h149l-113 -133q113 -131 113 -359v-40q0 -248 -133.5 -380t-370.5 -132h-4q-183 0 -305 79l-49 -59h-150zM260 496q0 -148 51 -242l510 604q-85 60 -215 60h-4q-169 0 -255.5 -99
t-86.5 -291v-32zM389 166q82 -60 213 -60h4q170 0 257 99t87 291v32q0 149 -53 244z" />
    <glyph glyph-name="ugrave" unicode="&#xf9;" 
d="M600 106q160 0 242 93.5t82 261.5v563h157v-1024h-157v195h-11q-98 -215 -370 -215h-4q-181 0 -290.5 98t-109.5 284v662h158v-641q0 -137 81.5 -207t217.5 -70h4zM391 1309l39 116l401 -165l-30 -86z" />
    <glyph glyph-name="uacute" unicode="&#xfa;" 
d="M600 106q160 0 242 93.5t82 261.5v563h157v-1024h-157v195h-11q-98 -215 -370 -215h-4q-181 0 -290.5 98t-109.5 284v662h158v-641q0 -137 81.5 -207t217.5 -70h4zM391 1260l402 165l38 -116l-409 -135z" />
    <glyph glyph-name="ucircumflex" unicode="&#xfb;" 
d="M600 106q160 0 242 93.5t82 261.5v563h157v-1024h-157v195h-11q-98 -215 -370 -215h-4q-181 0 -290.5 98t-109.5 284v662h158v-641q0 -137 81.5 -207t217.5 -70h4zM299 1260l313 137l312 -137l-31 -86l-281 98l-282 -98z" />
    <glyph glyph-name="udieresis" unicode="&#xfc;" 
d="M600 106q160 0 242 93.5t82 261.5v563h157v-1024h-157v195h-11q-98 -215 -370 -215h-4q-181 0 -290.5 98t-109.5 284v662h158v-641q0 -137 81.5 -207t217.5 -70h4zM348 1274q0 41 28.5 69.5t69.5 28.5q43 0 72 -28.5t29 -69.5q0 -43 -29 -71.5t-72 -28.5
q-41 0 -69.5 28.5t-28.5 71.5zM676 1274q0 41 28.5 69.5t69.5 28.5q43 0 71.5 -28.5t28.5 -69.5q0 -43 -28.5 -71.5t-71.5 -28.5q-41 0 -69.5 28.5t-28.5 71.5z" />
    <glyph glyph-name="yacute" unicode="&#xfd;" horiz-adv-x="1120" 
d="M20 1024h164l381 -883h10l367 883h158l-500 -1200q-53 -130 -138.5 -191t-232.5 -61h-4q-118 0 -209 25l29 124q70 -22 172 -22h4q98 0 152 37t84 108l61 156h-57zM340 1260l401 165l39 -116l-409 -135z" />
    <glyph glyph-name="thorn" unicode="&#xfe;" horiz-adv-x="1247" 
d="M139 -410v1844h158v-613h10q48 108 143.5 165.5t233.5 57.5h4q216 0 338.5 -132t122.5 -380v-40q0 -248 -122.5 -380t-338.5 -132h-4q-138 0 -233.5 57.5t-143.5 165.5h-10v-613h-158zM297 496q0 -190 90 -290t254 -100h4q166 0 254 99.5t88 290.5v32q0 191 -88 290.5
t-254 99.5h-4q-164 0 -254 -100t-90 -290v-32z" />
    <glyph glyph-name="ydieresis" unicode="&#xff;" horiz-adv-x="1120" 
d="M20 1024h164l381 -883h10l367 883h158l-500 -1200q-53 -130 -138.5 -191t-232.5 -61h-4q-118 0 -209 25l29 124q70 -22 172 -22h4q98 0 152 37t84 108l61 156h-57zM297 1274q0 41 28.5 69.5t69.5 28.5q43 0 72 -28.5t29 -69.5q0 -43 -29 -71.5t-72 -28.5
q-41 0 -69.5 28.5t-28.5 71.5zM625 1274q0 41 28.5 69.5t69.5 28.5q43 0 71.5 -28.5t28.5 -69.5q0 -43 -28.5 -71.5t-71.5 -28.5q-41 0 -69.5 28.5t-28.5 71.5z" />
    <glyph glyph-name="Amacron" unicode="&#x100;" horiz-adv-x="1349" 
d="M395 539h559l-272 743h-10zM35 0l526 1434h230l524 -1434h-168l-143 403h-658l-143 -403h-168zM365 1653v94h620v-94h-620z" />
    <glyph glyph-name="amacron" unicode="&#x101;" horiz-adv-x="1171" 
d="M582 1044q227 0 337.5 -87t110.5 -267v-690h-158v195h-10q-95 -215 -377 -215h-4q-182 0 -282.5 82t-100.5 219v20q0 141 116.5 224t330.5 83h327v88q0 111 -70 166.5t-235 55.5h-4q-198 0 -362 -82l-45 118q188 90 422 90h4zM260 291q0 -86 69.5 -135.5t202.5 -49.5h5
q166 0 250.5 93.5t84.5 240.5v43h-311q-143 0 -222 -45.5t-79 -132.5v-14zM276 1243v94h621v-94h-621z" />
    <glyph glyph-name="Abreve" unicode="&#x102;" horiz-adv-x="1349" 
d="M395 539h559l-272 743h-10zM35 0l526 1434h230l524 -1434h-168l-143 403h-658l-143 -403h-168zM408 1808h100q0 -63 44 -97t122 -34q79 0 123.5 34.5t44.5 96.5h100q0 -100 -75.5 -162.5t-192.5 -62.5q-115 0 -190.5 62.5t-75.5 162.5z" />
    <glyph glyph-name="abreve" unicode="&#x103;" horiz-adv-x="1171" 
d="M582 1044q227 0 337.5 -87t110.5 -267v-690h-158v195h-10q-95 -215 -377 -215h-4q-182 0 -282.5 82t-100.5 219v20q0 141 116.5 224t330.5 83h327v88q0 111 -70 166.5t-235 55.5h-4q-198 0 -362 -82l-45 118q188 90 422 90h4zM260 291q0 -86 69.5 -135.5t202.5 -49.5h5
q166 0 250.5 93.5t84.5 240.5v43h-311q-143 0 -222 -45.5t-79 -132.5v-14zM319 1399h101q0 -63 44 -97t122 -34q79 0 123.5 34.5t44.5 96.5h100q0 -100 -75.5 -162.5t-192.5 -62.5q-115 0 -191 62.5t-76 162.5z" />
    <glyph glyph-name="Aogonek" unicode="&#x104;" horiz-adv-x="1349" 
d="M395 539h559l-272 743h-10zM35 0l526 1434h230l524 -1434q-91 -63 -133.5 -114t-42.5 -111q0 -113 172 -113v-78q-132 0 -206.5 45t-74.5 138q0 132 182 233h-65l-143 403h-658l-143 -403h-168z" />
    <glyph glyph-name="aogonek" unicode="&#x105;" horiz-adv-x="1171" 
d="M582 1044q227 0 337.5 -87t110.5 -267v-690h-14q-83 -59 -122.5 -108.5t-39.5 -106.5q0 -113 172 -113v-78q-132 0 -206.5 45t-74.5 138q0 126 164 223h-37v195h-10q-95 -215 -377 -215h-4q-182 0 -282.5 82t-100.5 219v20q0 141 116.5 224t330.5 83h327v88
q0 111 -70 166.5t-235 55.5h-4q-198 0 -362 -82l-45 118q188 90 422 90h4zM260 291q0 -86 69.5 -135.5t202.5 -49.5h5q166 0 250.5 93.5t84.5 240.5v43h-311q-143 0 -222 -45.5t-79 -132.5v-14z" />
    <glyph glyph-name="Cacute" unicode="&#x106;" horiz-adv-x="1353" 
d="M119 737q0 352 170 534.5t467 182.5h4q170 0 292.5 -45t221.5 -133l-82 -115q-176 152 -424 152h-4q-228 0 -352.5 -146.5t-124.5 -433.5v-33q0 -287 124.5 -433t352.5 -146h4q249 0 424 151l82 -114q-99 -88 -221.5 -133t-292.5 -45h-4q-297 0 -467 182t-170 534v41z
M555 1669l401 166l39 -117l-409 -135z" />
    <glyph glyph-name="cacute" unicode="&#x107;" horiz-adv-x="1089" 
d="M618 106q209 0 340 138l70 -105q-152 -159 -418 -159h-4q-237 0 -372.5 132t-135.5 380v40q0 248 135.5 380t372.5 132h4q266 0 418 -159l-70 -103q-132 136 -340 136h-4q-175 0 -264.5 -99t-89.5 -291v-32q0 -192 89.5 -291t264.5 -99h4zM377 1260l401 165l39 -116
l-409 -135z" />
    <glyph glyph-name="Ccircumflex" unicode="&#x108;" horiz-adv-x="1353" 
d="M119 737q0 352 170 534.5t467 182.5h4q170 0 292.5 -45t221.5 -133l-82 -115q-176 152 -424 152h-4q-228 0 -352.5 -146.5t-124.5 -433.5v-33q0 -287 124.5 -433t352.5 -146h4q249 0 424 151l82 -114q-99 -88 -221.5 -133t-292.5 -45h-4q-297 0 -467 182t-170 534v41z
M463 1669l313 137l311 -137l-30 -86l-281 98l-282 -98z" />
    <glyph glyph-name="ccircumflex" unicode="&#x109;" horiz-adv-x="1089" 
d="M618 106q209 0 340 138l70 -105q-152 -159 -418 -159h-4q-237 0 -372.5 132t-135.5 380v40q0 248 135.5 380t372.5 132h4q266 0 418 -159l-70 -103q-132 136 -340 136h-4q-175 0 -264.5 -99t-89.5 -291v-32q0 -192 89.5 -291t264.5 -99h4zM285 1260l313 137l311 -137
l-30 -86l-281 98l-283 -98z" />
    <glyph glyph-name="Cdotaccent" unicode="&#x10a;" horiz-adv-x="1353" 
d="M119 737q0 352 170 534.5t467 182.5h4q170 0 292.5 -45t221.5 -133l-82 -115q-176 152 -424 152h-4q-228 0 -352.5 -146.5t-124.5 -433.5v-33q0 -287 124.5 -433t352.5 -146h4q249 0 424 151l82 -114q-99 -88 -221.5 -133t-292.5 -45h-4q-297 0 -467 182t-170 534v41z
M664 1690q0 47 32 76.5t80 29.5t80.5 -29.5t32.5 -76.5t-32.5 -77t-80.5 -30t-80 30t-32 77z" />
    <glyph glyph-name="cdotaccent" unicode="&#x10b;" horiz-adv-x="1089" 
d="M618 106q209 0 340 138l70 -105q-152 -159 -418 -159h-4q-237 0 -372.5 132t-135.5 380v40q0 248 135.5 380t372.5 132h4q266 0 418 -159l-70 -103q-132 136 -340 136h-4q-175 0 -264.5 -99t-89.5 -291v-32q0 -192 89.5 -291t264.5 -99h4zM485 1280q0 47 32.5 76.5
t80.5 29.5t80.5 -29.5t32.5 -76.5t-32.5 -76.5t-80.5 -29.5t-80.5 29.5t-32.5 76.5z" />
    <glyph glyph-name="Ccaron" unicode="&#x10c;" horiz-adv-x="1353" 
d="M119 737q0 352 170 534.5t467 182.5h4q170 0 292.5 -45t221.5 -133l-82 -115q-176 152 -424 152h-4q-228 0 -352.5 -146.5t-124.5 -433.5v-33q0 -287 124.5 -433t352.5 -146h4q249 0 424 151l82 -114q-99 -88 -221.5 -133t-292.5 -45h-4q-297 0 -467 182t-170 534v41z
M463 1720l31 86l282 -98l281 98l30 -86l-311 -137z" />
    <glyph glyph-name="ccaron" unicode="&#x10d;" horiz-adv-x="1089" 
d="M618 106q209 0 340 138l70 -105q-152 -159 -418 -159h-4q-237 0 -372.5 132t-135.5 380v40q0 248 135.5 380t372.5 132h4q266 0 418 -159l-70 -103q-132 136 -340 136h-4q-175 0 -264.5 -99t-89.5 -291v-32q0 -192 89.5 -291t264.5 -99h4zM285 1311l30 86l283 -99l281 99
l30 -86l-311 -137z" />
    <glyph glyph-name="Dcaron" unicode="&#x10e;" horiz-adv-x="1411" 
d="M682 1292h-358v-1151h358q202 0 322 138t120 421v33q0 283 -120 421t-322 138zM160 0v1434h526q134 0 243.5 -43t190.5 -127.5t125.5 -218.5t44.5 -308v-41q0 -174 -44.5 -308t-125.5 -218t-190.5 -127t-243.5 -43h-526zM352 1720l31 86l283 -98l280 98l31 -86l-311 -137
z" />
    <glyph glyph-name="dcaron" unicode="&#x10f;" horiz-adv-x="1366" 
d="M1108 0h-158v203h-10q-48 -108 -143.5 -165.5t-233.5 -57.5h-4q-216 0 -338.5 132t-122.5 380v40q0 248 122.5 380t338.5 132h4q138 0 233.5 -57.5t143.5 -165.5h10v613h158v-1434zM260 496q0 -191 88 -290.5t254 -99.5h4q164 0 254 100t90 290v32q0 190 -90 290
t-254 100h-4q-166 0 -254 -99.5t-88 -290.5v-32zM1210 922v512h144l-35 -512h-109z" />
    <glyph glyph-name="Dcroat" unicode="&#x110;" horiz-adv-x="1411" 
d="M35 682v106h125v646h526q134 0 243.5 -43t190.5 -127.5t125.5 -218.5t44.5 -308v-41q0 -174 -44.5 -308t-125.5 -218t-190.5 -127t-243.5 -43h-526v682h-125zM324 141h358q202 0 322 138t120 421v33q0 283 -120 421t-322 138h-358v-504h393v-106h-393v-541z" />
    <glyph glyph-name="dcroat" unicode="&#x111;" horiz-adv-x="1247" 
d="M561 1161v107h389v166h158v-166h104v-107h-104v-1161h-158v203h-10q-48 -108 -143.5 -165.5t-233.5 -57.5h-4q-216 0 -338.5 132t-122.5 380v40q0 248 122.5 380t338.5 132h4q138 0 233.5 -57.5t143.5 -165.5h10v340h-389zM260 496q0 -191 88 -290.5t254 -99.5h4
q164 0 254 100t90 290v32q0 190 -90 290t-254 100h-4q-166 0 -254 -99.5t-88 -290.5v-32z" />
    <glyph glyph-name="Emacron" unicode="&#x112;" horiz-adv-x="1230" 
d="M324 141h786v-141h-950v1434h950v-142h-786v-489h766v-141h-766v-521zM326 1653v94h620v-94h-620z" />
    <glyph glyph-name="emacron" unicode="&#x113;" horiz-adv-x="1189" 
d="M651 106q209 0 361 91l47 -117q-165 -100 -428 -100h-4q-247 0 -388 132.5t-141 379.5v40q0 247 133.5 379.5t368.5 132.5h4q123 0 217 -39t152.5 -109.5t87.5 -164t29 -207.5v-67h-828q19 -351 385 -351h4zM262 582h668q0 68 -18.5 127t-56.5 106.5t-102.5 75
t-148.5 27.5h-4q-157 0 -242 -86.5t-96 -249.5zM289 1243v94h620v-94h-620z" />
    <glyph glyph-name="Ebreve" unicode="&#x114;" horiz-adv-x="1230" 
d="M324 141h786v-141h-950v1434h950v-142h-786v-489h766v-141h-766v-521zM369 1808h100q0 -63 44 -97t122 -34q79 0 123.5 34.5t44.5 96.5h100q0 -100 -75.5 -162.5t-192.5 -62.5q-115 0 -190.5 62.5t-75.5 162.5z" />
    <glyph glyph-name="ebreve" unicode="&#x115;" horiz-adv-x="1189" 
d="M651 106q209 0 361 91l47 -117q-165 -100 -428 -100h-4q-247 0 -388 132.5t-141 379.5v40q0 247 133.5 379.5t368.5 132.5h4q123 0 217 -39t152.5 -109.5t87.5 -164t29 -207.5v-67h-828q19 -351 385 -351h4zM262 582h668q0 68 -18.5 127t-56.5 106.5t-102.5 75
t-148.5 27.5h-4q-157 0 -242 -86.5t-96 -249.5zM332 1399h100q0 -63 44 -97t122 -34q79 0 123.5 34.5t44.5 96.5h100q0 -100 -75.5 -162.5t-192.5 -62.5q-115 0 -190.5 62.5t-75.5 162.5z" />
    <glyph glyph-name="Edotaccent" unicode="&#x116;" horiz-adv-x="1230" 
d="M324 141h786v-141h-950v1434h950v-142h-786v-489h766v-141h-766v-521zM522 1690q0 47 32.5 76.5t80.5 29.5t80.5 -29.5t32.5 -76.5t-32.5 -77t-80.5 -30t-80.5 30t-32.5 77z" />
    <glyph glyph-name="edotaccent" unicode="&#x117;" horiz-adv-x="1189" 
d="M651 106q209 0 361 91l47 -117q-165 -100 -428 -100h-4q-247 0 -388 132.5t-141 379.5v40q0 247 133.5 379.5t368.5 132.5h4q123 0 217 -39t152.5 -109.5t87.5 -164t29 -207.5v-67h-828q19 -351 385 -351h4zM262 582h668q0 68 -18.5 127t-56.5 106.5t-102.5 75
t-148.5 27.5h-4q-157 0 -242 -86.5t-96 -249.5zM485 1280q0 47 32.5 76.5t80.5 29.5t80.5 -29.5t32.5 -76.5t-32.5 -76.5t-80.5 -29.5t-80.5 29.5t-32.5 76.5z" />
    <glyph glyph-name="Eogonek" unicode="&#x118;" horiz-adv-x="1230" 
d="M324 141h786v-141q-91 -63 -133.5 -114t-42.5 -111q0 -113 172 -113v-78q-132 0 -206.5 45t-74.5 138q0 132 183 233h-848v1434h950v-142h-786v-489h766v-141h-766v-521z" />
    <glyph glyph-name="eogonek" unicode="&#x119;" horiz-adv-x="1189" 
d="M1053 -352q-132 0 -206.5 44t-74.5 136q0 96 98 178q-104 -26 -239 -26h-4q-247 0 -388 132.5t-141 379.5v40q0 247 133.5 379.5t368.5 132.5h4q123 0 217 -39t152.5 -109.5t87.5 -164t29 -207.5v-67h-828q19 -351 385 -351h4q209 0 361 91l47 -117q-89 -65 -132.5 -121
t-43.5 -117q0 -114 170 -114v-80zM262 582h668q0 68 -18.5 127t-56.5 106.5t-102.5 75t-148.5 27.5h-4q-157 0 -242 -86.5t-96 -249.5z" />
    <glyph glyph-name="Ecaron" unicode="&#x11a;" horiz-adv-x="1230" 
d="M324 141h786v-141h-950v1434h950v-142h-786v-489h766v-141h-766v-521zM324 1720l30 86l283 -98l281 98l30 -86l-311 -137z" />
    <glyph glyph-name="ecaron" unicode="&#x11b;" horiz-adv-x="1189" 
d="M651 106q209 0 361 91l47 -117q-165 -100 -428 -100h-4q-247 0 -388 132.5t-141 379.5v40q0 247 133.5 379.5t368.5 132.5h4q123 0 217 -39t152.5 -109.5t87.5 -164t29 -207.5v-67h-828q19 -351 385 -351h4zM262 582h668q0 68 -18.5 127t-56.5 106.5t-102.5 75
t-148.5 27.5h-4q-157 0 -242 -86.5t-96 -249.5zM287 1311l30 86l283 -99l281 99l30 -86l-311 -137z" />
    <glyph glyph-name="Gcircumflex" unicode="&#x11c;" horiz-adv-x="1495" 
d="M774 121q438 0 438 497h-446v142h610v-98q0 -69 -7 -133.5t-26 -134t-48 -128.5t-76.5 -113t-109.5 -91.5t-148.5 -59.5t-190.5 -22h-4q-299 0 -473 182.5t-174 533.5v41q0 351 176 534t477 183h4q314 0 514 -178l-84 -115q-171 152 -424 152h-4q-230 0 -360.5 -147.5
t-130.5 -432.5v-33q0 -287 126.5 -433t356.5 -146h4zM455 1669l313 137l311 -137l-30 -86l-281 98l-283 -98z" />
    <glyph glyph-name="gcircumflex" unicode="&#x11d;" horiz-adv-x="1247" 
d="M1108 -27q0 -403 -510 -403h-4q-247 0 -438 76l28 121q174 -70 410 -70h4q81 0 141.5 12.5t110 43t75 85.5t25.5 135v283h-10q-48 -107 -143.5 -164t-233.5 -57h-4q-214 0 -337.5 127.5t-123.5 355.5v41q0 230 123.5 357.5t337.5 127.5h4q138 0 233.5 -57.5t143.5 -165.5
h10v203h158v-1051zM260 522q0 -173 89 -266.5t253 -93.5h4q163 0 253.5 93.5t90.5 266.5v35q0 173 -90.5 267t-253.5 94h-4q-164 0 -253 -94t-89 -267v-35zM311 1260l314 137l311 -137l-31 -86l-280 98l-283 -98z" />
    <glyph glyph-name="Gbreve" unicode="&#x11e;" horiz-adv-x="1495" 
d="M774 121q438 0 438 497h-446v142h610v-98q0 -69 -7 -133.5t-26 -134t-48 -128.5t-76.5 -113t-109.5 -91.5t-148.5 -59.5t-190.5 -22h-4q-299 0 -473 182.5t-174 533.5v41q0 351 176 534t477 183h4q314 0 514 -178l-84 -115q-171 152 -424 152h-4q-230 0 -360.5 -147.5
t-130.5 -432.5v-33q0 -287 126.5 -433t356.5 -146h4zM500 1808h100q0 -63 44 -97t122 -34q79 0 123.5 34.5t44.5 96.5h100q0 -100 -75.5 -162.5t-192.5 -62.5q-115 0 -190.5 62.5t-75.5 162.5z" />
    <glyph glyph-name="gbreve" unicode="&#x11f;" horiz-adv-x="1247" 
d="M1108 -27q0 -403 -510 -403h-4q-247 0 -438 76l28 121q174 -70 410 -70h4q81 0 141.5 12.5t110 43t75 85.5t25.5 135v283h-10q-48 -107 -143.5 -164t-233.5 -57h-4q-214 0 -337.5 127.5t-123.5 355.5v41q0 230 123.5 357.5t337.5 127.5h4q138 0 233.5 -57.5t143.5 -165.5
h10v203h158v-1051zM260 522q0 -173 89 -266.5t253 -93.5h4q163 0 253.5 93.5t90.5 266.5v35q0 173 -90.5 267t-253.5 94h-4q-164 0 -253 -94t-89 -267v-35zM356 1399h101q0 -63 44 -97t122 -34q79 0 123.5 34.5t44.5 96.5h100q0 -100 -75.5 -162.5t-192.5 -62.5
q-115 0 -191 62.5t-76 162.5z" />
    <glyph glyph-name="Gdotaccent" unicode="&#x120;" horiz-adv-x="1495" 
d="M774 121q438 0 438 497h-446v142h610v-98q0 -69 -7 -133.5t-26 -134t-48 -128.5t-76.5 -113t-109.5 -91.5t-148.5 -59.5t-190.5 -22h-4q-299 0 -473 182.5t-174 533.5v41q0 351 176 534t477 183h4q314 0 514 -178l-84 -115q-171 152 -424 152h-4q-230 0 -360.5 -147.5
t-130.5 -432.5v-33q0 -287 126.5 -433t356.5 -146h4zM653 1690q0 47 32.5 76.5t80.5 29.5t80.5 -29.5t32.5 -76.5t-32.5 -77t-80.5 -30t-80.5 30t-32.5 77z" />
    <glyph glyph-name="gdotaccent" unicode="&#x121;" horiz-adv-x="1247" 
d="M1108 -27q0 -403 -510 -403h-4q-247 0 -438 76l28 121q174 -70 410 -70h4q81 0 141.5 12.5t110 43t75 85.5t25.5 135v283h-10q-48 -107 -143.5 -164t-233.5 -57h-4q-214 0 -337.5 127.5t-123.5 355.5v41q0 230 123.5 357.5t337.5 127.5h4q138 0 233.5 -57.5t143.5 -165.5
h10v203h158v-1051zM260 522q0 -173 89 -266.5t253 -93.5h4q163 0 253.5 93.5t90.5 266.5v35q0 173 -90.5 267t-253.5 94h-4q-164 0 -253 -94t-89 -267v-35zM512 1280q0 47 32.5 76.5t80.5 29.5t80 -29.5t32 -76.5t-32 -76.5t-80 -29.5t-80.5 29.5t-32.5 76.5z" />
    <glyph glyph-name="uni0122" unicode="&#x122;" horiz-adv-x="1495" 
d="M774 121q438 0 438 497h-446v142h610v-98q0 -69 -7 -133.5t-26 -134t-48 -128.5t-76.5 -113t-109.5 -91.5t-148.5 -59.5t-190.5 -22h-4q-299 0 -473 182.5t-174 533.5v41q0 351 176 534t477 183h4q314 0 514 -178l-84 -115q-171 152 -424 152h-4q-230 0 -360.5 -147.5
t-130.5 -432.5v-33q0 -287 126.5 -433t356.5 -146h4zM588 -559l102 395h178l-157 -395h-123z" />
    <glyph glyph-name="uni0123" unicode="&#x123;" horiz-adv-x="1247" 
d="M1108 -27q0 -403 -510 -403h-4q-247 0 -438 76l28 121q174 -70 410 -70h4q81 0 141.5 12.5t110 43t75 85.5t25.5 135v283h-10q-48 -107 -143.5 -164t-233.5 -57h-4q-214 0 -337.5 127.5t-123.5 355.5v41q0 230 123.5 357.5t337.5 127.5h4q138 0 233.5 -57.5t143.5 -165.5
h10v203h158v-1051zM260 522q0 -173 89 -266.5t253 -93.5h4q163 0 253.5 93.5t90.5 266.5v35q0 173 -90.5 267t-253.5 94h-4q-164 0 -253 -94t-89 -267v-35zM522 1188l158 395h123l-103 -395h-178z" />
    <glyph glyph-name="Hcircumflex" unicode="&#x124;" horiz-adv-x="1413" 
d="M324 803h766v631h163v-1434h-163v662h-766v-662h-164v1434h164v-631zM395 1669l314 137l311 -137l-31 -86l-280 98l-283 -98z" />
    <glyph glyph-name="hcircumflex" unicode="&#x125;" 
d="M623 918q-160 0 -243 -94t-83 -261v-563h-158v1434h158v-605h10q19 40 43.5 72.5t67 67.5t109.5 55t153 20h4q181 0 289 -97t108 -285v-662h-157v641q0 137 -81 207t-216 70h-4zM299 1669l313 137l312 -137l-31 -86l-281 98l-282 -98z" />
    <glyph glyph-name="Hbar" unicode="&#x126;" horiz-adv-x="1413" 
d="M35 1108v106h125v220h164v-220h766v220h163v-220h127v-106h-127v-1108h-163v662h-766v-662h-164v1108h-125zM324 803h766v305h-766v-305z" />
    <glyph glyph-name="hbar" unicode="&#x127;" 
d="M35 1161v107h104v166h158v-166h389v-107h-389v-332h10q19 40 43.5 72.5t67 67.5t109.5 55t153 20h4q181 0 289 -97t108 -285v-662h-157v641q0 137 -81 207t-216 70h-4q-160 0 -243 -94t-83 -261v-563h-158v1161h-104z" />
    <glyph glyph-name="Itilde" unicode="&#x128;" horiz-adv-x="485" 
d="M160 0v1434h164v-1434h-164zM-74 1583q0 101 43 150t115 49q54 0 109.5 -25t103.5 -49.5t84 -24.5q46 0 65 30.5t19 68.5h92q0 -94 -43.5 -146.5t-114.5 -52.5q-50 0 -105 24.5t-104.5 49t-87.5 24.5q-45 0 -64.5 -28.5t-19.5 -69.5h-92z" />
    <glyph glyph-name="itilde" unicode="&#x129;" horiz-adv-x="436" 
d="M297 0h-158v1024h158v-1024zM-98 1174q0 101 42.5 149.5t114.5 48.5q54 0 109.5 -24.5t103.5 -49t84 -24.5q46 0 65 30t19 68h92q0 -94 -43 -146t-114 -52q-50 0 -105 24.5t-104.5 49t-87.5 24.5q-45 0 -64.5 -28.5t-19.5 -69.5h-92z" />
    <glyph glyph-name="Imacron" unicode="&#x12a;" horiz-adv-x="485" 
d="M160 0v1434h164v-1434h-164zM-68 1653v94h621v-94h-621z" />
    <glyph glyph-name="imacron" unicode="&#x12b;" horiz-adv-x="436" 
d="M297 0h-158v1024h158v-1024zM-92 1243v94h620v-94h-620z" />
    <glyph glyph-name="Ibreve" unicode="&#x12c;" horiz-adv-x="485" 
d="M160 0v1434h164v-1434h-164zM-25 1808h101q0 -63 44 -97t122 -34q79 0 123.5 34.5t44.5 96.5h100q0 -100 -75.5 -162.5t-192.5 -62.5q-115 0 -191 62.5t-76 162.5z" />
    <glyph glyph-name="ibreve" unicode="&#x12d;" horiz-adv-x="436" 
d="M297 0h-158v1024h158v-1024zM-49 1399h100q0 -63 44 -97t122 -34q79 0 123.5 34.5t44.5 96.5h100q0 -100 -75.5 -162.5t-192.5 -62.5q-115 0 -190.5 62.5t-75.5 162.5z" />
    <glyph glyph-name="Iogonek" unicode="&#x12e;" horiz-adv-x="485" 
d="M160 0v1434h164v-1434q-91 -63 -134 -114t-43 -111q0 -113 172 -113v-78q-132 0 -206 45t-74 138q0 132 182 233h-61z" />
    <glyph glyph-name="iogonek" unicode="&#x12f;" horiz-adv-x="436" 
d="M297 0h-2q-91 -63 -133.5 -114t-42.5 -111q0 -113 172 -113v-78q-132 0 -206.5 45t-74.5 138q0 132 183 233h-54v1024h158v-1024zM106 1280q0 47 32.5 76.5t80.5 29.5t80.5 -29.5t32.5 -76.5t-32.5 -76.5t-80.5 -29.5t-80.5 29.5t-32.5 76.5z" />
    <glyph glyph-name="Idotaccent" unicode="&#x130;" horiz-adv-x="485" 
d="M160 0v1434h164v-1434h-164zM129 1690q0 47 32.5 76.5t80.5 29.5t80 -29.5t32 -76.5t-32 -77t-80 -30t-80.5 30t-32.5 77z" />
    <glyph glyph-name="dotlessi" unicode="&#x131;" horiz-adv-x="436" 
d="M297 0h-158v1024h158v-1024z" />
    <glyph glyph-name="IJ" unicode="&#x132;" horiz-adv-x="1202" 
d="M160 522v912h164v-912h-164zM219 104l72 119q117 -102 289 -102h4q140 0 217.5 75t77.5 214v1024h163v-1024q0 -213 -120 -321.5t-324 -108.5h-4q-230 0 -375 124z" />
    <glyph glyph-name="ij" unicode="&#x133;" horiz-adv-x="872" 
d="M297 0h-158v1024h158v-1024zM106 1280q0 47 32.5 76.5t80.5 29.5q47 0 80 -30t33 -76t-33 -76t-80 -30q-48 0 -80.5 29.5t-32.5 76.5zM213 -393l29 123q79 -31 161 -31h5q89 0 127 38t38 109v1178h158v-1196q0 -122 -76 -189t-223 -67h-4q-125 0 -215 35zM541 1280
q0 47 32 76.5t80 29.5q47 0 80 -30t33 -76t-33 -76t-80 -30q-48 0 -80 29.5t-32 76.5z" />
    <glyph glyph-name="Jcircumflex" unicode="&#x134;" horiz-adv-x="1034" 
d="M428 -20q-232 0 -377 124l74 119q114 -102 289 -102h4q139 0 216 75t77 214v882h-518v142h681v-1024q0 -213 -119.5 -321.5t-322.5 -108.5h-4zM205 1669l313 137l311 -137l-30 -86l-281 98l-282 -98z" />
    <glyph glyph-name="jcircumflex" unicode="&#x135;" horiz-adv-x="436" 
d="M297 -172q0 -122 -76 -189t-223 -67h-4q-125 0 -215 35l28 123q79 -31 162 -31h4q89 0 127.5 38t38.5 109v1178h158v-1196zM-94 1260l313 137l311 -137l-30 -86l-281 98l-282 -98z" />
    <glyph glyph-name="uni0136" unicode="&#x136;" horiz-adv-x="1314" 
d="M334 629q434 315 735 805h182q-238 -384 -512 -658l541 -776h-186l-473 662q-144 -131 -297 -244v-418h-164v1434h164v-805h10zM479 -559l103 395h178l-158 -395h-123z" />
    <glyph glyph-name="uni0137" unicode="&#x137;" horiz-adv-x="1132" 
d="M295 0h-158v1434h158v-949h10q173 94 322.5 231t261.5 308h170q-164 -256 -379 -440l420 -584h-174l-365 489q-111 -83 -266 -170v-319zM397 -559l103 395h178l-158 -395h-123z" />
    <glyph glyph-name="Lacute" unicode="&#x139;" horiz-adv-x="1128" 
d="M324 141h753v-141h-917v1434h164v-1293zM23 1669l401 166l39 -117l-410 -135z" />
    <glyph glyph-name="lacute" unicode="&#x13a;" horiz-adv-x="436" 
d="M139 0v1434h158v-1434h-158zM-2 1669l401 166l39 -117l-409 -135z" />
    <glyph glyph-name="uni013B" unicode="&#x13b;" horiz-adv-x="1128" 
d="M324 141h753v-141h-917v1434h164v-1293zM440 -559l103 395h178l-158 -395h-123z" />
    <glyph glyph-name="uni013C" unicode="&#x13c;" horiz-adv-x="436" 
d="M139 0v1434h158v-1434h-158zM41 -559l102 395h179l-158 -395h-123z" />
    <glyph glyph-name="Lcaron" unicode="&#x13d;" horiz-adv-x="1128" 
d="M324 141h753v-141h-917v1434h164v-1293zM496 922v512h143l-35 -512h-108z" />
    <glyph glyph-name="lcaron" unicode="&#x13e;" horiz-adv-x="557" 
d="M139 0v1434h158v-1434h-158zM399 922v512h144l-35 -512h-109z" />
    <glyph glyph-name="Ldot" unicode="&#x13f;" horiz-adv-x="1128" 
d="M324 141h753v-141h-917v1434h164v-1293zM684 784q0 45 29 74t78 29q47 0 75.5 -29t28.5 -74t-28.5 -73.5t-75.5 -28.5q-49 0 -78 28.5t-29 73.5z" />
    <glyph glyph-name="ldot" unicode="&#x140;" horiz-adv-x="630" 
d="M139 0v1434h158v-1434h-158zM422 711q0 45 28.5 73.5t77.5 28.5q47 0 76 -28.5t29 -73.5t-29 -74t-76 -29q-49 0 -77.5 29t-28.5 74z" />
    <glyph glyph-name="Lslash" unicode="&#x141;" horiz-adv-x="1128" 
d="M35 580v106l125 37v711h164v-662l393 119v-107l-393 -118v-525h753v-141h-917v616z" />
    <glyph glyph-name="lslash" unicode="&#x142;" horiz-adv-x="436" 
d="M35 580v108l104 53v693h158v-615l106 53v-110l-106 -53v-709h-158v631z" />
    <glyph glyph-name="Nacute" unicode="&#x143;" horiz-adv-x="1402" 
d="M160 0v1434h174l737 -1139h10v1139h160v-1434h-174l-735 1139h-10v-1139h-162zM481 1669l402 166l39 -117l-410 -135z" />
    <glyph glyph-name="nacute" unicode="&#x144;" 
d="M623 918q-160 0 -243 -94t-83 -261v-563h-158v1024h158v-195h10q19 40 43.5 72.5t67 67.5t109.5 55t153 20h4q181 0 289 -97t108 -285v-662h-157v641q0 137 -81 207t-216 70h-4zM391 1260l402 165l38 -116l-409 -135z" />
    <glyph glyph-name="uni0145" unicode="&#x145;" horiz-adv-x="1402" 
d="M160 0v1434h174l737 -1139h10v1139h160v-1434h-174l-735 1139h-10v-1139h-162zM522 -559l103 395h178l-158 -395h-123z" />
    <glyph glyph-name="uni0146" unicode="&#x146;" 
d="M623 918q-160 0 -243 -94t-83 -261v-563h-158v1024h158v-195h10q19 40 43.5 72.5t67 67.5t109.5 55t153 20h4q181 0 289 -97t108 -285v-662h-157v641q0 137 -81 207t-216 70h-4zM432 -559l103 395h178l-158 -395h-123z" />
    <glyph glyph-name="Ncaron" unicode="&#x147;" horiz-adv-x="1402" 
d="M160 0v1434h174l737 -1139h10v1139h160v-1434h-174l-735 1139h-10v-1139h-162zM389 1720l31 86l282 -98l281 98l31 -86l-312 -137z" />
    <glyph glyph-name="ncaron" unicode="&#x148;" 
d="M623 918q-160 0 -243 -94t-83 -261v-563h-158v1024h158v-195h10q19 40 43.5 72.5t67 67.5t109.5 55t153 20h4q181 0 289 -97t108 -285v-662h-157v641q0 137 -81 207t-216 70h-4zM299 1311l31 86l282 -99l281 99l31 -86l-312 -137z" />
    <glyph glyph-name="Eng" unicode="&#x14a;" horiz-adv-x="1402" 
d="M1241 -184q0 -113 -73 -178.5t-212 -65.5h-4q-118 0 -198 35l28 121q72 -29 144 -29h4q151 0 151 137v146l-749 1157h-10v-1139h-162v1434h174l737 -1139h10v1139h160v-1618z" />
    <glyph glyph-name="eng" unicode="&#x14b;" 
d="M623 918q-160 0 -243 -94t-83 -261v-563h-158v1024h158v-195h10q19 40 43.5 72.5t67 67.5t109.5 55t153 20h4q181 0 289 -97t108 -285v-846q0 -113 -71 -178.5t-209 -65.5h-4q-118 0 -201 35l29 121q73 -29 143 -29h4q152 0 152 137v805q0 137 -81 207t-216 70h-4z" />
    <glyph glyph-name="Omacron" unicode="&#x14c;" horiz-adv-x="1490" 
d="M743 -20q-293 0 -458.5 180.5t-165.5 535.5v41q0 355 166 536t458 181h5q292 0 457 -181t165 -536v-41q0 -355 -165 -535.5t-457 -180.5h-5zM287 700q0 -299 119.5 -439t336.5 -140h5q217 0 336.5 140t119.5 439v33q0 299 -119.5 439.5t-336.5 140.5h-5
q-217 0 -336.5 -140.5t-119.5 -439.5v-33zM436 1653v94h621v-94h-621z" />
    <glyph glyph-name="omacron" unicode="&#x14d;" horiz-adv-x="1210" 
d="M602 -20q-236 0 -370 132t-134 380v40q0 248 134 380t370 132h4q237 0 370.5 -132t133.5 -380v-40q0 -248 -133.5 -380t-370.5 -132h-4zM260 496q0 -192 86.5 -291t255.5 -99h4q170 0 257 99t87 291v32q0 192 -87 291t-257 99h-4q-169 0 -255.5 -99t-86.5 -291v-32z
M295 1243v94h620v-94h-620z" />
    <glyph glyph-name="Obreve" unicode="&#x14e;" horiz-adv-x="1490" 
d="M743 -20q-293 0 -458.5 180.5t-165.5 535.5v41q0 355 166 536t458 181h5q292 0 457 -181t165 -536v-41q0 -355 -165 -535.5t-457 -180.5h-5zM287 700q0 -299 119.5 -439t336.5 -140h5q217 0 336.5 140t119.5 439v33q0 299 -119.5 439.5t-336.5 140.5h-5
q-217 0 -336.5 -140.5t-119.5 -439.5v-33zM479 1808h101q0 -63 43.5 -97t121.5 -34q79 0 123.5 34.5t44.5 96.5h101q0 -100 -76 -162.5t-193 -62.5q-115 0 -190.5 62.5t-75.5 162.5z" />
    <glyph glyph-name="obreve" unicode="&#x14f;" horiz-adv-x="1210" 
d="M602 -20q-236 0 -370 132t-134 380v40q0 248 134 380t370 132h4q237 0 370.5 -132t133.5 -380v-40q0 -248 -133.5 -380t-370.5 -132h-4zM260 496q0 -192 86.5 -291t255.5 -99h4q170 0 257 99t87 291v32q0 192 -87 291t-257 99h-4q-169 0 -255.5 -99t-86.5 -291v-32z
M338 1399h100q0 -63 44 -97t122 -34q79 0 123.5 34.5t44.5 96.5h100q0 -100 -75.5 -162.5t-192.5 -62.5q-115 0 -190.5 62.5t-75.5 162.5z" />
    <glyph glyph-name="Ohungarumlaut" unicode="&#x150;" horiz-adv-x="1490" 
d="M743 -20q-293 0 -458.5 180.5t-165.5 535.5v41q0 355 166 536t458 181h5q292 0 457 -181t165 -536v-41q0 -355 -165 -535.5t-457 -180.5h-5zM287 700q0 -299 119.5 -439t336.5 -140h5q217 0 336.5 140t119.5 439v33q0 299 -119.5 439.5t-336.5 140.5h-5
q-217 0 -336.5 -140.5t-119.5 -439.5v-33zM453 1657l368 303l70 -98l-379 -279zM844 1657l368 303l70 -98l-379 -279z" />
    <glyph glyph-name="ohungarumlaut" unicode="&#x151;" horiz-adv-x="1210" 
d="M602 -20q-236 0 -370 132t-134 380v40q0 248 134 380t370 132h4q237 0 370.5 -132t133.5 -380v-40q0 -248 -133.5 -380t-370.5 -132h-4zM260 496q0 -192 86.5 -291t255.5 -99h4q170 0 257 99t87 291v32q0 192 -87 291t-257 99h-4q-169 0 -255.5 -99t-86.5 -291v-32z
M311 1247l369 303l70 -98l-379 -278zM702 1247l369 303l70 -98l-379 -278z" />
    <glyph glyph-name="OE" unicode="&#x152;" horiz-adv-x="2086" 
d="M1182 141h786v-141h-1225q-291 0 -457.5 177.5t-166.5 518.5v41q0 341 166.5 519t457.5 178h1225v-142h-786v-489h766v-141h-766v-521zM287 700q0 -285 120 -422t336 -137h275v1151h-275q-216 0 -336 -137t-120 -422v-33z" />
    <glyph glyph-name="oe" unicode="&#x153;" horiz-adv-x="2039" 
d="M604 -20q-237 0 -371.5 132.5t-134.5 379.5v40q0 247 134.5 379.5t371.5 132.5h4q146 0 254 -57.5t168 -167.5q58 110 166.5 167.5t255.5 57.5h4q123 0 217 -39t152.5 -109.5t87.5 -164t29 -207.5v-65h-832q9 -172 106.5 -262.5t282.5 -90.5h4q209 0 361 91l47 -117
q-168 -100 -430 -100h-4q-154 0 -268.5 57.5t-176.5 169.5q-58 -112 -167 -169.5t-257 -57.5h-4zM260 496q0 -192 87 -291t257 -99h4q169 0 255.5 99t86.5 291v34q0 191 -86.5 289.5t-255.5 98.5h-4q-170 0 -257 -98.5t-87 -289.5v-34zM1112 584h670q0 71 -18.5 130
t-56.5 105.5t-102 72.5t-149 26h-4q-319 0 -340 -334z" />
    <glyph glyph-name="Racute" unicode="&#x154;" horiz-adv-x="1323" 
d="M160 0v1434h563q213 0 333 -108t120 -294v-12q0 -155 -83 -251.5t-239 -125.5v-10q251 -246 426 -633h-174q-150 330 -432 612h-350v-612h-164zM324 754h385q142 0 220.5 69t78.5 197v6q0 129 -78.5 198.5t-220.5 69.5h-385v-540zM440 1669l402 166l39 -117l-410 -135z
" />
    <glyph glyph-name="racute" unicode="&#x155;" horiz-adv-x="890" 
d="M612 905q-169 0 -242 -102.5t-73 -290.5v-512h-158v1024h158v-199h10q13 31 25.5 54.5t40 56.5t60.5 54.5t87.5 37.5t120.5 16h4q117 0 219 -24l-33 -137q-107 22 -215 22h-4zM225 1260l402 165l39 -116l-410 -135z" />
    <glyph glyph-name="uni0156" unicode="&#x156;" horiz-adv-x="1323" 
d="M160 0v1434h563q213 0 333 -108t120 -294v-12q0 -155 -83 -251.5t-239 -125.5v-10q251 -246 426 -633h-174q-150 330 -432 612h-350v-612h-164zM324 754h385q142 0 220.5 69t78.5 197v6q0 129 -78.5 198.5t-220.5 69.5h-385v-540zM483 -559l103 395h178l-158 -395h-123z
" />
    <glyph glyph-name="uni0157" unicode="&#x157;" horiz-adv-x="890" 
d="M612 905q-169 0 -242 -102.5t-73 -290.5v-512h-158v1024h158v-199h10q13 31 25.5 54.5t40 56.5t60.5 54.5t87.5 37.5t120.5 16h4q117 0 219 -24l-33 -137q-107 22 -215 22h-4zM41 -559l102 395h179l-158 -395h-123z" />
    <glyph glyph-name="Rcaron" unicode="&#x158;" horiz-adv-x="1323" 
d="M160 0v1434h563q213 0 333 -108t120 -294v-12q0 -155 -83 -251.5t-239 -125.5v-10q251 -246 426 -633h-174q-150 330 -432 612h-350v-612h-164zM324 754h385q142 0 220.5 69t78.5 197v6q0 129 -78.5 198.5t-220.5 69.5h-385v-540zM348 1720l31 86l283 -98l280 98l31 -86
l-311 -137z" />
    <glyph glyph-name="rcaron" unicode="&#x159;" horiz-adv-x="890" 
d="M612 905q-169 0 -242 -102.5t-73 -290.5v-512h-158v1024h158v-199h10q13 31 25.5 54.5t40 56.5t60.5 54.5t87.5 37.5t120.5 16h4q117 0 219 -24l-33 -137q-107 22 -215 22h-4zM133 1311l31 86l282 -99l281 99l31 -86l-312 -137z" />
    <glyph glyph-name="Sacute" unicode="&#x15a;" horiz-adv-x="1228" 
d="M1044 1169q-183 144 -413 144h-4q-94 0 -166.5 -21.5t-120 -73t-47.5 -128.5v-17q0 -56 29.5 -98t79 -68.5t113.5 -47.5t135 -40t142 -39.5t135 -52t113.5 -73t79 -106t29.5 -147.5v-20q0 -137 -71.5 -228.5t-191.5 -132t-286 -40.5h-4q-324 0 -518 137l84 116
q75 -51 190.5 -81.5t241.5 -30.5h4q385 0 385 254v16q0 75 -47.5 127t-123 81.5t-167 53.5t-183 53t-167 69.5t-123 114t-47.5 175.5v20q0 172 136.5 270.5t365.5 98.5h4q283 0 497 -166zM406 1669l401 166l39 -117l-410 -135z" />
    <glyph glyph-name="sacute" unicode="&#x15b;" horiz-adv-x="1011" 
d="M512 1044q227 0 416 -92l-49 -118q-173 84 -357 84h-4q-256 0 -256 -150v-14q0 -41 29.5 -70t77.5 -44t109.5 -29t125.5 -25t125.5 -33.5t109.5 -52t77.5 -83t29.5 -124.5v-21q0 -141 -113 -216.5t-323 -75.5h-4q-133 0 -249 25.5t-191 66.5l45 118q65 -32 175.5 -58
t213.5 -26h4q144 0 213 40t69 122v15q0 52 -37.5 85.5t-98 50.5t-133.5 30.5t-146 32.5t-133.5 47.5t-98 84t-37.5 134.5v20q0 132 107.5 204t298.5 72h4zM297 1268l401 166l39 -117l-409 -135z" />
    <glyph glyph-name="Scircumflex" unicode="&#x15c;" horiz-adv-x="1228" 
d="M1044 1169q-183 144 -413 144h-4q-94 0 -166.5 -21.5t-120 -73t-47.5 -128.5v-17q0 -56 29.5 -98t79 -68.5t113.5 -47.5t135 -40t142 -39.5t135 -52t113.5 -73t79 -106t29.5 -147.5v-20q0 -137 -71.5 -228.5t-191.5 -132t-286 -40.5h-4q-324 0 -518 137l84 116
q75 -51 190.5 -81.5t241.5 -30.5h4q385 0 385 254v16q0 75 -47.5 127t-123 81.5t-167 53.5t-183 53t-167 69.5t-123 114t-47.5 175.5v20q0 172 136.5 270.5t365.5 98.5h4q283 0 497 -166zM313 1669l314 137l311 -137l-31 -86l-280 98l-283 -98z" />
    <glyph glyph-name="scircumflex" unicode="&#x15d;" horiz-adv-x="1011" 
d="M512 1044q227 0 416 -92l-49 -118q-173 84 -357 84h-4q-256 0 -256 -150v-14q0 -41 29.5 -70t77.5 -44t109.5 -29t125.5 -25t125.5 -33.5t109.5 -52t77.5 -83t29.5 -124.5v-21q0 -141 -113 -216.5t-323 -75.5h-4q-133 0 -249 25.5t-191 66.5l45 118q65 -32 175.5 -58
t213.5 -26h4q144 0 213 40t69 122v15q0 52 -37.5 85.5t-98 50.5t-133.5 30.5t-146 32.5t-133.5 47.5t-98 84t-37.5 134.5v20q0 132 107.5 204t298.5 72h4zM205 1268l313 137l311 -137l-30 -86l-281 98l-282 -98z" />
    <glyph glyph-name="Scedilla" unicode="&#x15e;" horiz-adv-x="1228" 
d="M1044 1169q-183 144 -413 144h-4q-94 0 -166.5 -21.5t-120 -73t-47.5 -128.5v-17q0 -56 29.5 -98t79 -68.5t113.5 -47.5t135 -40t142 -39.5t135 -52t113.5 -73t79 -106t29.5 -147.5v-20q0 -130 -65.5 -220t-177 -133t-265.5 -48l-12 -89h30q67 0 114.5 -32.5t47.5 -110.5
q0 -92 -78 -128t-247 -36v78q113 0 165 19t52 71q0 46 -27.5 61t-73.5 15h-77l22 152q-300 9 -479 137l84 116q75 -51 190.5 -81.5t241.5 -30.5h4q385 0 385 254v16q0 75 -47.5 127t-123 81.5t-167 53.5t-183 53t-167 69.5t-123 114t-47.5 175.5v20q0 172 136.5 270.5
t365.5 98.5h4q283 0 497 -166z" />
    <glyph glyph-name="scedilla" unicode="&#x15f;" horiz-adv-x="1011" 
d="M512 1044q227 0 416 -92l-49 -118q-173 84 -357 84h-4q-256 0 -256 -150v-14q0 -41 29.5 -70t77.5 -44t109.5 -29t125.5 -25t125.5 -33.5t109.5 -52t77.5 -83t29.5 -124.5v-21q0 -135 -104.5 -210.5t-298.5 -81.5l-13 -89h31q67 0 114.5 -32.5t47.5 -110.5
q0 -92 -78.5 -128t-247.5 -36v78q113 0 165 19t52 71q0 46 -27 61t-73 15h-78l25 152q-243 9 -395 92l45 118q65 -32 175.5 -58t213.5 -26h4q144 0 213 40t69 122v15q0 52 -37.5 85.5t-98 50.5t-133.5 30.5t-146 32.5t-133.5 47.5t-98 84t-37.5 134.5v20q0 132 107.5 204
t298.5 72h4z" />
    <glyph glyph-name="Scaron" unicode="&#x160;" horiz-adv-x="1228" 
d="M1044 1169q-183 144 -413 144h-4q-94 0 -166.5 -21.5t-120 -73t-47.5 -128.5v-17q0 -56 29.5 -98t79 -68.5t113.5 -47.5t135 -40t142 -39.5t135 -52t113.5 -73t79 -106t29.5 -147.5v-20q0 -137 -71.5 -228.5t-191.5 -132t-286 -40.5h-4q-324 0 -518 137l84 116
q75 -51 190.5 -81.5t241.5 -30.5h4q385 0 385 254v16q0 75 -47.5 127t-123 81.5t-167 53.5t-183 53t-167 69.5t-123 114t-47.5 175.5v20q0 172 136.5 270.5t365.5 98.5h4q283 0 497 -166zM313 1720l31 86l283 -98l280 98l31 -86l-311 -137z" />
    <glyph glyph-name="scaron" unicode="&#x161;" horiz-adv-x="1011" 
d="M512 1044q227 0 416 -92l-49 -118q-173 84 -357 84h-4q-256 0 -256 -150v-14q0 -41 29.5 -70t77.5 -44t109.5 -29t125.5 -25t125.5 -33.5t109.5 -52t77.5 -83t29.5 -124.5v-21q0 -141 -113 -216.5t-323 -75.5h-4q-133 0 -249 25.5t-191 66.5l45 118q65 -32 175.5 -58
t213.5 -26h4q144 0 213 40t69 122v15q0 52 -37.5 85.5t-98 50.5t-133.5 30.5t-146 32.5t-133.5 47.5t-98 84t-37.5 134.5v20q0 132 107.5 204t298.5 72h4zM205 1319l31 86l282 -98l281 98l30 -86l-311 -137z" />
    <glyph glyph-name="uni0162" unicode="&#x162;" horiz-adv-x="1236" 
d="M700 1292v-1292h-41l-14 -109h31q67 0 114.5 -32.5t47.5 -110.5q0 -92 -78.5 -128t-247.5 -36v78q113 0 165 19t52 71q0 46 -27 61t-73 15h-78l27 172h-41v1292h-486v142h1135v-142h-486z" />
    <glyph glyph-name="uni0163" unicode="&#x163;" horiz-adv-x="890" 
d="M20 897v127h248v231l158 50v-281h412v-127h-412v-618q0 -93 51 -133t156 -40h4q113 0 205 39l28 -118q-114 -44 -247 -47l-13 -89h31q67 0 114.5 -32.5t47.5 -110.5q0 -92 -78.5 -128t-247.5 -36v78q113 0 165 19t52 71q0 46 -27 61t-73 15h-78l25 154q-273 29 -273 282
v633h-248z" />
    <glyph glyph-name="Tcaron" unicode="&#x164;" horiz-adv-x="1236" 
d="M700 1292v-1292h-163v1292h-486v142h1135v-142h-486zM305 1720l31 86l282 -98l281 98l31 -86l-312 -137z" />
    <glyph glyph-name="tcaron" unicode="&#x165;" horiz-adv-x="890" 
d="M20 897v127h248v231l158 50v-281h412v-127h-412v-618q0 -93 51 -133t156 -40h4q113 0 205 39l28 -118q-117 -47 -260 -47h-4q-338 0 -338 284v633h-248zM573 1130v512h144l-35 -512h-109z" />
    <glyph glyph-name="Tbar" unicode="&#x166;" horiz-adv-x="1236" 
d="M262 635v106h275v551h-486v142h1135v-142h-486v-551h275v-106h-275v-635h-163v635h-275z" />
    <glyph glyph-name="tbar" unicode="&#x167;" horiz-adv-x="890" 
d="M86 471v107h182v319h-248v127h248v231l158 50v-281h412v-127h-412v-319h264v-107h-264v-192q0 -93 51 -133t156 -40h4q113 0 205 39l28 -118q-117 -47 -260 -47h-4q-338 0 -338 284v207h-182z" />
    <glyph glyph-name="Utilde" unicode="&#x168;" horiz-adv-x="1417" 
d="M707 -20q-270 0 -408.5 129.5t-138.5 384.5v940h164v-940q0 -190 93 -281.5t290 -91.5h4q197 0 290 91.5t93 281.5v940h163v-940q0 -256 -137.5 -385t-408.5 -129h-4zM393 1583q0 101 43 150t115 49q54 0 109.5 -25t103.5 -49.5t84 -24.5q46 0 65 30.5t19 68.5h92
q0 -94 -43.5 -146.5t-114.5 -52.5q-50 0 -105 24.5t-104.5 49t-87.5 24.5q-45 0 -64.5 -28.5t-19.5 -69.5h-92z" />
    <glyph glyph-name="utilde" unicode="&#x169;" 
d="M600 106q160 0 242 93.5t82 261.5v563h157v-1024h-157v195h-11q-98 -215 -370 -215h-4q-181 0 -290.5 98t-109.5 284v662h158v-641q0 -137 81.5 -207t217.5 -70h4zM295 1174q0 101 43 149.5t115 48.5q54 0 109.5 -24.5t103.5 -49t84 -24.5q46 0 65 30t19 68h92
q0 -94 -43.5 -146t-114.5 -52q-50 0 -105 24.5t-104.5 49t-87.5 24.5q-45 0 -64.5 -28.5t-19.5 -69.5h-92z" />
    <glyph glyph-name="Umacron" unicode="&#x16a;" horiz-adv-x="1417" 
d="M707 -20q-270 0 -408.5 129.5t-138.5 384.5v940h164v-940q0 -190 93 -281.5t290 -91.5h4q197 0 290 91.5t93 281.5v940h163v-940q0 -256 -137.5 -385t-408.5 -129h-4zM399 1653v94h621v-94h-621z" />
    <glyph glyph-name="umacron" unicode="&#x16b;" 
d="M600 106q160 0 242 93.5t82 261.5v563h157v-1024h-157v195h-11q-98 -215 -370 -215h-4q-181 0 -290.5 98t-109.5 284v662h158v-641q0 -137 81.5 -207t217.5 -70h4zM301 1243v94h621v-94h-621z" />
    <glyph glyph-name="Ubreve" unicode="&#x16c;" horiz-adv-x="1417" 
d="M707 -20q-270 0 -408.5 129.5t-138.5 384.5v940h164v-940q0 -190 93 -281.5t290 -91.5h4q197 0 290 91.5t93 281.5v940h163v-940q0 -256 -137.5 -385t-408.5 -129h-4zM442 1808h101q0 -63 44 -97t122 -34q79 0 123.5 34.5t44.5 96.5h100q0 -100 -75.5 -162.5
t-192.5 -62.5q-115 0 -191 62.5t-76 162.5z" />
    <glyph glyph-name="ubreve" unicode="&#x16d;" 
d="M600 106q160 0 242 93.5t82 261.5v563h157v-1024h-157v195h-11q-98 -215 -370 -215h-4q-181 0 -290.5 98t-109.5 284v662h158v-641q0 -137 81.5 -207t217.5 -70h4zM344 1399h100q0 -63 44 -97t122 -34q79 0 123.5 34.5t44.5 96.5h101q0 -100 -76 -162.5t-193 -62.5
q-115 0 -190.5 62.5t-75.5 162.5z" />
    <glyph glyph-name="Uring" unicode="&#x16e;" horiz-adv-x="1417" 
d="M707 -20q-270 0 -408.5 129.5t-138.5 384.5v940h164v-940q0 -190 93 -281.5t290 -91.5h4q197 0 290 91.5t93 281.5v940h163v-940q0 -256 -137.5 -385t-408.5 -129h-4zM442 1810q0 101 75.5 164.5t191.5 63.5q117 0 192.5 -63t75.5 -165q0 -100 -76 -163.5t-192 -63.5
q-115 0 -191 63.5t-76 163.5zM543 1810q0 -62 44 -97.5t122 -35.5t123 35.5t45 97.5q0 63 -45 98.5t-123 35.5t-122 -35.5t-44 -98.5z" />
    <glyph glyph-name="uring" unicode="&#x16f;" 
d="M600 106q160 0 242 93.5t82 261.5v563h157v-1024h-157v195h-11q-98 -215 -370 -215h-4q-181 0 -290.5 98t-109.5 284v662h158v-641q0 -137 81.5 -207t217.5 -70h4zM344 1401q0 101 75 164t191 63q117 0 193 -62.5t76 -164.5q0 -100 -76 -163.5t-193 -63.5
q-115 0 -190.5 63.5t-75.5 163.5zM444 1401q0 -62 44 -97.5t122 -35.5t123 35.5t45 97.5q0 63 -45 98t-123 35t-122 -35t-44 -98z" />
    <glyph glyph-name="Uhungarumlaut" unicode="&#x170;" horiz-adv-x="1417" 
d="M707 -20q-270 0 -408.5 129.5t-138.5 384.5v940h164v-940q0 -190 93 -281.5t290 -91.5h4q197 0 290 91.5t93 281.5v940h163v-940q0 -256 -137.5 -385t-408.5 -129h-4zM416 1657l368 303l70 -98l-379 -279zM807 1657l369 303l69 -98l-379 -279z" />
    <glyph glyph-name="uhungarumlaut" unicode="&#x171;" 
d="M600 106q160 0 242 93.5t82 261.5v563h157v-1024h-157v195h-11q-98 -215 -370 -215h-4q-181 0 -290.5 98t-109.5 284v662h158v-641q0 -137 81.5 -207t217.5 -70h4zM317 1247l369 303l70 -98l-379 -278zM709 1247l368 303l70 -98l-379 -278z" />
    <glyph glyph-name="Uogonek" unicode="&#x172;" horiz-adv-x="1417" 
d="M707 -20q-270 0 -408.5 129.5t-138.5 384.5v940h164v-940q0 -190 93 -281.5t290 -91.5h4q197 0 290 91.5t93 281.5v940h163v-940q0 -426 -376 -500q-86 -60 -127 -110.5t-41 -108.5q0 -113 172 -113v-78q-132 0 -206.5 45t-74.5 138q0 123 150 213h-43h-4z" />
    <glyph glyph-name="uogonek" unicode="&#x173;" 
d="M600 106q160 0 242 93.5t82 261.5v563h157v-1024h-2q-91 -63 -133.5 -114t-42.5 -111q0 -113 172 -113v-78q-132 0 -206 45t-74 138q0 132 182 233h-53v195h-11q-98 -215 -370 -215h-4q-181 0 -290.5 98t-109.5 284v662h158v-641q0 -137 81.5 -207t217.5 -70h4z" />
    <glyph glyph-name="Wcircumflex" unicode="&#x174;" horiz-adv-x="2058" 
d="M1511 188l351 1246h163l-409 -1434h-225l-357 1260h-10l-356 -1260h-226l-407 1434h164l350 -1246h10l348 1246h246l348 -1246h10zM717 1669l313 137l311 -137l-30 -86l-281 98l-282 -98z" />
    <glyph glyph-name="wcircumflex" unicode="&#x175;" horiz-adv-x="1771" 
d="M395 0l-375 1024h162l307 -872h11l280 872h213l279 -872h10l307 872h162l-373 -1024h-204l-283 850h-10l-285 -850h-201zM573 1260l314 137l311 -137l-31 -86l-280 98l-283 -98z" />
    <glyph glyph-name="Ycircumflex" unicode="&#x176;" horiz-adv-x="1349" 
d="M668 700h10l465 734h172l-559 -908v-526h-164v526l-557 908h174zM362 1669l314 137l311 -137l-31 -86l-280 98l-283 -98z" />
    <glyph glyph-name="ycircumflex" unicode="&#x177;" horiz-adv-x="1120" 
d="M20 1024h164l381 -883h10l367 883h158l-500 -1200q-53 -130 -138.5 -191t-232.5 -61h-4q-118 0 -209 25l29 124q70 -22 172 -22h4q98 0 152 37t84 108l61 156h-57zM248 1260l313 137l311 -137l-30 -86l-281 98l-282 -98z" />
    <glyph glyph-name="Ydieresis" unicode="&#x178;" horiz-adv-x="1349" 
d="M668 700h10l465 734h172l-559 -908v-526h-164v526l-557 908h174zM412 1683q0 41 28.5 70t69.5 29q42 0 71 -29t29 -70q0 -43 -28.5 -71.5t-71.5 -28.5q-41 0 -69.5 28.5t-28.5 71.5zM739 1683q0 41 29 70t70 29q42 0 71 -29t29 -70q0 -43 -28.5 -71.5t-71.5 -28.5
q-42 0 -70.5 28.5t-28.5 71.5z" />
    <glyph glyph-name="Zacute" unicode="&#x179;" horiz-adv-x="1198" 
d="M66 0v131l837 1151v10h-817v142h1026v-134l-838 -1148v-11h859v-141h-1067zM379 1669l401 166l39 -117l-409 -135z" />
    <glyph glyph-name="zacute" unicode="&#x17a;" horiz-adv-x="1009" 
d="M61 121l660 766v10h-639v127h848v-121l-660 -766v-10h680v-127h-889v121zM285 1260l401 165l39 -116l-410 -135z" />
    <glyph glyph-name="Zdotaccent" unicode="&#x17b;" horiz-adv-x="1198" 
d="M66 0v131l837 1151v10h-817v142h1026v-134l-838 -1148v-11h859v-141h-1067zM487 1690q0 47 32.5 76.5t80.5 29.5t80.5 -29.5t32.5 -76.5t-32.5 -77t-80.5 -30t-80.5 30t-32.5 77z" />
    <glyph glyph-name="zdotaccent" unicode="&#x17c;" horiz-adv-x="1009" 
d="M61 121l660 766v10h-639v127h848v-121l-660 -766v-10h680v-127h-889v121zM393 1280q0 47 32.5 76.5t80.5 29.5t80 -29.5t32 -76.5t-32 -76.5t-80 -29.5t-80.5 29.5t-32.5 76.5z" />
    <glyph glyph-name="Zcaron" unicode="&#x17d;" horiz-adv-x="1198" 
d="M66 0v131l837 1151v10h-817v142h1026v-134l-838 -1148v-11h859v-141h-1067zM287 1720l30 86l283 -98l281 98l30 -86l-311 -137z" />
    <glyph glyph-name="zcaron" unicode="&#x17e;" horiz-adv-x="1009" 
d="M61 121l660 766v10h-639v127h848v-121l-660 -766v-10h680v-127h-889v121zM193 1311l30 86l283 -99l280 99l31 -86l-311 -137z" />
    <glyph glyph-name="longs" unicode="&#x17f;" horiz-adv-x="743" 
d="M20 1024h248v139q0 147 91 219t249 72h4q130 0 240 -35l-29 -123q-95 31 -194 31h-4q-199 0 -199 -176v-1151h-158v897h-248v127z" />
    <glyph glyph-name="uni018F" unicode="&#x18f;" horiz-adv-x="1495" 
d="M725 121q213 0 338 125t143 372h-923q0 -497 438 -497h4zM119 662v98h1089q-6 272 -136 412.5t-355 140.5h-4q-253 0 -424 -152l-84 115q200 178 514 178h4q301 0 477 -183t176 -534v-41q0 -351 -174 -533.5t-473 -182.5h-4q-104 0 -190.5 22t-148.5 59.5t-109.5 91.5
t-76.5 113t-48 128.5t-26 134t-7 133.5z" />
    <glyph glyph-name="florin" unicode="&#x192;" horiz-adv-x="1062" 
d="M547 270q-41 -290 -365 -290h-4q-75 0 -137 10l16 127q72 -11 107 -11h4q200 0 223 177l55 393h-346v96h361l55 391q21 148 116 219.5t251 71.5h4q73 0 135 -10l-16 -127q-62 10 -107 10h-4q-200 0 -223 -176l-54 -379h347v-96h-361z" />
    <glyph glyph-name="uni01CD" unicode="&#x1cd;" horiz-adv-x="1349" 
d="M395 539h559l-272 743h-10zM35 0l526 1434h230l524 -1434h-168l-143 403h-658l-143 -403h-168zM362 1720l31 86l283 -98l280 98l31 -86l-311 -137z" />
    <glyph glyph-name="uni01CE" unicode="&#x1ce;" horiz-adv-x="1171" 
d="M582 1044q227 0 337.5 -87t110.5 -267v-690h-158v195h-10q-95 -215 -377 -215h-4q-182 0 -282.5 82t-100.5 219v20q0 141 116.5 224t330.5 83h327v88q0 111 -70 166.5t-235 55.5h-4q-198 0 -362 -82l-45 118q188 90 422 90h4zM260 291q0 -86 69.5 -135.5t202.5 -49.5h5
q166 0 250.5 93.5t84.5 240.5v43h-311q-143 0 -222 -45.5t-79 -132.5v-14zM274 1311l31 86l283 -99l280 99l31 -86l-311 -137z" />
    <glyph glyph-name="uni01CF" unicode="&#x1cf;" horiz-adv-x="485" 
d="M160 0v1434h164v-1434h-164zM-70 1720l31 86l283 -98l280 98l31 -86l-311 -137z" />
    <glyph glyph-name="uni01D0" unicode="&#x1d0;" horiz-adv-x="436" 
d="M297 0h-158v1024h158v-1024zM-94 1311l31 86l282 -99l281 99l30 -86l-311 -137z" />
    <glyph glyph-name="uni01D1" unicode="&#x1d1;" horiz-adv-x="1490" 
d="M743 -20q-293 0 -458.5 180.5t-165.5 535.5v41q0 355 166 536t458 181h5q292 0 457 -181t165 -536v-41q0 -355 -165 -535.5t-457 -180.5h-5zM287 700q0 -299 119.5 -439t336.5 -140h5q217 0 336.5 140t119.5 439v33q0 299 -119.5 439.5t-336.5 140.5h-5
q-217 0 -336.5 -140.5t-119.5 -439.5v-33zM432 1720l31 86l282 -98l281 98l31 -86l-312 -137z" />
    <glyph glyph-name="uni01D2" unicode="&#x1d2;" horiz-adv-x="1210" 
d="M602 -20q-236 0 -370 132t-134 380v40q0 248 134 380t370 132h4q237 0 370.5 -132t133.5 -380v-40q0 -248 -133.5 -380t-370.5 -132h-4zM260 496q0 -192 86.5 -291t255.5 -99h4q170 0 257 99t87 291v32q0 192 -87 291t-257 99h-4q-169 0 -255.5 -99t-86.5 -291v-32z
M293 1311l31 86l282 -99l281 99l31 -86l-312 -137z" />
    <glyph glyph-name="uni01D3" unicode="&#x1d3;" horiz-adv-x="1417" 
d="M707 -20q-270 0 -408.5 129.5t-138.5 384.5v940h164v-940q0 -190 93 -281.5t290 -91.5h4q197 0 290 91.5t93 281.5v940h163v-940q0 -256 -137.5 -385t-408.5 -129h-4zM397 1720l31 86l283 -98l280 98l31 -86l-311 -137z" />
    <glyph glyph-name="uni01D4" unicode="&#x1d4;" 
d="M600 106q160 0 242 93.5t82 261.5v563h157v-1024h-157v195h-11q-98 -215 -370 -215h-4q-181 0 -290.5 98t-109.5 284v662h158v-641q0 -137 81.5 -207t217.5 -70h4zM299 1311l31 86l282 -99l281 99l31 -86l-312 -137z" />
    <glyph glyph-name="Gcaron" unicode="&#x1e6;" horiz-adv-x="1495" 
d="M774 121q438 0 438 497h-446v142h610v-98q0 -69 -7 -133.5t-26 -134t-48 -128.5t-76.5 -113t-109.5 -91.5t-148.5 -59.5t-190.5 -22h-4q-299 0 -473 182.5t-174 533.5v41q0 351 176 534t477 183h4q314 0 514 -178l-84 -115q-171 152 -424 152h-4q-230 0 -360.5 -147.5
t-130.5 -432.5v-33q0 -287 126.5 -433t356.5 -146h4zM455 1720l30 86l283 -98l281 98l30 -86l-311 -137z" />
    <glyph glyph-name="gcaron" unicode="&#x1e7;" horiz-adv-x="1247" 
d="M1108 -27q0 -403 -510 -403h-4q-247 0 -438 76l28 121q174 -70 410 -70h4q81 0 141.5 12.5t110 43t75 85.5t25.5 135v283h-10q-48 -107 -143.5 -164t-233.5 -57h-4q-214 0 -337.5 127.5t-123.5 355.5v41q0 230 123.5 357.5t337.5 127.5h4q138 0 233.5 -57.5t143.5 -165.5
h10v203h158v-1051zM260 522q0 -173 89 -266.5t253 -93.5h4q163 0 253.5 93.5t90.5 266.5v35q0 173 -90.5 267t-253.5 94h-4q-164 0 -253 -94t-89 -267v-35zM311 1311l31 86l283 -99l280 99l31 -86l-311 -137z" />
    <glyph glyph-name="AEacute" unicode="&#x1fc;" horiz-adv-x="1841" 
d="M205 0h-170l717 1434h970v-142h-684v-489h664v-141h-664v-521h684v-141h-848v403h-462zM479 539h395v753h-10zM866 1669l402 166l39 -117l-410 -135z" />
    <glyph glyph-name="aeacute" unicode="&#x1fd;" horiz-adv-x="1961" 
d="M584 1044q308 0 395 -170q123 170 395 170h4q123 0 217 -36.5t152.5 -102.5t87.5 -154.5t29 -197.5v-84h-832q6 -179 103 -271t284 -92h4q211 0 363 91l45 -117q-165 -100 -428 -100h-4q-177 0 -298.5 71t-176.5 207h-6q-85 -278 -424 -278h-5q-186 0 -288.5 82
t-102.5 219v14q0 140 116.5 219.5t332.5 79.5h325v96q0 115 -70 171.5t-239 56.5h-4q-198 0 -362 -82l-41 118q194 90 424 90h4zM260 285q0 -86 69.5 -132.5t202.5 -46.5h5q167 0 251 89.5t84 240.5v33h-311q-144 0 -222.5 -43.5t-78.5 -130.5v-10zM762 1260l401 165
l39 -116l-409 -135zM1034 594h670q0 145 -80 234.5t-248 89.5h-4q-311 0 -338 -324z" />
    <glyph glyph-name="Oslashacute" unicode="&#x1fe;" horiz-adv-x="1490" 
d="M119 0l143 188q-143 182 -143 508v41q0 355 166 536t458 181h5q236 0 389 -117l73 97h162l-143 -189q141 -186 141 -508v-41q0 -355 -165 -535.5t-457 -180.5h-5q-241 0 -391 118l-73 -98h-160zM287 700q0 -233 78 -376l679 890q-114 99 -296 99h-5q-217 0 -336.5 -140.5
t-119.5 -439.5v-33zM446 219q110 -98 297 -98h5q217 0 336.5 140t119.5 439v33q0 234 -78 377zM524 1669l402 166l39 -117l-410 -135z" />
    <glyph glyph-name="oslashacute" unicode="&#x1ff;" horiz-adv-x="1210" 
d="M98 0l113 135q-113 132 -113 357v40q0 248 134 380t370 132h4q183 0 305 -79l50 59h149l-113 -133q113 -131 113 -359v-40q0 -248 -133.5 -380t-370.5 -132h-4q-183 0 -305 79l-49 -59h-150zM260 496q0 -148 51 -242l510 604q-85 60 -215 60h-4q-169 0 -255.5 -99
t-86.5 -291v-32zM385 1260l401 165l39 -116l-409 -135zM389 166q82 -60 213 -60h4q170 0 257 99t87 291v32q0 149 -53 244z" />
    <glyph glyph-name="uni0218" unicode="&#x218;" horiz-adv-x="1228" 
d="M1044 1169q-183 144 -413 144h-4q-94 0 -166.5 -21.5t-120 -73t-47.5 -128.5v-17q0 -56 29.5 -98t79 -68.5t113.5 -47.5t135 -40t142 -39.5t135 -52t113.5 -73t79 -106t29.5 -147.5v-20q0 -137 -71.5 -228.5t-191.5 -132t-286 -40.5h-4q-324 0 -518 137l84 116
q75 -51 190.5 -81.5t241.5 -30.5h4q385 0 385 254v16q0 75 -47.5 127t-123 81.5t-167 53.5t-183 53t-167 69.5t-123 114t-47.5 175.5v20q0 172 136.5 270.5t365.5 98.5h4q283 0 497 -166zM424 -559l102 395h179l-158 -395h-123z" />
    <glyph glyph-name="uni0219" unicode="&#x219;" horiz-adv-x="1011" 
d="M512 1044q227 0 416 -92l-49 -118q-173 84 -357 84h-4q-256 0 -256 -150v-14q0 -41 29.5 -70t77.5 -44t109.5 -29t125.5 -25t125.5 -33.5t109.5 -52t77.5 -83t29.5 -124.5v-21q0 -141 -113 -216.5t-323 -75.5h-4q-133 0 -249 25.5t-191 66.5l45 118q65 -32 175.5 -58
t213.5 -26h4q144 0 213 40t69 122v15q0 52 -37.5 85.5t-98 50.5t-133.5 30.5t-146 32.5t-133.5 47.5t-98 84t-37.5 134.5v20q0 132 107.5 204t298.5 72h4zM326 -559l102 395h178l-157 -395h-123z" />
    <glyph glyph-name="uni021A" unicode="&#x21a;" horiz-adv-x="1236" 
d="M700 1292v-1292h-163v1292h-486v142h1135v-142h-486zM440 -559l103 395h178l-158 -395h-123z" />
    <glyph glyph-name="uni021B" unicode="&#x21b;" horiz-adv-x="890" 
d="M20 897v127h248v231l158 50v-281h412v-127h-412v-618q0 -93 51 -133t156 -40h4q113 0 205 39l28 -118q-117 -47 -260 -47h-4q-338 0 -338 284v633h-248zM406 -559l102 395h178l-158 -395h-122z" />
    <glyph glyph-name="uni0228" unicode="&#x228;" horiz-adv-x="1230" 
d="M324 141h786v-141h-434l-14 -109h30q67 0 114.5 -32.5t47.5 -110.5q0 -92 -78.5 -128t-247.5 -36v78q113 0 165 19t52 71q0 46 -27 61t-73 15h-78l27 172h-434v1434h950v-142h-786v-489h766v-141h-766v-521z" />
    <glyph glyph-name="uni0229" unicode="&#x229;" horiz-adv-x="1189" 
d="M651 106q209 0 361 91l47 -117q-162 -97 -416 -100l-12 -89h31q67 0 114 -32.5t47 -110.5q0 -92 -78 -128t-247 -36v78q113 0 165 19t52 71q0 46 -27.5 61t-73.5 15h-77l24 154q-219 19 -341 149.5t-122 360.5v40q0 247 133.5 379.5t368.5 132.5h4q123 0 217 -39
t152.5 -109.5t87.5 -164t29 -207.5v-67h-828q19 -351 385 -351h4zM262 582h668q0 68 -18.5 127t-56.5 106.5t-102.5 75t-148.5 27.5h-4q-157 0 -242 -86.5t-96 -249.5z" />
    <glyph glyph-name="uni0237" unicode="&#x237;" horiz-adv-x="436" 
d="M297 -172q0 -122 -76 -189t-223 -67h-4q-125 0 -215 35l28 123q79 -31 162 -31h4q89 0 127.5 38t38.5 109v1178h158v-1196z" />
    <glyph glyph-name="uni0259" unicode="&#x259;" horiz-adv-x="1189" 
d="M539 918q-209 0 -361 -91l-47 117q165 100 428 100h4q247 0 388 -132.5t141 -379.5v-40q0 -247 -133.5 -379.5t-368.5 -132.5h-4q-123 0 -217 39t-152.5 109.5t-87.5 164t-29 207.5v67h828q-19 351 -385 351h-4zM260 442q0 -68 18.5 -127t56.5 -106.5t102.5 -75
t148.5 -27.5h4q157 0 242 86.5t96 249.5h-668z" />
    <glyph glyph-name="uni02BC" unicode="&#x2bc;" horiz-adv-x="409" 
d="M27 1182l102 395h178l-157 -395h-123z" />
    <glyph glyph-name="circumflex" unicode="&#x2c6;" horiz-adv-x="829" 
d="M102 1260l314 137l311 -137l-31 -86l-280 98l-283 -98z" />
    <glyph glyph-name="caron" unicode="&#x2c7;" horiz-adv-x="829" 
d="M102 1311l31 86l283 -99l280 99l31 -86l-311 -137z" />
    <glyph glyph-name="breve" unicode="&#x2d8;" horiz-adv-x="739" 
d="M637 1399q0 -100 -75.5 -162.5t-192.5 -62.5q-115 0 -191 62.5t-76 162.5h101q0 -63 44 -97t122 -34q79 0 123.5 34.5t44.5 96.5h100z" />
    <glyph glyph-name="dotaccent" unicode="&#x2d9;" horiz-adv-x="430" 
d="M215 1174q-48 0 -80.5 29.5t-32.5 76.5t32.5 76.5t80.5 29.5t80.5 -29.5t32.5 -76.5t-32.5 -76.5t-80.5 -29.5z" />
    <glyph glyph-name="ring" unicode="&#x2da;" horiz-adv-x="739" 
d="M369 1174q-115 0 -191 63.5t-76 163.5q0 101 75.5 164t191.5 63q117 0 192.5 -62.5t75.5 -164.5q0 -100 -76 -163.5t-192 -63.5zM203 1401q0 -62 44 -97.5t122 -35.5t123 35.5t45 97.5q0 63 -45 98t-123 35t-122 -35t-44 -98z" />
    <glyph glyph-name="ogonek" unicode="&#x2db;" horiz-adv-x="489" 
d="M383 -416q-132 0 -206.5 45t-74.5 138q0 154 252 268l33 -35q-91 -63 -133.5 -114t-42.5 -111q0 -113 172 -113v-78z" />
    <glyph glyph-name="tilde" unicode="&#x2dc;" horiz-adv-x="835" 
d="M575 1174q-50 0 -105 24.5t-104 49t-87 24.5q-45 0 -64.5 -28.5t-19.5 -69.5h-93q0 101 43 149.5t115 48.5q54 0 109.5 -24.5t103.5 -49t84 -24.5q46 0 65 30t19 68h92q0 -94 -43.5 -146t-114.5 -52z" />
    <glyph glyph-name="hungarumlaut" unicode="&#x2dd;" horiz-adv-x="1034" 
d="M102 1247l369 303l70 -98l-379 -278zM494 1247l368 303l70 -98l-379 -278z" />
    <glyph glyph-name="gravecomb" unicode="&#x300;" horiz-adv-x="0" 
d="M543 1260l-31 -86l-410 135l39 116z" />
    <glyph glyph-name="acutecomb" unicode="&#x301;" horiz-adv-x="0" 
d="M102 1260l402 165l39 -116l-410 -135z" />
    <glyph glyph-name="uni0302" unicode="&#x302;" horiz-adv-x="0" 
d="M102 1260l314 137l311 -137l-31 -86l-280 98l-283 -98z" />
    <glyph glyph-name="tildecomb" unicode="&#x303;" horiz-adv-x="0" 
d="M575 1174q-50 0 -105 24.5t-104 49t-87 24.5q-45 0 -64.5 -28.5t-19.5 -69.5h-93q0 101 43 149.5t115 48.5q54 0 109.5 -24.5t103.5 -49t84 -24.5q46 0 65 30t19 68h92q0 -94 -43.5 -146t-114.5 -52z" />
    <glyph glyph-name="uni0304" unicode="&#x304;" horiz-adv-x="0" 
d="M102 1243v94h621v-94h-621z" />
    <glyph glyph-name="uni0306" unicode="&#x306;" horiz-adv-x="0" 
d="M637 1399q0 -100 -75.5 -162.5t-192.5 -62.5q-115 0 -191 62.5t-76 162.5h101q0 -63 44 -97t122 -34q79 0 123.5 34.5t44.5 96.5h100z" />
    <glyph glyph-name="uni0307" unicode="&#x307;" horiz-adv-x="0" 
d="M215 1174q-48 0 -80.5 29.5t-32.5 76.5t32.5 76.5t80.5 29.5t80.5 -29.5t32.5 -76.5t-32.5 -76.5t-80.5 -29.5z" />
    <glyph glyph-name="uni0308" unicode="&#x308;" horiz-adv-x="0" 
d="M528 1174q-41 0 -69.5 28.5t-28.5 71.5q0 41 28.5 69.5t69.5 28.5q43 0 72 -28.5t29 -69.5q0 -43 -29 -71.5t-72 -28.5zM102 1274q0 41 29 69.5t70 28.5q43 0 71.5 -28.5t28.5 -69.5q0 -43 -28.5 -71.5t-71.5 -28.5q-41 0 -70 29t-29 71z" />
    <glyph glyph-name="uni030A" unicode="&#x30a;" horiz-adv-x="0" 
d="M369 1174q-115 0 -191 63.5t-76 163.5q0 101 75.5 164t191.5 63q117 0 192.5 -62.5t75.5 -164.5q0 -100 -76 -163.5t-192 -63.5zM203 1401q0 -62 44 -97.5t122 -35.5t123 35.5t45 97.5q0 63 -45 98t-123 35t-122 -35t-44 -98z" />
    <glyph glyph-name="uni030B" unicode="&#x30b;" horiz-adv-x="0" 
d="M102 1247l369 303l70 -98l-379 -278zM494 1247l368 303l70 -98l-379 -278z" />
    <glyph glyph-name="uni030C" unicode="&#x30c;" horiz-adv-x="0" 
d="M102 1311l31 86l283 -99l280 99l31 -86l-311 -137z" />
    <glyph glyph-name="uni0312" unicode="&#x312;" horiz-adv-x="0" 
d="M383 1583l-102 -395h-179l158 395h123z" />
    <glyph glyph-name="dotbelowcomb" unicode="&#x323;" horiz-adv-x="0" 
d="M215 -377q-48 0 -80.5 30t-32.5 77t32.5 76.5t80.5 29.5t80.5 -29.5t32.5 -76.5t-32.5 -77t-80.5 -30z" />
    <glyph glyph-name="uni0326" unicode="&#x326;" horiz-adv-x="0" 
d="M27 -559l102 395h178l-157 -395h-123z" />
    <glyph glyph-name="uni0327" unicode="&#x327;" horiz-adv-x="0" 
d="M266 -109q67 0 114.5 -32.5t47.5 -110.5q0 -92 -78.5 -128t-247.5 -36v78q113 0 165 19t52 71q0 46 -27 61t-73 15h-78l27 172h82l-14 -109h30z" />
    <glyph glyph-name="uni0328" unicode="&#x328;" horiz-adv-x="0" 
d="M383 -416q-132 0 -206.5 45t-74.5 138q0 154 252 268l33 -35q-91 -63 -133.5 -114t-42.5 -111q0 -113 172 -113v-78z" />
    <glyph glyph-name="uni0374" unicode="&#x374;" horiz-adv-x="409" 
d="M27 1038l102 396h178l-157 -396h-123z" />
    <glyph glyph-name="uni0375" unicode="&#x375;" horiz-adv-x="409" 
d="M27 -287l90 465h190l-157 -465h-123z" />
    <glyph glyph-name="uni037E" unicode="&#x37e;" horiz-adv-x="409" 
d="M203 594q-49 0 -78 28.5t-29 73.5t29 74t78 29q47 0 75.5 -29t28.5 -74t-28.5 -73.5t-75.5 -28.5zM27 -287l90 465h190l-157 -465h-123z" />
    <glyph glyph-name="tonos" unicode="&#x384;" horiz-adv-x="313" 
d="M41 1182l88 409h143l-122 -409h-109z" />
    <glyph glyph-name="dieresistonos" unicode="&#x385;" horiz-adv-x="757" 
d="M567 1174q-38 0 -64 26t-26 64q0 37 26 62.5t64 25.5q37 0 62.5 -25.5t25.5 -62.5q0 -38 -25.5 -64t-62.5 -26zM102 1264q0 37 25.5 62.5t62.5 25.5q38 0 64.5 -25.5t26.5 -62.5q0 -38 -26.5 -64t-64.5 -26q-37 0 -62.5 26t-25.5 64zM322 1475h114l-12 -301h-90z" />
    <glyph glyph-name="Alphatonos" unicode="&#x386;" horiz-adv-x="1384" 
d="M100 1024l88 410h144l-123 -410h-109zM70 0l526 1434h229l525 -1434h-168l-144 403h-657l-143 -403h-168zM430 539h559l-272 743h-10z" />
    <glyph glyph-name="anoteleia" unicode="&#x387;" horiz-adv-x="430" 
d="M215 1174q-48 0 -80.5 29.5t-32.5 76.5t32.5 76.5t80.5 29.5t80.5 -29.5t32.5 -76.5t-32.5 -76.5t-80.5 -29.5z" />
    <glyph glyph-name="Epsilontonos" unicode="&#x388;" horiz-adv-x="1435" 
d="M41 1024l88 410h143l-122 -410h-109zM365 0v1434h950v-142h-787v-489h766v-141h-766v-521h787v-141h-950z" />
    <glyph glyph-name="Etatonos" unicode="&#x389;" horiz-adv-x="1617" 
d="M41 1024l88 410h143l-122 -410h-109zM365 0v1434h163v-631h766v631h164v-1434h-164v662h-766v-662h-163z" />
    <glyph glyph-name="Iotatonos" unicode="&#x38a;" horiz-adv-x="690" 
d="M41 1024l88 410h143l-122 -410h-109zM365 0v1434h163v-1434h-163z" />
    <glyph glyph-name="Omicrontonos" unicode="&#x38c;" horiz-adv-x="1638" 
d="M41 1024l88 410h143l-122 -410h-109zM266 696v41q0 355 166 536t459 181h4q292 0 457.5 -181t165.5 -536v-41q0 -355 -165.5 -535.5t-457.5 -180.5h-4q-293 0 -459 180.5t-166 535.5zM434 700q0 -299 120 -439t337 -140h4q217 0 337 140t120 439v33q0 299 -120 439.5
t-337 140.5h-4q-217 0 -337 -140.5t-120 -439.5v-33z" />
    <glyph glyph-name="Upsilontonos" unicode="&#x38e;" horiz-adv-x="1624" 
d="M41 1024l88 410h143l-122 -410h-109zM309 1434h174l459 -734h10l465 734h172l-559 -908v-526h-164v526z" />
    <glyph glyph-name="Omegatonos" unicode="&#x38f;" horiz-adv-x="1650" 
d="M41 1024l88 410h143l-122 -410h-109zM260 0v141h414v11q-61 58 -106 105t-103 121t-95 142t-63 156t-26 176v20q0 145 49 258t135 182.5t197.5 105.5t242.5 36h4q131 0 242 -36t197 -105.5t135 -182.5t49 -258v-20q0 -88 -26 -175.5t-62.5 -156t-94 -142.5t-103 -121
t-105.5 -105v-11h411v-141h-565v141q8 9 25 27q149 165 213 260q141 209 141 412v18q0 96 -24.5 173t-66 129t-100 87t-125 50.5t-141.5 15.5h-4q-76 0 -142 -15.5t-124.5 -50.5t-100 -87t-65.5 -129t-24 -173v-18q0 -81 22.5 -162t54.5 -144t84.5 -135.5t93 -119.5
t100.5 -113q15 -17 23 -25v-141h-567z" />
    <glyph glyph-name="iotadieresistonos" unicode="&#x390;" horiz-adv-x="559" 
d="M139 307v717h158v-711q0 -98 41.5 -142t138.5 -44h51v-127h-71q-74 0 -128.5 14t-99 47t-67.5 94.5t-23 151.5zM-57 1264q0 37 25.5 62.5t62.5 25.5q38 0 64 -25.5t26 -62.5q0 -38 -26 -64t-64 -26q-37 0 -62.5 26t-25.5 64zM162 1475h114l-12 -301h-90zM317 1264
q0 37 26.5 62.5t64.5 25.5q37 0 62.5 -25.5t25.5 -62.5q0 -38 -25.5 -64t-62.5 -26q-38 0 -64.5 26t-26.5 64z" />
    <glyph glyph-name="Alpha" unicode="&#x391;" horiz-adv-x="1349" 
d="M395 539h559l-272 743h-10zM35 0l526 1434h230l524 -1434h-168l-143 403h-658l-143 -403h-168z" />
    <glyph glyph-name="Beta" unicode="&#x392;" horiz-adv-x="1329" 
d="M940 741q132 -31 204.5 -120.5t72.5 -227.5v-12q0 -183 -121 -282t-338 -99h-598v1434h524q216 0 336.5 -94t120.5 -267v-12q0 -117 -53 -195t-148 -114v-11zM324 141h432q140 0 216.5 66t76.5 192v9q0 126 -76.5 192t-216.5 66h-432v-525zM324 805h401q121 0 186.5 60.5
t65.5 178.5v7q0 119 -76.5 181t-216.5 62h-360v-489z" />
    <glyph glyph-name="Gamma" unicode="&#x393;" horiz-adv-x="1128" 
d="M324 0h-164v1434h917v-142h-753v-1292z" />
    <glyph glyph-name="uni0394" unicode="&#x394;" horiz-adv-x="1349" 
d="M35 0l526 1434h230l524 -1434h-1280zM252 135h846l-416 1147h-10z" />
    <glyph glyph-name="Epsilon" unicode="&#x395;" horiz-adv-x="1230" 
d="M324 141h786v-141h-950v1434h950v-142h-786v-489h766v-141h-766v-521z" />
    <glyph glyph-name="Zeta" unicode="&#x396;" horiz-adv-x="1198" 
d="M66 0v131l837 1151v10h-817v142h1026v-134l-838 -1148v-11h859v-141h-1067z" />
    <glyph glyph-name="Eta" unicode="&#x397;" horiz-adv-x="1413" 
d="M324 803h766v631h163v-1434h-163v662h-766v-662h-164v1434h164v-631z" />
    <glyph glyph-name="Theta" unicode="&#x398;" horiz-adv-x="1490" 
d="M459 776h573v-127h-573v127zM119 696v41q0 355 166 536t458 181h5q292 0 457 -181t165 -536v-41q0 -355 -165 -535.5t-457 -180.5h-5q-293 0 -458.5 180.5t-165.5 535.5zM287 700q0 -299 119.5 -439t336.5 -140h5q217 0 336.5 140t119.5 439v33q0 299 -119.5 439.5
t-336.5 140.5h-5q-217 0 -336.5 -140.5t-119.5 -439.5v-33z" />
    <glyph glyph-name="Iota" unicode="&#x399;" horiz-adv-x="485" 
d="M160 0v1434h164v-1434h-164z" />
    <glyph glyph-name="Kappa" unicode="&#x39a;" horiz-adv-x="1314" 
d="M334 629q434 315 735 805h182q-238 -384 -512 -658l541 -776h-186l-473 662q-144 -131 -297 -244v-418h-164v1434h164v-805h10z" />
    <glyph glyph-name="Lambda" unicode="&#x39b;" horiz-adv-x="1349" 
d="M203 0h-168l526 1434h230l524 -1434h-168l-465 1282h-10z" />
    <glyph glyph-name="Mu" unicode="&#x39c;" horiz-adv-x="1640" 
d="M160 0v1434h166l491 -756h10l488 756h166v-1434h-160v1147h-10l-420 -641h-139l-420 641h-10v-1147h-162z" />
    <glyph glyph-name="Nu" unicode="&#x39d;" horiz-adv-x="1402" 
d="M160 0v1434h174l737 -1139h10v1139h160v-1434h-174l-735 1139h-10v-1139h-162z" />
    <glyph glyph-name="Xi" unicode="&#x39e;" horiz-adv-x="1189" 
d="M119 141h950v-141h-950v141zM119 1292v142h950v-142h-950zM180 662v141h828v-141h-828z" />
    <glyph glyph-name="Omicron" unicode="&#x39f;" horiz-adv-x="1490" 
d="M743 -20q-293 0 -458.5 180.5t-165.5 535.5v41q0 355 166 536t458 181h5q292 0 457 -181t165 -536v-41q0 -355 -165 -535.5t-457 -180.5h-5zM287 700q0 -299 119.5 -439t336.5 -140h5q217 0 336.5 140t119.5 439v33q0 299 -119.5 439.5t-336.5 140.5h-5
q-217 0 -336.5 -140.5t-119.5 -439.5v-33z" />
    <glyph glyph-name="Pi" unicode="&#x3a0;" horiz-adv-x="1413" 
d="M1253 1434v-1434h-163v1292h-766v-1292h-164v1434h1093z" />
    <glyph glyph-name="Rho" unicode="&#x3a1;" horiz-adv-x="1263" 
d="M160 0v1434h569q215 0 336 -108.5t121 -299.5v-12q0 -190 -121 -298t-336 -108h-405v-608h-164zM324 748h395q143 0 222 69t79 201v6q0 130 -79 199t-222 69h-395v-544z" />
    <glyph glyph-name="Sigma" unicode="&#x3a3;" horiz-adv-x="1198" 
d="M682 711l-408 -559v-11h859v-141h-1067v131l421 582v10l-421 580v131h1067v-142h-859v-10l408 -561v-10z" />
    <glyph glyph-name="Tau" unicode="&#x3a4;" horiz-adv-x="1236" 
d="M700 1292v-1292h-163v1292h-486v142h1135v-142h-486z" />
    <glyph glyph-name="Upsilon" unicode="&#x3a5;" horiz-adv-x="1349" 
d="M668 700h10l465 734h172l-559 -908v-526h-164v526l-557 908h174z" />
    <glyph glyph-name="Phi" unicode="&#x3a6;" horiz-adv-x="1695" 
d="M766 0v84q-309 19 -478 178.5t-169 433.5v41q0 275 169 434.5t478 178.5v84h164v-84q308 -19 477.5 -178.5t169.5 -434.5v-41q0 -273 -169.5 -433t-477.5 -179v-84h-164zM287 700q0 -216 124.5 -337t354.5 -140v987q-229 -19 -354 -139.5t-125 -335.5v-35zM930 223
q230 19 354.5 140t124.5 337v35q0 215 -125 335.5t-354 139.5v-987z" />
    <glyph glyph-name="Chi" unicode="&#x3a7;" horiz-adv-x="1298" 
d="M1071 0l-424 606h-10l-430 -606h-172l514 748l-481 686h192l393 -555h11l391 555h176l-479 -697l512 -737h-193z" />
    <glyph glyph-name="Psi" unicode="&#x3a8;" horiz-adv-x="1474" 
d="M655 0v459q-286 20 -432.5 172t-146.5 401v402h164v-402q0 -88 24.5 -160.5t73.5 -130t129.5 -93.5t187.5 -46v832h164v-832q107 10 187 46t129.5 93.5t73.5 130t24 160.5v402h164v-402q0 -248 -146.5 -400.5t-431.5 -172.5v-459h-164z" />
    <glyph glyph-name="uni03A9" unicode="&#x3a9;" horiz-adv-x="1490" 
d="M748 1454q104 0 196 -22t170.5 -69t135 -114.5t88.5 -164t32 -212.5v-20q0 -88 -26 -175.5t-62.5 -156t-94 -142.5t-103 -121t-105.5 -105v-11h412v-141h-566v141q8 9 25 27q149 165 213 260q141 209 141 412v18q0 119 -36.5 209t-100.5 142.5t-144 78t-175 25.5h-5
q-76 0 -142 -15.5t-124.5 -50.5t-100 -87t-65.5 -129t-24 -173v-18q0 -81 22 -161.5t55 -144.5t83.5 -134t94 -120t99.5 -112q17 -18 25 -27v-141h-568v141h414v11q-61 58 -106 105t-103 121t-95 142t-63 156t-26 176v20q0 145 49 258t135 182.5t197.5 105.5t242.5 36h5z
" />
    <glyph glyph-name="Iotadieresis" unicode="&#x3aa;" horiz-adv-x="485" 
d="M160 0v1434h164v-1434h-164zM-20 1683q0 41 28.5 70t69.5 29q42 0 71 -29t29 -70q0 -43 -28.5 -71.5t-71.5 -28.5q-41 0 -69.5 28.5t-28.5 71.5zM307 1683q0 41 29 70t70 29q42 0 71 -29t29 -70q0 -43 -28.5 -71.5t-71.5 -28.5q-42 0 -70.5 28.5t-28.5 71.5z" />
    <glyph glyph-name="Upsilondieresis" unicode="&#x3ab;" horiz-adv-x="1349" 
d="M668 700h10l465 734h172l-559 -908v-526h-164v526l-557 908h174zM412 1683q0 41 28.5 70t69.5 29q42 0 71 -29t29 -70q0 -43 -28.5 -71.5t-71.5 -28.5q-41 0 -69.5 28.5t-28.5 71.5zM739 1683q0 41 29 70t70 29q42 0 71 -29t29 -70q0 -43 -28.5 -71.5t-71.5 -28.5
q-42 0 -70.5 28.5t-28.5 71.5z" />
    <glyph glyph-name="alphatonos" unicode="&#x3ac;" horiz-adv-x="1247" 
d="M1108 0h-158v203h-10q-48 -108 -143.5 -165.5t-233.5 -57.5h-4q-216 0 -338.5 132t-122.5 380v40q0 248 122.5 380t338.5 132h4q138 0 233.5 -57.5t143.5 -165.5h10v203h158v-1024zM260 496q0 -191 88 -290.5t254 -99.5h4q164 0 254 100t90 290v32q0 190 -90 290
t-254 100h-4q-166 0 -254 -99.5t-88 -290.5v-32zM569 1182l88 409h144l-123 -409h-109z" />
    <glyph glyph-name="epsilontonos" unicode="&#x3ad;" horiz-adv-x="1075" 
d="M487 590q-91 0 -149.5 37.5t-58.5 111.5v6q0 173 272 173h4q229 0 363 -138l69 105q-73 73 -188.5 116t-259.5 43h-4q-193 0 -303.5 -73.5t-110.5 -204.5v-8q0 -80 49.5 -138.5t128.5 -84.5v-9q-92 -22 -146.5 -82.5t-54.5 -160.5v-11q0 -135 118 -213.5t331 -78.5h4
q312 0 461 159l-68 105q-131 -138 -373 -138h-4q-151 0 -229 49t-78 138v4q0 84 56 125t157 41h238v127h-224zM483 1182l88 409h144l-123 -409h-109z" />
    <glyph glyph-name="etatonos" unicode="&#x3ae;" 
d="M623 918q-160 0 -243 -94t-83 -261v-563h-158v1024h158v-195h10q19 40 43.5 72.5t67 67.5t109.5 55t153 20h4q181 0 289 -97t108 -285v-662h-157v641q0 137 -81 207t-216 70h-4zM557 1182l88 409h143l-122 -409h-109z" />
    <glyph glyph-name="iotatonos" unicode="&#x3af;" horiz-adv-x="559" 
d="M139 307v717h158v-711q0 -98 41.5 -142t138.5 -44h51v-127h-71q-74 0 -128.5 14t-99 47t-67.5 94.5t-23 151.5zM164 1182l88 409h143l-123 -409h-108z" />
    <glyph glyph-name="upsilondieresistonos" unicode="&#x3b0;" 
d="M608 -20q-102 0 -183 23t-134 62.5t-87.5 96t-49.5 120t-15 138.5v604h158v-604q0 -67 15.5 -121t50 -98.5t97 -69.5t148.5 -25h6q86 0 148.5 25t96.5 70t49.5 98.5t15.5 120.5v604h157v-604q0 -94 -24.5 -170.5t-77.5 -138.5t-146 -96.5t-219 -34.5h-6zM334 1264
q0 37 25.5 62.5t62.5 25.5q38 0 64 -25.5t26 -62.5q0 -38 -26 -64t-64 -26q-37 0 -62.5 26t-25.5 64zM553 1475h115l-13 -301h-90zM709 1264q0 37 26 62.5t64 25.5q37 0 62.5 -25.5t25.5 -62.5q0 -38 -25.5 -64t-62.5 -26q-38 0 -64 26t-26 64z" />
    <glyph glyph-name="alpha" unicode="&#x3b1;" horiz-adv-x="1247" 
d="M1108 0h-158v203h-10q-48 -108 -143.5 -165.5t-233.5 -57.5h-4q-216 0 -338.5 132t-122.5 380v40q0 248 122.5 380t338.5 132h4q138 0 233.5 -57.5t143.5 -165.5h10v203h158v-1024zM260 496q0 -191 88 -290.5t254 -99.5h4q164 0 254 100t90 290v32q0 190 -90 290
t-254 100h-4q-166 0 -254 -99.5t-88 -290.5v-32z" />
    <glyph glyph-name="beta" unicode="&#x3b2;" horiz-adv-x="1202" 
d="M596 1454q217 0 332.5 -98.5t115.5 -274.5v-12q0 -117 -62 -198.5t-165 -120.5v-11q140 -32 222.5 -122t82.5 -234v-12q0 -181 -108.5 -286t-306.5 -105h-5q-85 0 -155.5 19.5t-116.5 53.5t-75 68.5t-48 73.5h-10v-605h-158v1454q0 193 115.5 301.5t337.5 108.5h4z
M297 461q0 -167 92 -261t264 -94h4q150 0 228 77t78 208v6q0 130 -91.5 202.5t-236.5 72.5h-88v127h65q122 0 198.5 68t76.5 188v6q0 126 -72.5 196t-214.5 70h-4q-155 0 -227 -81t-72 -216v-569z" />
    <glyph glyph-name="gamma" unicode="&#x3b3;" horiz-adv-x="1120" 
d="M481 -410v379l-461 1055h164l369 -862h10l373 862h164l-463 -1065v-369h-156z" />
    <glyph glyph-name="delta" unicode="&#x3b4;" horiz-adv-x="1286" 
d="M604 864q-167 0 -255.5 -98.5t-88.5 -269.5v-21q0 -172 88.5 -270.5t255.5 -98.5h4q165 0 253.5 98.5t88.5 270.5v21q0 174 -88.5 271t-253.5 97h-4zM98 475v21q0 226 126 356.5t349 130.5h5q71 0 122 -14.5t101 -48.5l8 6q-87 114 -242.5 206t-396.5 171v131h879v-127
h-551v-11q101 -45 184 -94t165 -120.5t138 -152.5t90.5 -191t34.5 -236v-21q0 -227 -133.5 -364t-368.5 -137h-4q-237 0 -371.5 133.5t-134.5 361.5z" />
    <glyph glyph-name="epsilon" unicode="&#x3b5;" horiz-adv-x="1075" 
d="M487 590q-91 0 -149.5 37.5t-58.5 111.5v6q0 173 272 173h4q229 0 363 -138l69 105q-73 73 -188.5 116t-259.5 43h-4q-193 0 -303.5 -73.5t-110.5 -204.5v-8q0 -80 49.5 -138.5t128.5 -84.5v-9q-92 -22 -146.5 -82.5t-54.5 -160.5v-11q0 -135 118 -213.5t331 -78.5h4
q312 0 461 159l-68 105q-131 -138 -373 -138h-4q-151 0 -229 49t-78 138v4q0 84 56 125t157 41h238v127h-224z" />
    <glyph glyph-name="zeta" unicode="&#x3b6;" horiz-adv-x="1071" 
d="M98 471q0 63 14.5 124.5t39.5 114.5t63 106t78.5 97t92.5 89.5t99.5 82t106 75.5t104.5 68.5t101 63.5q4 2 6.5 3.5t5.5 3.5l6 4v10h-688v121h881v-121q-80 -49 -139 -86.5t-133 -88t-127.5 -94.5t-112 -97t-98 -105t-73 -109.5t-49.5 -119t-16 -124.5v-20
q0 -144 90.5 -229t304.5 -121q189 -33 259.5 -80t70.5 -150q0 -74 -67 -211l-123 48q43 74 43 127q0 69 -54.5 97t-201.5 54q-247 43 -365.5 145.5t-118.5 301.5v20z" />
    <glyph glyph-name="eta" unicode="&#x3b7;" 
d="M623 918q-160 0 -243 -94t-83 -261v-563h-158v1024h158v-195h10q19 40 43.5 72.5t67 67.5t109.5 55t153 20h4q181 0 289 -97t108 -285v-662h-157v641q0 137 -81 207t-216 70h-4z" />
    <glyph glyph-name="theta" unicode="&#x3b8;" horiz-adv-x="1210" 
d="M602 -20q-242 0 -373 191t-131 525v41q0 334 131 525.5t373 191.5h4q244 0 374 -191.5t130 -525.5v-41q0 -334 -130 -525t-374 -191h-4zM260 649q16 -543 342 -543h4q328 0 344 543h-690zM260 776h690q-13 551 -344 551h-4q-329 0 -342 -551z" />
    <glyph glyph-name="iota" unicode="&#x3b9;" horiz-adv-x="559" 
d="M139 307v717h158v-711q0 -98 41.5 -142t138.5 -44h51v-127h-71q-74 0 -128.5 14t-99 47t-67.5 94.5t-23 151.5z" />
    <glyph glyph-name="kappa" unicode="&#x3ba;" horiz-adv-x="1132" 
d="M295 0h-158v1024h158v-539h10q173 94 322.5 231t261.5 308h170q-164 -256 -379 -440l420 -584h-174l-365 489q-111 -83 -266 -170v-319z" />
    <glyph glyph-name="lambda" unicode="&#x3bb;" 
d="M543 989q272 0 370 -215h11v277q0 80 -24.5 135t-71.5 85.5t-104.5 43t-135.5 12.5h-4q-223 0 -394 -70l-28 121q187 76 422 76h4q88 0 159.5 -12t135 -41t106.5 -74.5t67.5 -115t24.5 -160.5v-1051h-157v510q0 166 -82 259t-242 93h-4q-137 0 -218 -68.5t-81 -205.5
v-588h-158v608q0 186 109.5 283.5t290.5 97.5h4z" />
    <glyph glyph-name="uni03BC" unicode="&#x3bc;" 
d="M139 -410v1434h158v-641q0 -137 81.5 -207t217.5 -70h4q160 0 242 93.5t82 261.5v563h157v-1024h-157v195h-11q-98 -215 -370 -215h-4q-144 0 -242 61v-451h-158z" />
    <glyph glyph-name="nu" unicode="&#x3bd;" horiz-adv-x="1120" 
d="M453 0l-433 1024h164l369 -883h10l373 883h164l-434 -1024h-213z" />
    <glyph glyph-name="xi" unicode="&#x3be;" horiz-adv-x="1071" 
d="M127 1434h881v-121q-44 -16 -116 -40t-118 -40t-110 -39t-105 -41.5t-90 -43.5t-79.5 -48.5t-58 -52t-40 -60t-12.5 -65.5v-4q0 -79 59 -122.5t151 -43.5h252v-113h-258q-104 0 -163.5 -56t-59.5 -143v-6q0 -38 11 -70t38 -64t71.5 -57t113.5 -47t161 -38
q189 -33 259.5 -80t70.5 -150q0 -74 -67 -211l-123 48q43 74 43 127q0 69 -54.5 97t-201.5 54q-243 42 -363.5 132t-120.5 239v12q0 102 59 176.5t148 95.5v9q-80 25 -132 81.5t-52 135.5v8q0 59 25.5 109.5t83.5 91.5t103 69t134 58t124.5 41t122.5 34q17 5 25 7v10h-612
v121z" />
    <glyph glyph-name="omicron" unicode="&#x3bf;" horiz-adv-x="1210" 
d="M602 -20q-236 0 -370 132t-134 380v40q0 248 134 380t370 132h4q237 0 370.5 -132t133.5 -380v-40q0 -248 -133.5 -380t-370.5 -132h-4zM260 496q0 -192 86.5 -291t255.5 -99h4q170 0 257 99t87 291v32q0 192 -87 291t-257 99h-4q-169 0 -255.5 -99t-86.5 -291v-32z" />
    <glyph glyph-name="pi" unicode="&#x3c0;" 
d="M297 897v-897h-158v1024h942v-1024h-157v897h-627z" />
    <glyph glyph-name="rho" unicode="&#x3c1;" horiz-adv-x="1247" 
d="M139 528q0 239 129.5 377.5t372.5 138.5h4q237 0 370.5 -133.5t133.5 -378.5v-40q0 -245 -121 -378.5t-334 -133.5h-4q-280 0 -383 223h-10v-613h-158v938zM297 496q0 -192 87 -291t257 -99h4q169 0 255.5 99t86.5 291v32q0 192 -86.5 291t-255.5 99h-4q-170 0 -257 -99
t-87 -291v-32z" />
    <glyph glyph-name="uni03C2" unicode="&#x3c2;" horiz-adv-x="1089" 
d="M958 782q-132 136 -340 136h-4q-172 0 -263 -96.5t-91 -272.5v-21q0 -85 18 -149t60.5 -117.5t117 -89t183.5 -53.5q189 -33 259.5 -80t70.5 -150q0 -76 -66 -211l-125 48q43 74 43 127q0 69 -54 97.5t-200 53.5q-244 42 -356.5 164t-112.5 362v21q0 235 136 364t372 129
h4q266 0 418 -159z" />
    <glyph glyph-name="sigma" unicode="&#x3c3;" horiz-adv-x="1210" 
d="M602 -20q-235 0 -369.5 127t-134.5 374v41q0 247 134.5 374.5t369.5 127.5h508v-127h-215v-8q104 -44 159.5 -146t55.5 -251v-35q0 -232 -134.5 -354.5t-369.5 -122.5h-4zM260 485q0 -379 342 -379h4q344 0 344 379v33q0 379 -344 379h-4q-342 0 -342 -379v-33z" />
    <glyph glyph-name="tau" unicode="&#x3c4;" horiz-adv-x="933" 
d="M20 897v127h869v-127h-395v-618q0 -173 182 -173h4q113 0 205 39l28 -118q-117 -47 -260 -47h-4q-146 0 -229.5 69.5t-83.5 214.5v633h-316z" />
    <glyph glyph-name="upsilon" unicode="&#x3c5;" 
d="M608 -20q-102 0 -183 23t-134 62.5t-87.5 96t-49.5 120t-15 138.5v604h158v-604q0 -67 15.5 -121t50 -98.5t97 -69.5t148.5 -25h6q86 0 148.5 25t96.5 70t49.5 98.5t15.5 120.5v604h157v-604q0 -94 -24.5 -170.5t-77.5 -138.5t-146 -96.5t-219 -34.5h-6z" />
    <glyph glyph-name="phi" unicode="&#x3c6;" horiz-adv-x="1540" 
d="M702 -410v392q-287 12 -445.5 141.5t-158.5 374.5v41q0 207 127 340.5t338 164.5l35 -126q-156 -24 -247 -124.5t-91 -265.5v-32q0 -361 442 -387v935h70q321 0 495.5 -128t174.5 -384v-40q0 -243 -156.5 -370.5t-445.5 -139.5v-392h-138zM840 109q442 26 442 387v32
q0 361 -442 387v-806z" />
    <glyph glyph-name="chi" unicode="&#x3c7;" horiz-adv-x="1067" 
d="M850 0l-318 408h-10l-315 -408h-172l399 537l-371 487h185l289 -377h10l284 377h173l-371 -504l399 -520h-182z" />
    <glyph glyph-name="psi" unicode="&#x3c8;" horiz-adv-x="1499" 
d="M682 -410v392q-275 14 -429.5 149.5t-154.5 384.5v508h162v-506q0 -192 111 -293.5t311 -115.5v915h135v-915q200 14 311 115.5t111 293.5v506h160v-508q0 -249 -154 -384.5t-428 -149.5v-392h-135z" />
    <glyph glyph-name="omega" unicode="&#x3c9;" horiz-adv-x="1810" 
d="M557 106q122 0 196 83t74 237v393h156v-393q0 -153 78 -236.5t201 -83.5h4q284 0 284 379v21q0 99 -28.5 178.5t-78.5 130t-115 77t-140 26.5l12 126q80 0 154.5 -22t139.5 -66.5t113.5 -107t76.5 -149.5t28 -189v-29q0 -244 -114 -372.5t-312 -128.5h-4
q-144 0 -242.5 72.5t-130.5 176.5h-8q-32 -105 -126.5 -177t-237.5 -72h-5q-199 0 -316.5 129t-117.5 372v29q0 102 28 189t76.5 149.5t113.5 107t139.5 66.5t154.5 22l13 -126q-75 0 -140 -26.5t-115 -77t-79 -130t-29 -178.5v-21q0 -188 75 -283.5t218 -95.5h4z" />
    <glyph glyph-name="iotadieresis" unicode="&#x3ca;" horiz-adv-x="559" 
d="M139 307v717h158v-711q0 -98 41.5 -142t138.5 -44h51v-127h-71q-74 0 -128.5 14t-99 47t-67.5 94.5t-23 151.5zM-45 1274q0 41 28.5 69.5t69.5 28.5q43 0 72 -28.5t29 -69.5q0 -43 -29 -71.5t-72 -28.5q-41 0 -69.5 28.5t-28.5 71.5zM283 1274q0 41 28.5 69.5t69.5 28.5
q43 0 71.5 -28.5t28.5 -69.5q0 -43 -28.5 -71.5t-71.5 -28.5q-41 0 -69.5 28.5t-28.5 71.5z" />
    <glyph glyph-name="upsilondieresis" unicode="&#x3cb;" 
d="M608 -20q-102 0 -183 23t-134 62.5t-87.5 96t-49.5 120t-15 138.5v604h158v-604q0 -67 15.5 -121t50 -98.5t97 -69.5t148.5 -25h6q86 0 148.5 25t96.5 70t49.5 98.5t15.5 120.5v604h157v-604q0 -94 -24.5 -170.5t-77.5 -138.5t-146 -96.5t-219 -34.5h-6zM348 1274
q0 41 28.5 69.5t69.5 28.5q43 0 72 -28.5t29 -69.5q0 -43 -29 -71.5t-72 -28.5q-41 0 -69.5 28.5t-28.5 71.5zM676 1274q0 41 28.5 69.5t69.5 28.5q43 0 71.5 -28.5t28.5 -69.5q0 -43 -28.5 -71.5t-71.5 -28.5q-41 0 -69.5 28.5t-28.5 71.5z" />
    <glyph glyph-name="omicrontonos" unicode="&#x3cc;" horiz-adv-x="1210" 
d="M602 -20q-236 0 -370 132t-134 380v40q0 248 134 380t370 132h4q237 0 370.5 -132t133.5 -380v-40q0 -248 -133.5 -380t-370.5 -132h-4zM260 496q0 -192 86.5 -291t255.5 -99h4q170 0 257 99t87 291v32q0 192 -87 291t-257 99h-4q-169 0 -255.5 -99t-86.5 -291v-32z
M551 1182l88 409h143l-123 -409h-108z" />
    <glyph glyph-name="upsilontonos" unicode="&#x3cd;" 
d="M608 -20q-102 0 -183 23t-134 62.5t-87.5 96t-49.5 120t-15 138.5v604h158v-604q0 -67 15.5 -121t50 -98.5t97 -69.5t148.5 -25h6q86 0 148.5 25t96.5 70t49.5 98.5t15.5 120.5v604h157v-604q0 -94 -24.5 -170.5t-77.5 -138.5t-146 -96.5t-219 -34.5h-6zM557 1182l88 409
h143l-122 -409h-109z" />
    <glyph glyph-name="omegatonos" unicode="&#x3ce;" horiz-adv-x="1810" 
d="M557 106q122 0 196 83t74 237v393h156v-393q0 -153 78 -236.5t201 -83.5h4q284 0 284 379v21q0 99 -28.5 178.5t-78.5 130t-115 77t-140 26.5l12 126q80 0 154.5 -22t139.5 -66.5t113.5 -107t76.5 -149.5t28 -189v-29q0 -244 -114 -372.5t-312 -128.5h-4
q-144 0 -242.5 72.5t-130.5 176.5h-8q-32 -105 -126.5 -177t-237.5 -72h-5q-199 0 -316.5 129t-117.5 372v29q0 102 28 189t76.5 149.5t113.5 107t139.5 66.5t154.5 22l13 -126q-75 0 -140 -26.5t-115 -77t-79 -130t-29 -178.5v-21q0 -188 75 -283.5t218 -95.5h4zM850 1182
l88 409h143l-123 -409h-108z" />
    <glyph glyph-name="uni03CF" unicode="&#x3cf;" horiz-adv-x="1314" 
d="M803 -410l291 410l-473 662q-144 -131 -297 -244v-418h-164v1434h164v-805h10q434 315 735 805h182q-238 -384 -512 -658l541 -776l-346 -410h-131z" />
    <glyph glyph-name="uni03D7" unicode="&#x3d7;" horiz-adv-x="1132" 
d="M633 -410l293 410l-365 489q-111 -83 -266 -170v-319h-158v1024h158v-539h10q173 94 322.5 231t261.5 308h170q-164 -256 -379 -440l420 -584l-348 -410h-119z" />
    <glyph glyph-name="uni0400" unicode="&#x400;" horiz-adv-x="1230" 
d="M324 141h786v-141h-950v1434h950v-142h-786v-489h766v-141h-766v-521zM416 1718l39 117l401 -166l-31 -86z" />
    <glyph glyph-name="uni0401" unicode="&#x401;" horiz-adv-x="1230" 
d="M324 141h786v-141h-950v1434h950v-142h-786v-489h766v-141h-766v-521zM373 1683q0 41 28.5 70t69.5 29q43 0 71.5 -29t28.5 -70q0 -43 -28.5 -71.5t-71.5 -28.5q-41 0 -69.5 28.5t-28.5 71.5zM700 1683q0 41 29 70t70 29q43 0 71.5 -29t28.5 -70q0 -43 -28.5 -71.5
t-71.5 -28.5q-41 0 -70 28.5t-29 71.5z" />
    <glyph glyph-name="uni0402" unicode="&#x402;" horiz-adv-x="1687" 
d="M696 1292v-514q126 144 377 144h4q248 0 377 -129.5t129 -384.5v-21q0 -225 -92 -371t-305 -209l-74 127q164 38 235.5 151t71.5 302v21q0 189 -88 280.5t-270 91.5h-4q-183 0 -272 -91.5t-89 -280.5v-408h-164v1292h-481v142h1123v-142h-478z" />
    <glyph glyph-name="uni0403" unicode="&#x403;" horiz-adv-x="1128" 
d="M324 0h-164v1434h917v-142h-753v-1292zM420 1669l401 166l39 -117l-409 -135z" />
    <glyph glyph-name="uni0404" unicode="&#x404;" horiz-adv-x="1353" 
d="M119 737q0 352 170 534.5t467 182.5h4q170 0 292.5 -45t221.5 -133l-82 -115q-176 152 -424 152h-4q-214 0 -337 -128.5t-138 -381.5h626v-141h-628q9 -268 133 -404.5t344 -136.5h4q249 0 424 151l82 -114q-99 -88 -221.5 -133t-292.5 -45h-4q-297 0 -467 182t-170 534
v41z" />
    <glyph glyph-name="uni0405" unicode="&#x405;" horiz-adv-x="1228" 
d="M1044 1169q-183 144 -413 144h-4q-94 0 -166.5 -21.5t-120 -73t-47.5 -128.5v-17q0 -56 29.5 -98t79 -68.5t113.5 -47.5t135 -40t142 -39.5t135 -52t113.5 -73t79 -106t29.5 -147.5v-20q0 -137 -71.5 -228.5t-191.5 -132t-286 -40.5h-4q-324 0 -518 137l84 116
q75 -51 190.5 -81.5t241.5 -30.5h4q385 0 385 254v16q0 75 -47.5 127t-123 81.5t-167 53.5t-183 53t-167 69.5t-123 114t-47.5 175.5v20q0 172 136.5 270.5t365.5 98.5h4q283 0 497 -166z" />
    <glyph glyph-name="uni0406" unicode="&#x406;" horiz-adv-x="485" 
d="M160 0v1434h164v-1434h-164z" />
    <glyph glyph-name="uni0407" unicode="&#x407;" horiz-adv-x="485" 
d="M160 0v1434h164v-1434h-164zM-20 1683q0 41 28.5 70t69.5 29q42 0 71 -29t29 -70q0 -43 -28.5 -71.5t-71.5 -28.5q-41 0 -69.5 28.5t-28.5 71.5zM307 1683q0 41 29 70t70 29q42 0 71 -29t29 -70q0 -43 -28.5 -71.5t-71.5 -28.5q-42 0 -70.5 28.5t-28.5 71.5z" />
    <glyph glyph-name="uni0408" unicode="&#x408;" horiz-adv-x="1034" 
d="M428 -20q-232 0 -377 124l74 119q114 -102 289 -102h4q139 0 216 75t77 214v882h-518v142h681v-1024q0 -213 -119.5 -321.5t-322.5 -108.5h-4z" />
    <glyph glyph-name="uni0409" unicode="&#x409;" horiz-adv-x="2267" 
d="M1149 1292h-633l-45 -760q-6 -96 -20.5 -173.5t-46 -149.5t-77.5 -120t-117 -77.5t-163 -31.5l-12 147q53 0 94.5 16.5t70 48t48.5 69.5t31.5 90t18 100t9.5 108l47 875h959v-617h420q215 0 335.5 -106t120.5 -295v-13q0 -189 -120.5 -296t-335.5 -107h-584v1292z
M1313 141h409q143 0 222 67.5t79 197.5v8q0 130 -78.5 196t-222.5 66h-409v-535z" />
    <glyph glyph-name="uni040A" unicode="&#x40a;" horiz-adv-x="2207" 
d="M324 817h766v617h163v-617h420q215 0 336 -106t121 -295v-13q0 -189 -121 -296t-336 -107h-583v676h-766v-676h-164v1434h164v-617zM1253 141h410q143 0 222 67.5t79 197.5v8q0 130 -78.5 196t-222.5 66h-410v-535z" />
    <glyph glyph-name="uni040B" unicode="&#x40b;" horiz-adv-x="1687" 
d="M696 1292v-514q126 144 377 144h4q248 0 377 -129.5t129 -384.5v-408h-164v408q0 189 -88 280.5t-270 91.5h-4q-183 0 -272 -91.5t-89 -280.5v-408h-164v1292h-481v142h1123v-142h-478z" />
    <glyph glyph-name="uni040C" unicode="&#x40c;" horiz-adv-x="1314" 
d="M334 629q434 315 735 805h182q-238 -384 -512 -658l541 -776h-186l-473 662q-144 -131 -297 -244v-418h-164v1434h164v-805h10zM463 1669l401 166l39 -117l-409 -135z" />
    <glyph glyph-name="uni040D" unicode="&#x40d;" horiz-adv-x="1402" 
d="M1241 0h-164v1155h-10l-735 -1155h-172v1434h164v-1155h10l737 1155h170v-1434zM481 1718l39 117l402 -166l-31 -86z" />
    <glyph glyph-name="uni040E" unicode="&#x40e;" horiz-adv-x="1349" 
d="M35 1434h170l467 -981h10l465 981h168l-481 -1004q-66 -139 -127 -227t-130 -137t-139 -66.5t-168 -17.5h-4q-103 0 -225 26l27 137q113 -24 196 -24h4q110 0 182 32.5t136 125.5zM422 1808h100q0 -63 44 -97t122 -34q79 0 123.5 34.5t44.5 96.5h100q0 -100 -75.5 -162.5
t-192.5 -62.5q-115 0 -190.5 62.5t-75.5 162.5z" />
    <glyph glyph-name="uni040F" unicode="&#x40f;" horiz-adv-x="1413" 
d="M1253 0h-475v-307h-143v307h-475v1434h164v-1293h766v1293h163v-1434z" />
    <glyph glyph-name="uni0410" unicode="&#x410;" horiz-adv-x="1349" 
d="M395 539h559l-272 743h-10zM35 0l526 1434h230l524 -1434h-168l-143 403h-658l-143 -403h-168z" />
    <glyph glyph-name="uni0411" unicode="&#x411;" horiz-adv-x="1320" 
d="M160 1434h917v-142h-753v-479h419q216 0 337.5 -106t121.5 -295v-13q0 -187 -122 -293t-337 -106h-583v1434zM324 141h409q143 0 222 66.5t79 195.5v7q0 129 -79 195.5t-222 66.5h-409v-531z" />
    <glyph glyph-name="uni0412" unicode="&#x412;" horiz-adv-x="1329" 
d="M940 741q132 -31 204.5 -120.5t72.5 -227.5v-12q0 -183 -121 -282t-338 -99h-598v1434h524q216 0 336.5 -94t120.5 -267v-12q0 -117 -53 -195t-148 -114v-11zM324 141h432q140 0 216.5 66t76.5 192v9q0 126 -76.5 192t-216.5 66h-432v-525zM324 805h401q121 0 186.5 60.5
t65.5 178.5v7q0 119 -76.5 181t-216.5 62h-360v-489z" />
    <glyph glyph-name="uni0413" unicode="&#x413;" horiz-adv-x="1128" 
d="M324 0h-164v1434h917v-142h-753v-1292z" />
    <glyph glyph-name="uni0414" unicode="&#x414;" horiz-adv-x="1593" 
d="M1354 1434v-1293h205v-448h-144v307h-1237v-307h-143v448h41q63 0 110.5 23.5t76 60.5t47 94t26.5 112.5t12 127.5l47 875h959zM346 141h844v1151h-633l-45 -725q-10 -159 -45.5 -260.5t-120.5 -154.5v-11z" />
    <glyph glyph-name="uni0415" unicode="&#x415;" horiz-adv-x="1230" 
d="M324 141h786v-141h-950v1434h950v-142h-786v-489h766v-141h-766v-521z" />
    <glyph glyph-name="uni0416" unicode="&#x416;" horiz-adv-x="1923" 
d="M1055 717q363 295 622 717h185q-233 -377 -512 -658l540 -776h-188l-471 659q-100 -89 -187 -157v-502h-163v500q-86 66 -189 159l-471 -659h-186l538 774q-287 293 -510 660h183q267 -429 624 -717h11v717h163v-717h11z" />
    <glyph glyph-name="uni0417" unicode="&#x417;" horiz-adv-x="1280" 
d="M666 805q122 0 198 64.5t76 179.5v6q0 121 -88 189.5t-244 68.5h-4q-250 0 -422 -152l-84 115q204 178 516 178h4q228 0 357 -101t129 -276v-12q0 -114 -62 -195t-161 -120v-11q135 -32 214 -120.5t79 -225.5v-12q0 -186 -144 -293.5t-401 -107.5h-4q-343 0 -547 178
l84 114q168 -151 454 -151h5q191 0 289 73t98 203v9q0 123 -86.5 191.5t-227.5 68.5h-266v139h238z" />
    <glyph glyph-name="uni0418" unicode="&#x418;" horiz-adv-x="1402" 
d="M1241 0h-164v1155h-10l-735 -1155h-172v1434h164v-1155h10l737 1155h170v-1434z" />
    <glyph glyph-name="uni0419" unicode="&#x419;" horiz-adv-x="1402" 
d="M1241 0h-164v1155h-10l-735 -1155h-172v1434h164v-1155h10l737 1155h170v-1434zM449 1808h100q0 -63 44 -97t122 -34q79 0 123.5 34.5t44.5 96.5h100q0 -100 -75.5 -162.5t-192.5 -62.5q-115 0 -190.5 62.5t-75.5 162.5z" />
    <glyph glyph-name="uni041A" unicode="&#x41a;" horiz-adv-x="1314" 
d="M334 629q434 315 735 805h182q-238 -384 -512 -658l541 -776h-186l-473 662q-144 -131 -297 -244v-418h-164v1434h164v-805h10z" />
    <glyph glyph-name="uni041B" unicode="&#x41b;" horiz-adv-x="1472" 
d="M1313 1434v-1434h-164v1292h-633l-45 -760q-6 -96 -20.5 -173.5t-46 -149.5t-77.5 -120t-117 -77.5t-163 -31.5l-12 147q53 0 94.5 16.5t70 48t48.5 69.5t31.5 90t18 100t9.5 108l47 875h959z" />
    <glyph glyph-name="uni041C" unicode="&#x41c;" horiz-adv-x="1640" 
d="M160 0v1434h166l491 -756h10l488 756h166v-1434h-160v1147h-10l-420 -641h-139l-420 641h-10v-1147h-162z" />
    <glyph glyph-name="uni041D" unicode="&#x41d;" horiz-adv-x="1413" 
d="M324 803h766v631h163v-1434h-163v662h-766v-662h-164v1434h164v-631z" />
    <glyph glyph-name="uni041E" unicode="&#x41e;" horiz-adv-x="1490" 
d="M743 -20q-293 0 -458.5 180.5t-165.5 535.5v41q0 355 166 536t458 181h5q292 0 457 -181t165 -536v-41q0 -355 -165 -535.5t-457 -180.5h-5zM287 700q0 -299 119.5 -439t336.5 -140h5q217 0 336.5 140t119.5 439v33q0 299 -119.5 439.5t-336.5 140.5h-5
q-217 0 -336.5 -140.5t-119.5 -439.5v-33z" />
    <glyph glyph-name="uni041F" unicode="&#x41f;" horiz-adv-x="1413" 
d="M1253 1434v-1434h-163v1292h-766v-1292h-164v1434h1093z" />
    <glyph glyph-name="uni0420" unicode="&#x420;" horiz-adv-x="1263" 
d="M160 0v1434h569q215 0 336 -108.5t121 -299.5v-12q0 -190 -121 -298t-336 -108h-405v-608h-164zM324 748h395q143 0 222 69t79 201v6q0 130 -79 199t-222 69h-395v-544z" />
    <glyph glyph-name="uni0421" unicode="&#x421;" horiz-adv-x="1353" 
d="M119 737q0 352 170 534.5t467 182.5h4q170 0 292.5 -45t221.5 -133l-82 -115q-176 152 -424 152h-4q-228 0 -352.5 -146.5t-124.5 -433.5v-33q0 -287 124.5 -433t352.5 -146h4q249 0 424 151l82 -114q-99 -88 -221.5 -133t-292.5 -45h-4q-297 0 -467 182t-170 534v41z
" />
    <glyph glyph-name="uni0422" unicode="&#x422;" horiz-adv-x="1236" 
d="M700 1292v-1292h-163v1292h-486v142h1135v-142h-486z" />
    <glyph glyph-name="uni0423" unicode="&#x423;" horiz-adv-x="1349" 
d="M35 1434h170l467 -981h10l465 981h168l-481 -1004q-66 -139 -127 -227t-130 -137t-139 -66.5t-168 -17.5h-4q-103 0 -225 26l27 137q113 -24 196 -24h4q110 0 182 32.5t136 125.5z" />
    <glyph glyph-name="uni0424" unicode="&#x424;" horiz-adv-x="1695" 
d="M766 0v84q-309 19 -478 178.5t-169 433.5v41q0 275 169 434.5t478 178.5v84h164v-84q308 -19 477.5 -178.5t169.5 -434.5v-41q0 -273 -169.5 -433t-477.5 -179v-84h-164zM287 700q0 -216 124.5 -337t354.5 -140v987q-229 -19 -354 -139.5t-125 -335.5v-35zM930 223
q230 19 354.5 140t124.5 337v35q0 215 -125 335.5t-354 139.5v-987z" />
    <glyph glyph-name="uni0425" unicode="&#x425;" horiz-adv-x="1298" 
d="M1071 0l-424 606h-10l-430 -606h-172l514 748l-481 686h192l393 -555h11l391 555h176l-479 -697l512 -737h-193z" />
    <glyph glyph-name="uni0426" unicode="&#x426;" horiz-adv-x="1492" 
d="M160 0v1434h164v-1293h766v1293h163v-1293h205v-448h-143v307h-1155z" />
    <glyph glyph-name="uni0427" unicode="&#x427;" horiz-adv-x="1320" 
d="M997 0v621q-126 -144 -376 -144h-5q-248 0 -376.5 129.5t-128.5 384.5v443h163v-443q0 -188 89 -280.5t270 -92.5h4q182 0 271 92.5t89 280.5v443h164v-1434h-164z" />
    <glyph glyph-name="uni0428" unicode="&#x428;" horiz-adv-x="1988" 
d="M1829 0h-1669v1434h164v-1293h589v1293h164v-1293h588v1293h164v-1434z" />
    <glyph glyph-name="uni0429" unicode="&#x429;" horiz-adv-x="2068" 
d="M160 0v1434h164v-1293h589v1293h164v-1293h588v1293h164v-1293h205v-448h-144v307h-1730z" />
    <glyph glyph-name="uni042A" unicode="&#x42a;" horiz-adv-x="1611" 
d="M659 1434v-609h420q215 0 336 -108t121 -297v-12q0 -191 -121 -299.5t-336 -108.5h-583v1292h-445v142h608zM659 141h410q142 0 220.5 69t78.5 200v6q0 132 -78 201t-221 69h-410v-545z" />
    <glyph glyph-name="uni042B" unicode="&#x42b;" horiz-adv-x="1693" 
d="M160 1434h164v-609h419q215 0 337 -108t122 -297v-12q0 -191 -122 -299.5t-337 -108.5h-583v1434zM324 141h409q143 0 222 69t79 200v6q0 132 -79 201t-222 69h-409v-545zM1368 0v1434h164v-1434h-164z" />
    <glyph glyph-name="uni042C" unicode="&#x42c;" horiz-adv-x="1277" 
d="M160 1434h164v-609h419q215 0 337 -108t122 -297v-12q0 -191 -122 -299.5t-337 -108.5h-583v1434zM324 141h409q143 0 222 69t79 200v6q0 132 -79 201t-222 69h-409v-545z" />
    <glyph glyph-name="uni042D" unicode="&#x42d;" horiz-adv-x="1353" 
d="M1235 696q0 -352 -170 -534t-467 -182h-4q-170 0 -292.5 45t-221.5 133l82 114q175 -151 424 -151h4q220 0 344 136.5t133 404.5h-629v141h627q-15 253 -138 381.5t-337 128.5h-4q-248 0 -424 -152l-82 115q99 88 221.5 133t292.5 45h4q297 0 467 -182.5t170 -534.5v-41z
" />
    <glyph glyph-name="uni042E" unicode="&#x42e;" horiz-adv-x="1886" 
d="M160 0v1434h164v-631h192q15 322 180 486.5t443 164.5h4q292 0 457 -181t165 -536v-41q0 -355 -165 -535.5t-457 -180.5h-4q-286 0 -451 172t-174 510h-190v-662h-164zM682 700q0 -299 120 -439t337 -140h4q217 0 336.5 140t119.5 439v33q0 299 -119.5 439.5
t-336.5 140.5h-4q-217 0 -337 -140.5t-120 -439.5v-33z" />
    <glyph glyph-name="uni042F" unicode="&#x42f;" horiz-adv-x="1323" 
d="M1163 0h-164v612h-350q-282 -282 -432 -612h-174q175 387 426 633v10q-156 29 -239 125.5t-83 251.5v12q0 186 120 294t333 108h563v-1434zM315 1020q0 -128 78.5 -197t220.5 -69h385v540h-385q-142 0 -220.5 -69.5t-78.5 -198.5v-6z" />
    <glyph glyph-name="uni0430" unicode="&#x430;" horiz-adv-x="1171" 
d="M582 1044q227 0 337.5 -87t110.5 -267v-690h-158v195h-10q-95 -215 -377 -215h-4q-182 0 -282.5 82t-100.5 219v20q0 141 116.5 224t330.5 83h327v88q0 111 -70 166.5t-235 55.5h-4q-198 0 -362 -82l-45 118q188 90 422 90h4zM260 291q0 -86 69.5 -135.5t202.5 -49.5h5
q166 0 250.5 93.5t84.5 240.5v43h-311q-143 0 -222 -45.5t-79 -132.5v-14z" />
    <glyph glyph-name="uni0431" unicode="&#x431;" horiz-adv-x="1210" 
d="M950 481q0 169 -89.5 262t-248.5 93h-4q-159 0 -253.5 -86t-94.5 -269v-20q0 -179 92.5 -267t251.5 -88h4q158 0 250 88.5t92 266.5v20zM98 498v20q0 140 13 246.5t43 188t70.5 139t104 101.5t135 73.5t171.5 56.5q33 10 111.5 29.5t136.5 37.5t112 44l25 -129
q-54 -25 -112 -42.5t-139 -37t-112 -27.5q-136 -38 -213.5 -88.5t-121.5 -137t-62 -229.5h8q48 103 144 161.5t241 58.5h4q214 0 333.5 -124.5t119.5 -351.5v-20q0 -227 -129.5 -357t-366.5 -130h-4q-250 0 -381 138.5t-131 379.5z" />
    <glyph glyph-name="uni0432" unicode="&#x432;" horiz-adv-x="1179" 
d="M889 528q92 -22 142 -84.5t50 -160.5v-11q0 -131 -85 -201.5t-240 -70.5h-617v1024h566q154 0 239.5 -67t85.5 -193v-8q0 -81 -37.5 -137.5t-103.5 -81.5v-9zM297 127h434q91 0 140 41t49 123v6q0 82 -49 123t-140 41h-434v-334zM297 586h412q79 0 122 37.5t43 113.5v6
q0 78 -49.5 117t-140.5 39h-387v-313z" />
    <glyph glyph-name="uni0433" unicode="&#x433;" horiz-adv-x="937" 
d="M297 897v-897h-158v1024h772v-127h-614z" />
    <glyph glyph-name="uni0434" unicode="&#x434;" horiz-adv-x="1372" 
d="M1174 1024v-897h163v-434h-143v307h-1020v-307h-143v434h43q58 0 96 17.5t59.5 56.5t30.5 87t12 122l27 614h875zM338 127h678v770h-563l-23 -489q-10 -201 -92 -281z" />
    <glyph glyph-name="uni0435" unicode="&#x435;" horiz-adv-x="1189" 
d="M651 106q209 0 361 91l47 -117q-165 -100 -428 -100h-4q-247 0 -388 132.5t-141 379.5v40q0 247 133.5 379.5t368.5 132.5h4q123 0 217 -39t152.5 -109.5t87.5 -164t29 -207.5v-67h-828q19 -351 385 -351h4zM262 582h668q0 68 -18.5 127t-56.5 106.5t-102.5 75
t-148.5 27.5h-4q-157 0 -242 -86.5t-96 -249.5z" />
    <glyph glyph-name="uni0436" unicode="&#x436;" horiz-adv-x="1673" 
d="M915 0h-157v360q-110 69 -187 127l-364 -487h-172l418 582q-218 191 -377 442h168q195 -300 504 -489h10v489h157v-489h11q309 189 504 489h169q-168 -261 -378 -442l419 -582h-174l-362 487q-68 -52 -189 -127v-360z" />
    <glyph glyph-name="uni0437" unicode="&#x437;" horiz-adv-x="1075" 
d="M367 586v-127h225q102 0 163.5 -40.5t61.5 -121.5v-4q0 -90 -73 -138.5t-222 -48.5h-6q-251 0 -385 138l-68 -105q152 -159 476 -159h4q212 0 323 77.5t111 214.5v11q0 99 -59 160t-154 83v9q73 26 118.5 84.5t45.5 138.5v10q0 130 -111.5 203t-304.5 73h-4
q-147 0 -261 -42.5t-184 -116.5l68 -105q134 138 361 138h4q136 0 205 -45t69 -130v-6q0 -75 -54.5 -113t-142.5 -38h-206z" />
    <glyph glyph-name="uni0438" unicode="&#x438;" 
d="M297 0h-158v1024h158v-791h10l617 791h157v-1024h-157v791h-11z" />
    <glyph glyph-name="uni0439" unicode="&#x439;" 
d="M297 0h-158v1024h158v-791h10l617 791h157v-1024h-157v791h-11zM358 1399h101q0 -63 44 -97t122 -34q79 0 123.5 34.5t44.5 96.5h100q0 -100 -75.5 -162.5t-192.5 -62.5q-115 0 -191 62.5t-76 162.5z" />
    <glyph glyph-name="uni043A" unicode="&#x43a;" horiz-adv-x="1132" 
d="M295 0h-158v1024h158v-539h10q173 94 322.5 231t261.5 308h170q-164 -256 -379 -440l420 -584h-174l-365 489q-111 -83 -266 -170v-319z" />
    <glyph glyph-name="uni043B" unicode="&#x43b;" horiz-adv-x="1269" 
d="M1130 1024v-1024h-157v897h-563l-25 -494q-5 -111 -21.5 -184t-54.5 -128.5t-102.5 -82t-161.5 -28.5l-14 133q58 0 96 18.5t59.5 59.5t30.5 91.5t12 127.5l27 614h874z" />
    <glyph glyph-name="uni043C" unicode="&#x43c;" horiz-adv-x="1349" 
d="M139 0v1024h164l367 -520h10l367 520h163v-1024h-153v782h-10l-314 -432h-117l-313 432h-10v-782h-154z" />
    <glyph glyph-name="uni043D" unicode="&#x43d;" 
d="M1081 1024v-1024h-157v457h-627v-457h-158v1024h158v-440h627v440h157z" />
    <glyph glyph-name="uni043E" unicode="&#x43e;" horiz-adv-x="1210" 
d="M602 -20q-236 0 -370 132t-134 380v40q0 248 134 380t370 132h4q237 0 370.5 -132t133.5 -380v-40q0 -248 -133.5 -380t-370.5 -132h-4zM260 496q0 -192 86.5 -291t255.5 -99h4q170 0 257 99t87 291v32q0 192 -87 291t-257 99h-4q-169 0 -255.5 -99t-86.5 -291v-32z" />
    <glyph glyph-name="uni043F" unicode="&#x43f;" 
d="M297 897v-897h-158v1024h942v-1024h-157v897h-627z" />
    <glyph glyph-name="uni0440" unicode="&#x440;" horiz-adv-x="1247" 
d="M139 -410v1434h158v-203h10q48 108 143.5 165.5t233.5 57.5h4q216 0 338.5 -132t122.5 -380v-40q0 -248 -122.5 -380t-338.5 -132h-4q-138 0 -233.5 57.5t-143.5 165.5h-10v-613h-158zM297 496q0 -190 90 -290t254 -100h4q166 0 254 99.5t88 290.5v32q0 191 -88 290.5
t-254 99.5h-4q-164 0 -254 -100t-90 -290v-32z" />
    <glyph glyph-name="uni0441" unicode="&#x441;" horiz-adv-x="1089" 
d="M618 106q209 0 340 138l70 -105q-152 -159 -418 -159h-4q-237 0 -372.5 132t-135.5 380v40q0 248 135.5 380t372.5 132h4q266 0 418 -159l-70 -103q-132 136 -340 136h-4q-175 0 -264.5 -99t-89.5 -291v-32q0 -192 89.5 -291t264.5 -99h4z" />
    <glyph glyph-name="uni0442" unicode="&#x442;" horiz-adv-x="960" 
d="M559 897v-897h-158v897h-381v127h920v-127h-381z" />
    <glyph glyph-name="uni0443" unicode="&#x443;" horiz-adv-x="1120" 
d="M20 1024h164l381 -883h10l367 883h158l-500 -1200q-53 -130 -138.5 -191t-232.5 -61h-4q-118 0 -209 25l29 124q70 -22 172 -22h4q98 0 152 37t84 108l61 156h-57z" />
    <glyph glyph-name="uni0444" unicode="&#x444;" horiz-adv-x="1499" 
d="M682 -410v392q-276 12 -430 141t-154 369v40q0 240 154 369t430 141v392h135v-392q274 -12 428 -141t154 -369v-40q0 -240 -154 -369t-428 -141v-392h-135zM260 496q0 -184 110.5 -279.5t311.5 -107.5v806q-201 -12 -311.5 -107.5t-110.5 -279.5v-32zM817 109
q201 12 311.5 107.5t110.5 279.5v32q0 184 -110.5 279.5t-311.5 107.5v-806z" />
    <glyph glyph-name="uni0445" unicode="&#x445;" horiz-adv-x="1067" 
d="M850 0l-318 408h-10l-315 -408h-172l399 537l-371 487h185l289 -377h10l284 377h173l-371 -504l399 -520h-182z" />
    <glyph glyph-name="uni0446" unicode="&#x446;" horiz-adv-x="1280" 
d="M297 127h627v897h157v-897h164v-434h-143v307h-963v1024h158v-897z" />
    <glyph glyph-name="uni0447" unicode="&#x447;" 
d="M600 489q160 0 242 93.5t82 259.5v182h157v-1024h-157v578h-11q-98 -216 -370 -216h-4q-181 0 -290.5 97.5t-109.5 283.5v281h158v-260q0 -137 81 -206t218 -69h4z" />
    <glyph glyph-name="uni0448" unicode="&#x448;" horiz-adv-x="1761" 
d="M958 127h506v897h158v-1024h-1483v1024h158v-897h506v897h155v-897z" />
    <glyph glyph-name="uni0449" unicode="&#x449;" horiz-adv-x="1818" 
d="M958 127h506v897h158v-897h164v-434h-144v307h-1503v1024h158v-897h506v897h155v-897z" />
    <glyph glyph-name="uni044A" unicode="&#x44a;" horiz-adv-x="1226" 
d="M406 1024v-358h350q184 0 290.5 -84.5t106.5 -243.5v-12q0 -160 -106 -243t-291 -83h-508v897h-228v127h386zM406 127h339q246 0 246 201v6q0 105 -65.5 155t-180.5 50h-339v-412z" />
    <glyph glyph-name="uni044B" unicode="&#x44b;" horiz-adv-x="1484" 
d="M139 1024h158v-358h350q184 0 290.5 -84.5t106.5 -243.5v-12q0 -160 -106 -243t-291 -83h-508v1024zM297 127h340q246 0 246 201v6q0 105 -65.5 155t-180.5 50h-340v-412zM1188 0v1024h158v-1024h-158z" />
    <glyph glyph-name="uni044C" unicode="&#x44c;" horiz-adv-x="1118" 
d="M139 1024h158v-358h350q184 0 290.5 -84.5t106.5 -243.5v-12q0 -160 -106 -243t-291 -83h-508v1024zM297 127h340q246 0 246 201v6q0 105 -65.5 155t-180.5 50h-340v-412z" />
    <glyph glyph-name="uni044D" unicode="&#x44d;" horiz-adv-x="1089" 
d="M475 106q164 0 253.5 87.5t98.5 257.5h-469v127h469q-11 167 -100 253.5t-252 86.5h-4q-208 0 -340 -136l-70 103q152 159 418 159h4q237 0 372.5 -132t135.5 -380v-40q0 -248 -135.5 -380t-372.5 -132h-4q-266 0 -418 159l70 105q131 -138 340 -138h4z" />
    <glyph glyph-name="uni044E" unicode="&#x44e;" horiz-adv-x="1579" 
d="M297 0h-158v1024h158v-461h170q9 233 142.5 357t361.5 124h4q237 0 370.5 -132t133.5 -380v-40q0 -248 -133.5 -380t-370.5 -132h-4q-228 0 -361 122.5t-143 354.5h-170v-457zM629 496q0 -192 86.5 -291t255.5 -99h4q170 0 257 99t87 291v32q0 192 -87 291t-257 99h-4
q-169 0 -255.5 -99t-86.5 -291v-32z" />
    <glyph glyph-name="uni044F" unicode="&#x44f;" horiz-adv-x="1157" 
d="M1016 0h-158v414h-330q-200 -190 -315 -414h-170q129 250 317 428v8q-114 21 -178.5 94t-64.5 193v8q0 140 92.5 216.5t249.5 76.5h557v-1024zM276 717q0 -89 56 -133.5t153 -44.5h373v360h-373q-97 0 -153 -44.5t-56 -133.5v-4z" />
    <glyph glyph-name="uni0450" unicode="&#x450;" horiz-adv-x="1189" 
d="M651 106q209 0 361 91l47 -117q-165 -100 -428 -100h-4q-247 0 -388 132.5t-141 379.5v40q0 247 133.5 379.5t368.5 132.5h4q123 0 217 -39t152.5 -109.5t87.5 -164t29 -207.5v-67h-828q19 -351 385 -351h4zM262 582h668q0 68 -18.5 127t-56.5 106.5t-102.5 75
t-148.5 27.5h-4q-157 0 -242 -86.5t-96 -249.5zM379 1309l39 116l401 -165l-31 -86z" />
    <glyph glyph-name="uni0451" unicode="&#x451;" horiz-adv-x="1189" 
d="M651 106q209 0 361 91l47 -117q-165 -100 -428 -100h-4q-247 0 -388 132.5t-141 379.5v40q0 247 133.5 379.5t368.5 132.5h4q123 0 217 -39t152.5 -109.5t87.5 -164t29 -207.5v-67h-828q19 -351 385 -351h4zM262 582h668q0 68 -18.5 127t-56.5 106.5t-102.5 75
t-148.5 27.5h-4q-157 0 -242 -86.5t-96 -249.5zM336 1274q0 41 28.5 69.5t69.5 28.5q43 0 72 -28.5t29 -69.5q0 -43 -29 -71.5t-72 -28.5q-41 0 -69.5 28.5t-28.5 71.5zM664 1274q0 41 28.5 69.5t69.5 28.5q43 0 71.5 -28.5t28.5 -69.5q0 -43 -28.5 -71.5t-71.5 -28.5
q-41 0 -69.5 28.5t-28.5 71.5z" />
    <glyph glyph-name="uni0452" unicode="&#x452;" horiz-adv-x="1185" 
d="M35 1161v107h104v166h158v-166h389v-107h-389v-332h10q19 40 43.5 72.5t67 67.5t109.5 55t153 20h4q188 0 294.5 -127t106.5 -407v-27q0 -282 -88 -434.5t-303 -218.5l-71 127q167 40 235 159t68 367v27q0 408 -299 408h-4q-160 0 -243 -94t-83 -261v-563h-158v1161h-104
z" />
    <glyph glyph-name="uni0453" unicode="&#x453;" horiz-adv-x="937" 
d="M297 897v-897h-158v1024h772v-127h-614zM319 1260l402 165l39 -116l-410 -135z" />
    <glyph glyph-name="uni0454" unicode="&#x454;" horiz-adv-x="1089" 
d="M618 106q209 0 340 138l70 -105q-152 -159 -418 -159h-4q-237 0 -372.5 132t-135.5 380v40q0 248 135.5 380t372.5 132h4q266 0 418 -159l-70 -103q-132 136 -340 136h-4q-163 0 -252 -86.5t-100 -253.5h469v-127h-469q9 -170 98.5 -257.5t253.5 -87.5h4z" />
    <glyph glyph-name="uni0455" unicode="&#x455;" horiz-adv-x="1011" 
d="M512 1044q227 0 416 -92l-49 -118q-173 84 -357 84h-4q-256 0 -256 -150v-14q0 -41 29.5 -70t77.5 -44t109.5 -29t125.5 -25t125.5 -33.5t109.5 -52t77.5 -83t29.5 -124.5v-21q0 -141 -113 -216.5t-323 -75.5h-4q-133 0 -249 25.5t-191 66.5l45 118q65 -32 175.5 -58
t213.5 -26h4q144 0 213 40t69 122v15q0 52 -37.5 85.5t-98 50.5t-133.5 30.5t-146 32.5t-133.5 47.5t-98 84t-37.5 134.5v20q0 132 107.5 204t298.5 72h4z" />
    <glyph glyph-name="uni0456" unicode="&#x456;" horiz-adv-x="436" 
d="M297 0h-158v1024h158v-1024zM106 1280q0 47 32.5 76.5t80.5 29.5q47 0 80 -30t33 -76t-33 -76t-80 -30q-48 0 -80.5 29.5t-32.5 76.5z" />
    <glyph glyph-name="uni0457" unicode="&#x457;" horiz-adv-x="436" 
d="M297 0h-158v1024h158v-1024zM-45 1274q0 41 28.5 69.5t69.5 28.5q43 0 72 -28.5t29 -69.5q0 -43 -29 -71.5t-72 -28.5q-41 0 -69.5 28.5t-28.5 71.5zM283 1274q0 41 28.5 69.5t69.5 28.5q43 0 71.5 -28.5t28.5 -69.5q0 -43 -28.5 -71.5t-71.5 -28.5q-41 0 -69.5 28.5
t-28.5 71.5z" />
    <glyph glyph-name="uni0458" unicode="&#x458;" horiz-adv-x="436" 
d="M219 1174q-48 0 -80.5 29.5t-32.5 76.5t32.5 76.5t80.5 29.5q47 0 80 -30t33 -76t-33 -76t-80 -30zM-221 -393l28 123q79 -31 162 -31h4q89 0 127.5 38t38.5 109v1178h158v-1196q0 -122 -76 -189t-223 -67h-4q-125 0 -215 35z" />
    <glyph glyph-name="uni0459" unicode="&#x459;" horiz-adv-x="1894" 
d="M1083 1024v-358h342q183 0 289.5 -84.5t106.5 -243.5v-12q0 -160 -106 -243t-290 -83h-499v897h-516l-25 -494q-5 -111 -21.5 -184t-54.5 -128.5t-102.5 -82t-161.5 -28.5l-14 133q58 0 96 18.5t59.5 59.5t30.5 91.5t12 127.5l27 614h827zM1083 127h332q246 0 246 201v6
q0 105 -65.5 155t-180.5 50h-332v-412z" />
    <glyph glyph-name="uni045A" unicode="&#x45a;" horiz-adv-x="1902" 
d="M297 1024v-408h627v408h157v-387h351q187 0 292 -77t105 -236v-13q0 -159 -104.5 -235t-292.5 -76h-508v489h-627v-489h-158v1024h158zM1081 127h340q119 0 182.5 42t63.5 144v9q0 102 -64 145t-182 43h-340v-383z" />
    <glyph glyph-name="uni045B" unicode="&#x45b;" 
d="M35 1161v107h104v166h158v-166h389v-107h-389v-332h10q19 40 43.5 72.5t67 67.5t109.5 55t153 20h4q181 0 289 -97t108 -285v-662h-157v641q0 137 -81 207t-216 70h-4q-160 0 -243 -94t-83 -261v-563h-158v1161h-104z" />
    <glyph glyph-name="uni045C" unicode="&#x45c;" horiz-adv-x="1132" 
d="M295 0h-158v1024h158v-539h10q173 94 322.5 231t261.5 308h170q-164 -256 -379 -440l420 -584h-174l-365 489q-111 -83 -266 -170v-319zM346 1260l402 165l38 -116l-409 -135z" />
    <glyph glyph-name="uni045D" unicode="&#x45d;" 
d="M297 0h-158v1024h158v-791h10l617 791h157v-1024h-157v791h-11zM391 1309l39 116l401 -165l-30 -86z" />
    <glyph glyph-name="uni045E" unicode="&#x45e;" horiz-adv-x="1120" 
d="M20 1024h164l381 -883h10l367 883h158l-500 -1200q-53 -130 -138.5 -191t-232.5 -61h-4q-118 0 -209 25l29 124q70 -22 172 -22h4q98 0 152 37t84 108l61 156h-57zM307 1399h101q0 -63 43.5 -97t121.5 -34q79 0 123.5 34.5t44.5 96.5h101q0 -100 -76 -162.5t-193 -62.5
q-115 0 -190.5 62.5t-75.5 162.5z" />
    <glyph glyph-name="uni045F" unicode="&#x45f;" 
d="M297 127h627v897h157v-1024h-399v-307h-143v307h-400v1024h158v-897z" />
    <glyph glyph-name="uni0462" unicode="&#x462;" horiz-adv-x="1277" 
d="M35 1083v107h125v244h164v-244h426v-107h-426v-258h419q215 0 337 -108t122 -297v-12q0 -191 -122 -299.5t-337 -108.5h-583v1083h-125zM324 141h409q143 0 222 69t79 200v6q0 132 -79 201t-222 69h-409v-545z" />
    <glyph glyph-name="uni0463" unicode="&#x463;" horiz-adv-x="1118" 
d="M139 1434h158v-351h389v-106h-389v-311h350q184 0 290.5 -84.5t106.5 -243.5v-12q0 -160 -106 -243t-291 -83h-508v977h-104v106h104v351zM297 127h340q246 0 246 201v6q0 105 -65.5 155t-180.5 50h-340v-412z" />
    <glyph glyph-name="uni0472" unicode="&#x472;" horiz-adv-x="1490" 
d="M743 -20q-293 0 -458.5 180.5t-165.5 535.5v41q0 355 166 536t458 181h5q292 0 457 -181t165 -536v-41q0 -355 -165 -535.5t-457 -180.5h-5zM287 668q7 -281 126.5 -414t329.5 -133h5q204 0 322.5 124t131.5 386q-84 -22 -183 -19.5t-183 20.5t-183 34t-183 20.5
t-183 -18.5zM289 795q84 21 183 18t183 -20.5t183 -33.5t183 -20.5t183 19.5q-6 286 -125 420.5t-331 134.5h-5q-205 0 -323.5 -125.5t-130.5 -392.5z" />
    <glyph glyph-name="uni0473" unicode="&#x473;" horiz-adv-x="1210" 
d="M602 -20q-236 0 -370 132t-134 380v40q0 248 134 380t370 132h4q237 0 370.5 -132t133.5 -380v-40q0 -248 -133.5 -380t-370.5 -132h-4zM260 475q4 -183 91 -276t251 -93h4q158 0 244 84.5t98 249.5q-76 -14 -171.5 -6.5t-172.5 23.5t-172.5 23.5t-171.5 -5.5zM262 582
q76 12 172 4t172 -23t172 -22.5t172 6.5q-5 183 -91.5 277t-252.5 94h-4q-157 0 -243.5 -85t-96.5 -251z" />
    <glyph glyph-name="uni0474" unicode="&#x474;" horiz-adv-x="1404" 
d="M559 0l-524 1434h168l465 -1282h10l291 784q20 61 34.5 101t34 90t35.5 82.5t38 69.5t43.5 60.5t49 47t57.5 36.5t66 21.5t78 9.5l14 -147q-45 0 -84 -23.5t-64 -50.5t-56 -90t-44.5 -98.5t-43.5 -118.5q-5 -13 -7 -19l-332 -907h-229z" />
    <glyph glyph-name="uni0475" unicode="&#x475;" horiz-adv-x="1179" 
d="M453 0l-433 1024h164l369 -883h10l240 564q27 69 46.5 113.5t43.5 85.5t46.5 64t54 41.5t68 25.5t85.5 9l12 -133q-67 0 -109.5 -43.5t-95.5 -171.5l-288 -696h-213z" />
    <glyph glyph-name="uni0490" unicode="&#x490;" horiz-adv-x="1128" 
d="M324 0h-164v1434h774v307h143v-449h-753v-1292z" />
    <glyph glyph-name="uni0491" unicode="&#x491;" horiz-adv-x="937" 
d="M297 897v-897h-158v1024h629v307h143v-434h-614z" />
    <glyph glyph-name="uni0492" unicode="&#x492;" horiz-adv-x="1128" 
d="M35 655v107h125v672h917v-142h-753v-530h426v-107h-426v-655h-164v655h-125z" />
    <glyph glyph-name="uni0493" unicode="&#x493;" horiz-adv-x="937" 
d="M35 395v107h104v522h772v-127h-614v-395h389v-107h-389v-395h-158v395h-104z" />
    <glyph glyph-name="uni0496" unicode="&#x496;" horiz-adv-x="2009" 
d="M1976 141v-448h-143v307h-131l-471 659q-100 -89 -187 -157v-502h-163v500q-86 66 -189 159l-471 -659h-186l538 774q-287 293 -510 660h183q267 -429 624 -717h11v717h163v-717h11q363 295 622 717h185q-233 -377 -512 -658l442 -635h184z" />
    <glyph glyph-name="uni0497" unicode="&#x497;" horiz-adv-x="1714" 
d="M1694 127v-434h-144v307h-84l-362 487q-68 -52 -189 -127v-360h-157v360q-110 69 -187 127l-364 -487h-172l418 582q-218 191 -377 442h168q195 -300 504 -489h10v489h157v-489h11q309 189 504 489h169q-168 -261 -378 -442l327 -455h146z" />
    <glyph glyph-name="uni049A" unicode="&#x49a;" horiz-adv-x="1404" 
d="M1372 141v-448h-143v307h-135l-473 662q-144 -131 -297 -244v-418h-164v1434h164v-805h10q434 315 735 805h182q-238 -384 -512 -658l443 -635h190z" />
    <glyph glyph-name="uni049B" unicode="&#x49b;" horiz-adv-x="1173" 
d="M1153 127v-434h-143v307h-84l-365 489q-111 -83 -266 -170v-319h-158v1024h158v-539h10q173 94 322.5 231t261.5 308h170q-164 -256 -379 -440l328 -457h145z" />
    <glyph glyph-name="uni04A2" unicode="&#x4a2;" horiz-adv-x="1492" 
d="M1458 141v-448h-143v307h-225v662h-766v-662h-164v1434h164v-631h766v631h163v-1293h205z" />
    <glyph glyph-name="uni04A3" unicode="&#x4a3;" horiz-adv-x="1280" 
d="M1245 127v-434h-143v307h-178v457h-627v-457h-158v1024h158v-440h627v440h157v-897h164z" />
    <glyph glyph-name="uni04AE" unicode="&#x4ae;" horiz-adv-x="1349" 
d="M668 700h10l465 734h172l-559 -908v-526h-164v526l-557 908h174z" />
    <glyph glyph-name="uni04AF" unicode="&#x4af;" horiz-adv-x="1120" 
d="M481 -410v379l-461 1055h164l369 -862h10l373 862h164l-463 -1065v-369h-156z" />
    <glyph glyph-name="uni04B0" unicode="&#x4b0;" horiz-adv-x="1349" 
d="M254 504v106h287l-506 824h174l459 -734h10l465 734h172l-508 -824h287v-106h-338v-504h-164v504h-338z" />
    <glyph glyph-name="uni04B1" unicode="&#x4b1;" horiz-adv-x="1120" 
d="M172 -92v106h289l-441 1010h164l369 -862h10l373 862h164l-438 -1010h266v-106h-291v-318h-156v318h-309z" />
    <glyph glyph-name="uni04B2" unicode="&#x4b2;" horiz-adv-x="1384" 
d="M1350 141v-448h-144v307h-135l-424 606h-10l-430 -606h-172l514 748l-481 686h192l393 -555h11l391 555h176l-479 -697l413 -596h185z" />
    <glyph glyph-name="uni04B3" unicode="&#x4b3;" horiz-adv-x="1107" 
d="M1087 127v-434h-143v307h-94l-318 408h-10l-315 -408h-172l399 537l-371 487h185l289 -377h10l284 377h173l-371 -504l303 -393h151z" />
    <glyph glyph-name="uni04B6" unicode="&#x4b6;" horiz-adv-x="1398" 
d="M1366 141v-448h-143v307h-226v621q-126 -144 -376 -144h-5q-248 0 -376.5 129.5t-128.5 384.5v443h163v-443q0 -188 89 -280.5t270 -92.5h4q182 0 271 92.5t89 280.5v443h164v-1293h205z" />
    <glyph glyph-name="uni04B7" unicode="&#x4b7;" horiz-adv-x="1280" 
d="M1245 127v-434h-143v307h-178v578h-11q-98 -216 -370 -216h-4q-181 0 -290.5 97.5t-109.5 283.5v281h158v-260q0 -137 81 -206t218 -69h4q160 0 242 93.5t82 259.5v182h157v-897h164z" />
    <glyph glyph-name="uni04BA" unicode="&#x4ba;" horiz-adv-x="1314" 
d="M324 1434v-656q126 144 376 144h5q248 0 376.5 -129.5t128.5 -384.5v-408h-163v408q0 189 -88.5 280.5t-270.5 91.5h-4q-183 0 -271.5 -91.5t-88.5 -280.5v-408h-164v1434h164z" />
    <glyph glyph-name="uni04BB" unicode="&#x4bb;" 
d="M623 918q-160 0 -243 -94t-83 -261v-563h-158v1434h158v-605h10q19 40 43.5 72.5t67 67.5t109.5 55t153 20h4q181 0 289 -97t108 -285v-662h-157v641q0 137 -81 207t-216 70h-4z" />
    <glyph glyph-name="uni04C0" unicode="&#x4c0;" horiz-adv-x="485" 
d="M160 0v1434h164v-1434h-164z" />
    <glyph glyph-name="uni04CF" unicode="&#x4cf;" horiz-adv-x="436" 
d="M139 0v1434h158v-1434h-158z" />
    <glyph glyph-name="uni04D8" unicode="&#x4d8;" horiz-adv-x="1495" 
d="M725 121q213 0 338 125t143 372h-923q0 -497 438 -497h4zM119 662v98h1089q-6 272 -136 412.5t-355 140.5h-4q-253 0 -424 -152l-84 115q200 178 514 178h4q301 0 477 -183t176 -534v-41q0 -351 -174 -533.5t-473 -182.5h-4q-104 0 -190.5 22t-148.5 59.5t-109.5 91.5
t-76.5 113t-48 128.5t-26 134t-7 133.5z" />
    <glyph glyph-name="uni04D9" unicode="&#x4d9;" horiz-adv-x="1189" 
d="M539 918q-209 0 -361 -91l-47 117q165 100 428 100h4q247 0 388 -132.5t141 -379.5v-40q0 -247 -133.5 -379.5t-368.5 -132.5h-4q-123 0 -217 39t-152.5 109.5t-87.5 164t-29 207.5v67h828q-19 351 -385 351h-4zM260 442q0 -68 18.5 -127t56.5 -106.5t102.5 -75
t148.5 -27.5h4q157 0 242 86.5t96 249.5h-668z" />
    <glyph glyph-name="uni04E2" unicode="&#x4e2;" horiz-adv-x="1402" 
d="M1241 0h-164v1155h-10l-735 -1155h-172v1434h164v-1155h10l737 1155h170v-1434zM391 1653v94h621v-94h-621z" />
    <glyph glyph-name="uni04E3" unicode="&#x4e3;" 
d="M297 0h-158v1024h158v-791h10l617 791h157v-1024h-157v791h-11zM301 1243v94h621v-94h-621z" />
    <glyph glyph-name="uni04E8" unicode="&#x4e8;" horiz-adv-x="1490" 
d="M743 -20q-293 0 -458.5 180.5t-165.5 535.5v41q0 355 166 536t458 181h5q292 0 457 -181t165 -536v-41q0 -355 -165 -535.5t-457 -180.5h-5zM287 776h917q-9 277 -128 407t-328 130h-5q-209 0 -328 -130t-128 -407zM287 649q12 -273 130.5 -400.5t325.5 -127.5h5
q207 0 325.5 127.5t130.5 400.5h-917z" />
    <glyph glyph-name="uni04E9" unicode="&#x4e9;" horiz-adv-x="1210" 
d="M602 -20q-236 0 -370 132t-134 380v40q0 248 134 380t370 132h4q237 0 370.5 -132t133.5 -380v-40q0 -248 -133.5 -380t-370.5 -132h-4zM260 457q9 -173 95.5 -262t246.5 -89h4q161 0 248 89t96 262h-690zM260 563h690q-8 175 -94.5 265t-249.5 90h-4q-161 0 -247.5 -90
t-94.5 -265z" />
    <glyph glyph-name="uni04EE" unicode="&#x4ee;" horiz-adv-x="1349" 
d="M35 1434h170l467 -981h10l465 981h168l-481 -1004q-66 -139 -127 -227t-130 -137t-139 -66.5t-168 -17.5h-4q-103 0 -225 26l27 137q113 -24 196 -24h4q110 0 182 32.5t136 125.5zM365 1653v94h620v-94h-620z" />
    <glyph glyph-name="uni04EF" unicode="&#x4ef;" horiz-adv-x="1120" 
d="M20 1024h164l381 -883h10l367 883h158l-500 -1200q-53 -130 -138.5 -191t-232.5 -61h-4q-118 0 -209 25l29 124q70 -22 172 -22h4q98 0 152 37t84 108l61 156h-57zM250 1243v94h620v-94h-620z" />
    <glyph glyph-name="uni0E3F" unicode="&#xe3f;" horiz-adv-x="1335" 
d="M594 -205v205h-434v1434h434v204h96v-204q213 -2 332 -95.5t119 -265.5v-12q0 -117 -53 -195t-148 -114v-11q132 -31 204.5 -120.5t72.5 -227.5v-12q0 -183 -121 -282t-338 -99h-68v-205h-96zM324 141h278v525h-278v-525zM324 805h278v489h-278v-489zM682 141h74
q140 0 216.5 66t76.5 192v9q0 126 -76.5 192t-216.5 66h-74v-525zM682 805h43q121 0 186.5 60.5t65.5 178.5v7q0 119 -76.5 181t-216.5 62h-2v-489z" />
    <glyph glyph-name="uni1E04" unicode="&#x1e04;" horiz-adv-x="1329" 
d="M940 741q132 -31 204.5 -120.5t72.5 -227.5v-12q0 -183 -121 -282t-338 -99h-598v1434h524q216 0 336.5 -94t120.5 -267v-12q0 -117 -53 -195t-148 -114v-11zM324 141h432q140 0 216.5 66t76.5 192v9q0 126 -76.5 192t-216.5 66h-432v-525zM324 805h401q121 0 186.5 60.5
t65.5 178.5v7q0 119 -76.5 181t-216.5 62h-360v-489zM555 -270q0 47 32.5 76.5t80.5 29.5t80 -29.5t32 -76.5t-32 -77t-80 -30t-80.5 30t-32.5 77z" />
    <glyph glyph-name="uni1E05" unicode="&#x1e05;" horiz-adv-x="1247" 
d="M139 0v1434h158v-613h10q48 108 143.5 165.5t233.5 57.5h4q216 0 338.5 -132t122.5 -380v-40q0 -248 -122.5 -380t-338.5 -132h-4q-138 0 -233.5 57.5t-143.5 165.5h-10v-203h-158zM297 496q0 -190 90 -290t254 -100h4q166 0 254 99.5t88 290.5v32q0 191 -88 290.5
t-254 99.5h-4q-164 0 -254 -100t-90 -290v-32zM512 -270q0 47 32.5 76.5t80.5 29.5t80 -29.5t32 -76.5t-32 -77t-80 -30t-80.5 30t-32.5 77z" />
    <glyph glyph-name="uni1E0C" unicode="&#x1e0c;" horiz-adv-x="1411" 
d="M682 1292h-358v-1151h358q202 0 322 138t120 421v33q0 283 -120 421t-322 138zM160 0v1434h526q134 0 243.5 -43t190.5 -127.5t125.5 -218.5t44.5 -308v-41q0 -174 -44.5 -308t-125.5 -218t-190.5 -127t-243.5 -43h-526zM565 -270q0 47 32.5 76.5t80.5 29.5t80.5 -29.5
t32.5 -76.5t-32.5 -77t-80.5 -30t-80.5 30t-32.5 77z" />
    <glyph glyph-name="uni1E0D" unicode="&#x1e0d;" horiz-adv-x="1247" 
d="M1108 0h-158v203h-10q-48 -108 -143.5 -165.5t-233.5 -57.5h-4q-216 0 -338.5 132t-122.5 380v40q0 248 122.5 380t338.5 132h4q138 0 233.5 -57.5t143.5 -165.5h10v613h158v-1434zM260 496q0 -191 88 -290.5t254 -99.5h4q164 0 254 100t90 290v32q0 190 -90 290
t-254 100h-4q-166 0 -254 -99.5t-88 -290.5v-32zM512 -270q0 47 32.5 76.5t80.5 29.5t80 -29.5t32 -76.5t-32 -77t-80 -30t-80.5 30t-32.5 77z" />
    <glyph glyph-name="uni1E20" unicode="&#x1e20;" horiz-adv-x="1495" 
d="M774 121q438 0 438 497h-446v142h610v-98q0 -69 -7 -133.5t-26 -134t-48 -128.5t-76.5 -113t-109.5 -91.5t-148.5 -59.5t-190.5 -22h-4q-299 0 -473 182.5t-174 533.5v41q0 351 176 534t477 183h4q314 0 514 -178l-84 -115q-171 152 -424 152h-4q-230 0 -360.5 -147.5
t-130.5 -432.5v-33q0 -287 126.5 -433t356.5 -146h4zM457 1653v94h620v-94h-620z" />
    <glyph glyph-name="uni1E21" unicode="&#x1e21;" horiz-adv-x="1247" 
d="M1108 -27q0 -403 -510 -403h-4q-247 0 -438 76l28 121q174 -70 410 -70h4q81 0 141.5 12.5t110 43t75 85.5t25.5 135v283h-10q-48 -107 -143.5 -164t-233.5 -57h-4q-214 0 -337.5 127.5t-123.5 355.5v41q0 230 123.5 357.5t337.5 127.5h4q138 0 233.5 -57.5t143.5 -165.5
h10v203h158v-1051zM260 522q0 -173 89 -266.5t253 -93.5h4q163 0 253.5 93.5t90.5 266.5v35q0 173 -90.5 267t-253.5 94h-4q-164 0 -253 -94t-89 -267v-35zM313 1243v94h621v-94h-621z" />
    <glyph glyph-name="uni1E24" unicode="&#x1e24;" horiz-adv-x="1413" 
d="M324 803h766v631h163v-1434h-163v662h-766v-662h-164v1434h164v-631zM594 -270q0 47 32.5 76.5t80.5 29.5t80 -29.5t32 -76.5t-32 -77t-80 -30t-80.5 30t-32.5 77z" />
    <glyph glyph-name="uni1E25" unicode="&#x1e25;" 
d="M623 918q-160 0 -243 -94t-83 -261v-563h-158v1434h158v-605h10q19 40 43.5 72.5t67 67.5t109.5 55t153 20h4q181 0 289 -97t108 -285v-662h-157v641q0 137 -81 207t-216 70h-4zM498 -270q0 47 32 76.5t80 29.5t80.5 -29.5t32.5 -76.5t-32.5 -77t-80.5 -30t-80 30t-32 77
z" />
    <glyph glyph-name="uni1E36" unicode="&#x1e36;" horiz-adv-x="1128" 
d="M324 141h753v-141h-917v1434h164v-1293zM506 -270q0 47 32 76.5t80 29.5t80.5 -29.5t32.5 -76.5t-32.5 -77t-80.5 -30t-80 30t-32 77z" />
    <glyph glyph-name="uni1E37" unicode="&#x1e37;" horiz-adv-x="436" 
d="M139 0v1434h158v-1434h-158zM106 -270q0 47 32.5 76.5t80.5 29.5t80.5 -29.5t32.5 -76.5t-32.5 -77t-80.5 -30t-80.5 30t-32.5 77z" />
    <glyph glyph-name="uni1E3E" unicode="&#x1e3e;" horiz-adv-x="1640" 
d="M160 0v1434h166l491 -756h10l488 756h166v-1434h-160v1147h-10l-420 -641h-139l-420 641h-10v-1147h-162zM600 1669l401 166l39 -117l-409 -135z" />
    <glyph glyph-name="uni1E3F" unicode="&#x1e3f;" horiz-adv-x="1896" 
d="M596 918q-143 0 -221 -94.5t-78 -260.5v-563h-158v1024h158v-195h10q16 33 31 57.5t44 56.5t63 52t87.5 34.5t118.5 14.5h4q137 0 229.5 -61.5t125.5 -181.5h10q15 37 30.5 66t45 64t66 58t94 39t126.5 16h4q171 0 271 -97t100 -285v-662h-158v641q0 138 -72.5 207.5
t-197.5 69.5h-4q-143 0 -221 -94.5t-78 -260.5v-563h-156v641q0 138 -72.5 207.5t-197.5 69.5h-4zM729 1260l401 165l39 -116l-409 -135z" />
    <glyph glyph-name="uni1E44" unicode="&#x1e44;" horiz-adv-x="1402" 
d="M160 0v1434h174l737 -1139h10v1139h160v-1434h-174l-735 1139h-10v-1139h-162zM588 1690q0 47 32 76.5t80 29.5t80.5 -29.5t32.5 -76.5t-32.5 -77t-80.5 -30t-80 30t-32 77z" />
    <glyph glyph-name="uni1E45" unicode="&#x1e45;" 
d="M623 918q-160 0 -243 -94t-83 -261v-563h-158v1024h158v-195h10q19 40 43.5 72.5t67 67.5t109.5 55t153 20h4q181 0 289 -97t108 -285v-662h-157v641q0 137 -81 207t-216 70h-4zM498 1280q0 47 32 76.5t80 29.5t80.5 -29.5t32.5 -76.5t-32.5 -76.5t-80.5 -29.5t-80 29.5
t-32 76.5z" />
    <glyph glyph-name="uni1E46" unicode="&#x1e46;" horiz-adv-x="1402" 
d="M160 0v1434h174l737 -1139h10v1139h160v-1434h-174l-735 1139h-10v-1139h-162zM588 -270q0 47 32 76.5t80 29.5t80.5 -29.5t32.5 -76.5t-32.5 -77t-80.5 -30t-80 30t-32 77z" />
    <glyph glyph-name="uni1E47" unicode="&#x1e47;" 
d="M623 918q-160 0 -243 -94t-83 -261v-563h-158v1024h158v-195h10q19 40 43.5 72.5t67 67.5t109.5 55t153 20h4q181 0 289 -97t108 -285v-662h-157v641q0 137 -81 207t-216 70h-4zM498 -270q0 47 32 76.5t80 29.5t80.5 -29.5t32.5 -76.5t-32.5 -77t-80.5 -30t-80 30t-32 77
z" />
    <glyph glyph-name="uni1E62" unicode="&#x1e62;" horiz-adv-x="1228" 
d="M1044 1169q-183 144 -413 144h-4q-94 0 -166.5 -21.5t-120 -73t-47.5 -128.5v-17q0 -56 29.5 -98t79 -68.5t113.5 -47.5t135 -40t142 -39.5t135 -52t113.5 -73t79 -106t29.5 -147.5v-20q0 -137 -71.5 -228.5t-191.5 -132t-286 -40.5h-4q-324 0 -518 137l84 116
q75 -51 190.5 -81.5t241.5 -30.5h4q385 0 385 254v16q0 75 -47.5 127t-123 81.5t-167 53.5t-183 53t-167 69.5t-123 114t-47.5 175.5v20q0 172 136.5 270.5t365.5 98.5h4q283 0 497 -166zM489 -270q0 47 32.5 76.5t80.5 29.5t80.5 -29.5t32.5 -76.5t-32.5 -77t-80.5 -30
t-80.5 30t-32.5 77z" />
    <glyph glyph-name="uni1E63" unicode="&#x1e63;" horiz-adv-x="1011" 
d="M512 1044q227 0 416 -92l-49 -118q-173 84 -357 84h-4q-256 0 -256 -150v-14q0 -41 29.5 -70t77.5 -44t109.5 -29t125.5 -25t125.5 -33.5t109.5 -52t77.5 -83t29.5 -124.5v-21q0 -141 -113 -216.5t-323 -75.5h-4q-133 0 -249 25.5t-191 66.5l45 118q65 -32 175.5 -58
t213.5 -26h4q144 0 213 40t69 122v15q0 52 -37.5 85.5t-98 50.5t-133.5 30.5t-146 32.5t-133.5 47.5t-98 84t-37.5 134.5v20q0 132 107.5 204t298.5 72h4zM391 -270q0 47 32.5 76.5t80.5 29.5t80 -29.5t32 -76.5t-32 -77t-80 -30t-80.5 30t-32.5 77z" />
    <glyph glyph-name="uni1E6C" unicode="&#x1e6c;" horiz-adv-x="1236" 
d="M700 1292v-1292h-163v1292h-486v142h1135v-142h-486zM506 -270q0 47 32 76.5t80 29.5t80.5 -29.5t32.5 -76.5t-32.5 -77t-80.5 -30t-80 30t-32 77z" />
    <glyph glyph-name="uni1E6D" unicode="&#x1e6d;" horiz-adv-x="890" 
d="M20 897v127h248v231l158 50v-281h412v-127h-412v-618q0 -93 51 -133t156 -40h4q113 0 205 39l28 -118q-117 -47 -260 -47h-4q-338 0 -338 284v633h-248zM471 -270q0 47 32.5 76.5t80.5 29.5t80 -29.5t32 -76.5t-32 -77t-80 -30t-80.5 30t-32.5 77z" />
    <glyph glyph-name="Wgrave" unicode="&#x1e80;" horiz-adv-x="2058" 
d="M1511 188l351 1246h163l-409 -1434h-225l-357 1260h-10l-356 -1260h-226l-407 1434h164l350 -1246h10l348 1246h246l348 -1246h10zM809 1718l39 117l401 -166l-30 -86z" />
    <glyph glyph-name="wgrave" unicode="&#x1e81;" horiz-adv-x="1771" 
d="M395 0l-375 1024h162l307 -872h11l280 872h213l279 -872h10l307 872h162l-373 -1024h-204l-283 850h-10l-285 -850h-201zM666 1309l39 116l401 -165l-31 -86z" />
    <glyph glyph-name="Wacute" unicode="&#x1e82;" horiz-adv-x="2058" 
d="M1511 188l351 1246h163l-409 -1434h-225l-357 1260h-10l-356 -1260h-226l-407 1434h164l350 -1246h10l348 1246h246l348 -1246h10zM809 1669l401 166l39 -117l-409 -135z" />
    <glyph glyph-name="wacute" unicode="&#x1e83;" horiz-adv-x="1771" 
d="M395 0l-375 1024h162l307 -872h11l280 872h213l279 -872h10l307 872h162l-373 -1024h-204l-283 850h-10l-285 -850h-201zM666 1260l401 165l39 -116l-410 -135z" />
    <glyph glyph-name="Wdieresis" unicode="&#x1e84;" horiz-adv-x="2058" 
d="M1511 188l351 1246h163l-409 -1434h-225l-357 1260h-10l-356 -1260h-226l-407 1434h164l350 -1246h10l348 1246h246l348 -1246h10zM766 1683q0 41 28.5 70t69.5 29q43 0 72 -29t29 -70q0 -43 -29 -71.5t-72 -28.5q-41 0 -69.5 28.5t-28.5 71.5zM1094 1683q0 41 28.5 70
t69.5 29q42 0 71 -29t29 -70q0 -43 -28.5 -71.5t-71.5 -28.5q-41 0 -69.5 28.5t-28.5 71.5z" />
    <glyph glyph-name="wdieresis" unicode="&#x1e85;" horiz-adv-x="1771" 
d="M395 0l-375 1024h162l307 -872h11l280 872h213l279 -872h10l307 872h162l-373 -1024h-204l-283 850h-10l-285 -850h-201zM623 1274q0 41 28.5 69.5t69.5 28.5q43 0 71.5 -28.5t28.5 -69.5q0 -43 -28.5 -71.5t-71.5 -28.5q-41 0 -69.5 28.5t-28.5 71.5zM950 1274
q0 41 29 69.5t70 28.5q43 0 71.5 -28.5t28.5 -69.5q0 -43 -28.5 -71.5t-71.5 -28.5q-41 0 -70 29t-29 71z" />
    <glyph glyph-name="uni1E92" unicode="&#x1e92;" horiz-adv-x="1198" 
d="M66 0v131l837 1151v10h-817v142h1026v-134l-838 -1148v-11h859v-141h-1067zM487 -270q0 47 32.5 76.5t80.5 29.5t80.5 -29.5t32.5 -76.5t-32.5 -77t-80.5 -30t-80.5 30t-32.5 77z" />
    <glyph glyph-name="uni1E93" unicode="&#x1e93;" horiz-adv-x="1009" 
d="M61 121l660 766v10h-639v127h848v-121l-660 -766v-10h680v-127h-889v121zM393 -270q0 47 32.5 76.5t80.5 29.5t80 -29.5t32 -76.5t-32 -77t-80 -30t-80.5 30t-32.5 77z" />
    <glyph glyph-name="uni1E9E" unicode="&#x1e9e;" horiz-adv-x="1335" 
d="M1139 1434v-138l-348 -475q116 -9 200.5 -44.5t132.5 -91.5t70.5 -121.5t22.5 -143.5v-12q0 -197 -128.5 -302.5t-357.5 -105.5h-178v137h178q154 0 238 69.5t84 203.5v6q0 133 -84 202.5t-238 69.5h-119v137l330 457v10h-381q-119 0 -178 -60t-59 -167v-1065h-164v1079
q0 168 106 261.5t295 93.5h578z" />
    <glyph glyph-name="uni1EA0" unicode="&#x1ea0;" horiz-adv-x="1349" 
d="M395 539h559l-272 743h-10zM35 0l526 1434h230l524 -1434h-168l-143 403h-658l-143 -403h-168zM563 -270q0 47 32.5 76.5t80.5 29.5t80 -29.5t32 -76.5t-32 -77t-80 -30t-80.5 30t-32.5 77z" />
    <glyph glyph-name="uni1EA1" unicode="&#x1ea1;" horiz-adv-x="1171" 
d="M582 1044q227 0 337.5 -87t110.5 -267v-690h-158v195h-10q-95 -215 -377 -215h-4q-182 0 -282.5 82t-100.5 219v20q0 141 116.5 224t330.5 83h327v88q0 111 -70 166.5t-235 55.5h-4q-198 0 -362 -82l-45 118q188 90 422 90h4zM260 291q0 -86 69.5 -135.5t202.5 -49.5h5
q166 0 250.5 93.5t84.5 240.5v43h-311q-143 0 -222 -45.5t-79 -132.5v-14zM473 -270q0 47 32.5 76.5t80.5 29.5t80 -29.5t32 -76.5t-32 -77t-80 -30t-80.5 30t-32.5 77z" />
    <glyph glyph-name="uni1EB8" unicode="&#x1eb8;" horiz-adv-x="1230" 
d="M324 141h786v-141h-950v1434h950v-142h-786v-489h766v-141h-766v-521zM522 -270q0 47 32.5 76.5t80.5 29.5t80.5 -29.5t32.5 -76.5t-32.5 -77t-80.5 -30t-80.5 30t-32.5 77z" />
    <glyph glyph-name="uni1EB9" unicode="&#x1eb9;" horiz-adv-x="1189" 
d="M651 106q209 0 361 91l47 -117q-165 -100 -428 -100h-4q-247 0 -388 132.5t-141 379.5v40q0 247 133.5 379.5t368.5 132.5h4q123 0 217 -39t152.5 -109.5t87.5 -164t29 -207.5v-67h-828q19 -351 385 -351h4zM262 582h668q0 68 -18.5 127t-56.5 106.5t-102.5 75
t-148.5 27.5h-4q-157 0 -242 -86.5t-96 -249.5zM492 -270q0 47 32 76.5t80 29.5t80.5 -29.5t32.5 -76.5t-32.5 -77t-80.5 -30t-80 30t-32 77z" />
    <glyph glyph-name="uni1EBC" unicode="&#x1ebc;" horiz-adv-x="1230" 
d="M324 141h786v-141h-950v1434h950v-142h-786v-489h766v-141h-766v-521zM319 1583q0 101 43 150t115 49q54 0 109.5 -25t103.5 -49.5t84 -24.5q46 0 65 30.5t19 68.5h92q0 -95 -43 -147t-114 -52q-50 0 -105 24.5t-104.5 49t-87.5 24.5q-45 0 -64.5 -28.5t-19.5 -69.5h-93z
" />
    <glyph glyph-name="uni1EBD" unicode="&#x1ebd;" horiz-adv-x="1189" 
d="M651 106q209 0 361 91l47 -117q-165 -100 -428 -100h-4q-247 0 -388 132.5t-141 379.5v40q0 247 133.5 379.5t368.5 132.5h4q123 0 217 -39t152.5 -109.5t87.5 -164t29 -207.5v-67h-828q19 -351 385 -351h4zM262 582h668q0 68 -18.5 127t-56.5 106.5t-102.5 75
t-148.5 27.5h-4q-157 0 -242 -86.5t-96 -249.5zM283 1174q0 101 42.5 149.5t114.5 48.5q54 0 109.5 -24.5t103.5 -49t84 -24.5q46 0 65 30t19 68h92q0 -94 -43 -146t-114 -52q-50 0 -105 24.5t-104.5 49t-87.5 24.5q-45 0 -64.5 -28.5t-19.5 -69.5h-92z" />
    <glyph glyph-name="uni1ECA" unicode="&#x1eca;" horiz-adv-x="485" 
d="M160 0v1434h164v-1434h-164zM129 -270q0 47 32.5 76.5t80.5 29.5t80 -29.5t32 -76.5t-32 -77t-80 -30t-80.5 30t-32.5 77z" />
    <glyph glyph-name="uni1ECB" unicode="&#x1ecb;" horiz-adv-x="436" 
d="M297 0h-158v1024h158v-1024zM106 -270q0 47 32.5 76.5t80.5 29.5t80.5 -29.5t32.5 -76.5t-32.5 -77t-80.5 -30t-80.5 30t-32.5 77zM106 1280q0 47 32.5 76.5t80.5 29.5q47 0 80 -30t33 -76t-33 -76t-80 -30q-48 0 -80.5 29.5t-32.5 76.5z" />
    <glyph glyph-name="uni1ECC" unicode="&#x1ecc;" horiz-adv-x="1490" 
d="M743 -20q-293 0 -458.5 180.5t-165.5 535.5v41q0 355 166 536t458 181h5q292 0 457 -181t165 -536v-41q0 -355 -165 -535.5t-457 -180.5h-5zM287 700q0 -299 119.5 -439t336.5 -140h5q217 0 336.5 140t119.5 439v33q0 299 -119.5 439.5t-336.5 140.5h-5
q-217 0 -336.5 -140.5t-119.5 -439.5v-33zM633 -270q0 47 32 76.5t80 29.5t80.5 -29.5t32.5 -76.5t-32.5 -77t-80.5 -30t-80 30t-32 77z" />
    <glyph glyph-name="uni1ECD" unicode="&#x1ecd;" horiz-adv-x="1210" 
d="M602 -20q-236 0 -370 132t-134 380v40q0 248 134 380t370 132h4q237 0 370.5 -132t133.5 -380v-40q0 -248 -133.5 -380t-370.5 -132h-4zM260 496q0 -192 86.5 -291t255.5 -99h4q170 0 257 99t87 291v32q0 192 -87 291t-257 99h-4q-169 0 -255.5 -99t-86.5 -291v-32z
M492 -270q0 47 32 76.5t80 29.5t80.5 -29.5t32.5 -76.5t-32.5 -77t-80.5 -30t-80 30t-32 77z" />
    <glyph glyph-name="uni1EE4" unicode="&#x1ee4;" horiz-adv-x="1417" 
d="M707 -20q-270 0 -408.5 129.5t-138.5 384.5v940h164v-940q0 -190 93 -281.5t290 -91.5h4q197 0 290 91.5t93 281.5v940h163v-940q0 -256 -137.5 -385t-408.5 -129h-4zM596 -270q0 47 32.5 76.5t80.5 29.5t80 -29.5t32 -76.5t-32 -77t-80 -30t-80.5 30t-32.5 77z" />
    <glyph glyph-name="uni1EE5" unicode="&#x1ee5;" 
d="M600 106q160 0 242 93.5t82 261.5v563h157v-1024h-157v195h-11q-98 -215 -370 -215h-4q-181 0 -290.5 98t-109.5 284v662h158v-641q0 -137 81.5 -207t217.5 -70h4zM498 -270q0 47 32 76.5t80 29.5t80.5 -29.5t32.5 -76.5t-32.5 -77t-80.5 -30t-80 30t-32 77z" />
    <glyph glyph-name="Ygrave" unicode="&#x1ef2;" horiz-adv-x="1349" 
d="M668 700h10l465 734h172l-559 -908v-526h-164v526l-557 908h174zM455 1718l39 117l401 -166l-31 -86z" />
    <glyph glyph-name="ygrave" unicode="&#x1ef3;" horiz-adv-x="1120" 
d="M20 1024h164l381 -883h10l367 883h158l-500 -1200q-53 -130 -138.5 -191t-232.5 -61h-4q-118 0 -209 25l29 124q70 -22 172 -22h4q98 0 152 37t84 108l61 156h-57zM340 1309l39 116l401 -165l-30 -86z" />
    <glyph glyph-name="uni1EF4" unicode="&#x1ef4;" horiz-adv-x="1349" 
d="M668 700h10l465 734h172l-559 -908v-526h-164v526l-557 908h174zM563 -270q0 47 32.5 76.5t80.5 29.5t80 -29.5t32 -76.5t-32 -77t-80 -30t-80.5 30t-32.5 77z" />
    <glyph glyph-name="uni1EF5" unicode="&#x1ef5;" horiz-adv-x="1120" 
d="M20 1024h164l381 -883h10l367 883h158l-500 -1200q-53 -130 -138.5 -191t-232.5 -61h-4q-118 0 -209 25l29 124q70 -22 172 -22h4q98 0 152 37t84 108l61 156h-57zM745 -229q0 47 32.5 76.5t80.5 29.5t80.5 -29.5t32.5 -76.5t-32.5 -77t-80.5 -30t-80.5 30t-32.5 77z" />
    <glyph glyph-name="uni1EF8" unicode="&#x1ef8;" horiz-adv-x="1349" 
d="M668 700h10l465 734h172l-559 -908v-526h-164v526l-557 908h174zM358 1583q0 101 43 150t115 49q54 0 109.5 -25t103.5 -49.5t84 -24.5q46 0 65 30.5t19 68.5h92q0 -94 -43.5 -146.5t-114.5 -52.5q-50 0 -105 24.5t-104 49t-87 24.5q-45 0 -64.5 -28.5t-19.5 -69.5h-93z
" />
    <glyph glyph-name="uni1EF9" unicode="&#x1ef9;" horiz-adv-x="1120" 
d="M20 1024h164l381 -883h10l367 883h158l-500 -1200q-53 -130 -138.5 -191t-232.5 -61h-4q-118 0 -209 25l29 124q70 -22 172 -22h4q98 0 152 37t84 108l61 156h-57zM244 1174q0 101 42.5 149.5t114.5 48.5q54 0 109.5 -24.5t103.5 -49t84 -24.5q46 0 65 30t19 68h92
q0 -94 -43 -146t-114 -52q-50 0 -105 24.5t-104.5 49t-87.5 24.5q-45 0 -64.5 -28.5t-19.5 -69.5h-92z" />
    <glyph glyph-name="endash" unicode="&#x2013;" horiz-adv-x="1351" 
d="M102 473v127h1147v-127h-1147z" />
    <glyph glyph-name="emdash" unicode="&#x2014;" horiz-adv-x="1822" 
d="M102 473v127h1618v-127h-1618z" />
    <glyph glyph-name="quoteleft" unicode="&#x2018;" horiz-adv-x="403" 
d="M383 1434l-102 -396h-179l158 396h123z" />
    <glyph glyph-name="quoteright" unicode="&#x2019;" horiz-adv-x="403" 
d="M20 1038l103 396h178l-158 -396h-123z" />
    <glyph glyph-name="quotesinglbase" unicode="&#x201a;" horiz-adv-x="403" 
d="M20 -272l103 395h178l-158 -395h-123z" />
    <glyph glyph-name="quotedblleft" unicode="&#x201c;" horiz-adv-x="647" 
d="M627 1434l-103 -396h-178l158 396h123zM102 1038l158 396h123l-102 -396h-179z" />
    <glyph glyph-name="quotedblright" unicode="&#x201d;" horiz-adv-x="647" 
d="M264 1038l103 396h178l-158 -396h-123zM20 1038l103 396h178l-158 -396h-123z" />
    <glyph glyph-name="quotedblbase" unicode="&#x201e;" horiz-adv-x="647" 
d="M262 -272l103 395h178l-158 -395h-123zM20 -272l103 395h178l-158 -395h-123z" />
    <glyph glyph-name="dagger" unicode="&#x2020;" horiz-adv-x="1161" 
d="M610 1044l449 62v-184l-449 61l62 -266l-62 -717h-61l-62 717l62 266l-447 -61v184l447 -62l-62 390h185z" />
    <glyph glyph-name="daggerdbl" unicode="&#x2021;" horiz-adv-x="1161" 
d="M610 1044l449 62v-184l-449 61l62 -266l-62 -266l449 61v-184l-449 61l62 -389h-185l62 389l-447 -61v184l447 -61l-62 266l62 266l-447 -61v184l447 -62l-62 390h185z" />
    <glyph glyph-name="bullet" unicode="&#x2022;" horiz-adv-x="573" 
d="M315 360q-97 0 -155 57t-58 148t58 148t155 57q94 0 151.5 -57.5t57.5 -147.5t-57.5 -147.5t-151.5 -57.5z" />
    <glyph glyph-name="ellipsis" unicode="&#x2026;" horiz-adv-x="1157" 
d="M580 -20q-49 0 -78 28.5t-29 73.5t29 73.5t78 28.5q47 0 75.5 -28.5t28.5 -73.5t-28.5 -73.5t-75.5 -28.5zM102 82q0 45 29 73.5t78 28.5q47 0 75.5 -28.5t28.5 -73.5t-28.5 -73.5t-75.5 -28.5q-49 0 -78 28.5t-29 73.5zM844 82q0 45 28.5 73.5t77.5 28.5q47 0 76 -28.5
t29 -73.5t-29 -73.5t-76 -28.5q-49 0 -77.5 28.5t-28.5 73.5z" />
    <glyph glyph-name="perthousand" unicode="&#x2030;" horiz-adv-x="2840" 
d="M481 1454q177 0 278 -106.5t101 -262.5q0 -155 -101 -261.5t-278 -106.5t-278 106.5t-101 261.5q0 156 101 262.5t278 106.5zM231 1085q0 -110 68 -183t182 -73q115 0 182.5 72.5t67.5 183.5t-67.5 183.5t-182.5 72.5q-114 0 -182 -73t-68 -183zM348 0l1122 1434h142
l-1123 -1434h-141zM1100 348q0 156 100.5 262.5t278.5 106.5q177 0 278 -106.5t101 -262.5q0 -155 -101 -261.5t-278 -106.5q-178 0 -278.5 106t-100.5 262zM1229 348q0 -111 67.5 -183.5t182.5 -72.5t181 72.5t66 183.5t-66 183.5t-181 72.5t-182.5 -72.5t-67.5 -183.5z
M1980 348q0 156 100.5 262.5t278.5 106.5q177 0 278 -106.5t101 -262.5q0 -155 -101 -261.5t-278 -106.5q-178 0 -278.5 106t-100.5 262zM2109 348q0 -111 67.5 -183.5t182.5 -72.5t181.5 72.5t66.5 183.5t-66.5 183.5t-181.5 72.5t-182.5 -72.5t-67.5 -183.5z" />
    <glyph glyph-name="uni2031" unicode="&#x2031;" horiz-adv-x="3721" 
d="M481 1454q177 0 278 -106.5t101 -262.5q0 -155 -101 -261.5t-278 -106.5t-278 106.5t-101 261.5q0 156 101 262.5t278 106.5zM231 1085q0 -110 68 -183t182 -73q115 0 182.5 72.5t67.5 183.5t-67.5 183.5t-182.5 72.5q-114 0 -182 -73t-68 -183zM348 0l1122 1434h142
l-1123 -1434h-141zM1100 348q0 156 100.5 262.5t278.5 106.5q177 0 278 -106.5t101 -262.5q0 -155 -101 -261.5t-278 -106.5q-178 0 -278.5 106t-100.5 262zM1229 348q0 -111 67.5 -183.5t182.5 -72.5t181 72.5t66 183.5t-66 183.5t-181 72.5t-182.5 -72.5t-67.5 -183.5z
M1980 348q0 156 100.5 262.5t278.5 106.5q177 0 278 -106.5t101 -262.5q0 -155 -101 -261.5t-278 -106.5q-178 0 -278.5 106t-100.5 262zM2109 348q0 -111 67.5 -183.5t182.5 -72.5t181.5 72.5t66.5 183.5t-66.5 183.5t-181.5 72.5t-182.5 -72.5t-67.5 -183.5zM2861 348
q0 156 100.5 262.5t278.5 106.5q177 0 278 -106.5t101 -262.5q0 -155 -101 -261.5t-278 -106.5q-178 0 -278.5 106t-100.5 262zM2990 348q0 -111 67.5 -183.5t182.5 -72.5t181.5 72.5t66.5 183.5t-66.5 183.5t-181.5 72.5t-182.5 -72.5t-67.5 -183.5z" />
    <glyph glyph-name="guilsinglleft" unicode="&#x2039;" horiz-adv-x="573" 
d="M492 133h-144l-266 379l266 379h144l-265 -379z" />
    <glyph glyph-name="guilsinglright" unicode="&#x203a;" horiz-adv-x="573" 
d="M82 133l264 379l-264 379h143l267 -379l-267 -379h-143z" />
    <glyph glyph-name="uni2042" unicode="&#x2042;" horiz-adv-x="1576" 
d="M737 813v221l-194 -110l-51 90l192 108l-192 109l51 90l194 -111v224h103v-224l194 111l51 -90l-192 -109l192 -108l-51 -88l-194 108v-221h-103zM82 201l192 108l-192 109l51 90l195 -111v224h102v-224l195 111l51 -90l-193 -109l193 -108l-51 -88l-195 108v-221h-102
v221l-195 -110zM901 201l193 108l-193 109l51 90l195 -111v224h102v-224l195 111l51 -90l-192 -109l192 -108l-51 -88l-195 108v-221h-102v221l-195 -110z" />
    <glyph glyph-name="fraction" unicode="&#x2044;" horiz-adv-x="948" 
d="M20 0l777 1434h131l-776 -1434h-132z" />
    <glyph glyph-name="uni2070" unicode="&#x2070;" horiz-adv-x="960" 
d="M479 1542q-126 -2 -196 -104.5t-70 -292.5v-15q0 -192 70 -294.5t196 -104.5h2q126 2 196.5 105t70.5 294v15q0 190 -70.5 292.5t-196.5 104.5h-2zM80 1130v15q0 243 108.5 375.5t290.5 132.5h2q183 0 291.5 -132t108.5 -376v-15q0 -245 -108.5 -377t-291.5 -132h-2
q-183 0 -291 132.5t-108 376.5z" />
    <glyph glyph-name="uni2074" unicode="&#x2074;" horiz-adv-x="907" 
d="M602 1638h131v-688h131v-112h-131v-203h-131v203h-561v112zM188 950h414v518h-8l-406 -510v-8z" />
    <glyph glyph-name="uni2075" unicode="&#x2075;" horiz-adv-x="884" 
d="M819 938q0 -143 -104 -230t-283 -87h-2q-246 0 -389 127l68 88q114 -102 315 -105h2q129 1 194.5 57t65.5 148v4q0 86 -57.5 137t-161.5 51h-356l43 510h612v-110h-504l-29 -287h232q92 0 162 -24.5t111 -66.5t61 -93.5t20 -110.5v-8z" />
    <glyph glyph-name="uni2076" unicode="&#x2076;" horiz-adv-x="915" 
d="M727 969q0 108 -67.5 166.5t-188.5 58.5h-2q-124 0 -195 -54.5t-71 -168.5v-10q0 -111 70 -170.5t192 -59.5h2q122 2 191 60t69 165v13zM74 991v15q0 277 158.5 435t502.5 210l21 -105q-77 -11 -142 -26.5t-136 -45t-123 -69t-92 -101t-54 -137.5h6q76 137 289 140h2
q159 -2 254.5 -88t95.5 -244v-14q0 -154 -102 -247t-281 -93h-4q-189 0 -292 100t-103 270z" />
    <glyph glyph-name="uni2077" unicode="&#x2077;" horiz-adv-x="798" 
d="M199 635q49 477 426 885v8h-590v110h729v-104q-389 -426 -434 -899h-131z" />
    <glyph glyph-name="uni2078" unicode="&#x2078;" horiz-adv-x="909" 
d="M457 1653q158 0 247 -70.5t89 -191.5v-9q0 -80 -44 -138t-118 -85v-6q96 -24 153.5 -86.5t57.5 -155.5v-10q0 -129 -102.5 -204.5t-282.5 -75.5h-4q-181 0 -284 75t-103 205v10q0 94 57.5 156t155.5 86v6q-73 28 -118.5 85.5t-45.5 137.5v9q0 121 89 191.5t249 70.5h4z
M199 913q0 -86 64 -134t190 -48h2q127 1 191.5 49t64.5 133v7q0 83 -66.5 128.5t-189.5 45.5h-2q-122 -2 -188 -46.5t-66 -127.5v-7zM242 1370q0 -78 59 -122t152 -44h4q93 2 151 44.5t58 121.5v2q0 81 -55.5 125.5t-155.5 44.5h-2q-100 -2 -155.5 -45.5t-55.5 -124.5v-2z
" />
    <glyph glyph-name="uni2079" unicode="&#x2079;" horiz-adv-x="915" 
d="M188 1305q0 -108 67.5 -167t188.5 -59h2q123 0 195 55t72 169v10q0 111 -69.5 170t-190.5 59h-4q-121 -2 -191 -59.5t-70 -165.5v-12zM59 1300v15q0 153 102.5 245.5t282.5 92.5h2q189 0 292.5 -100.5t103.5 -270.5v-14q0 -277 -159 -435t-503 -210l-18 104
q62 9 115.5 21t114 32t109.5 49t92.5 67t72.5 91.5t41 118.5h-7q-74 -136 -286 -139h-4q-160 2 -255.5 88t-95.5 245z" />
    <glyph glyph-name="uni2080" unicode="&#x2080;" horiz-adv-x="960" 
d="M479 702q-126 -2 -196 -104.5t-70 -292.5v-14q0 -192 70 -295t196 -105h2q126 2 196.5 105.5t70.5 294.5v14q0 190 -70.5 292.5t-196.5 104.5h-2zM80 291v14q0 243 108.5 375.5t290.5 132.5h2q183 0 291.5 -132t108.5 -376v-14q0 -245 -108.5 -377.5t-291.5 -132.5h-2
q-183 0 -291 133t-108 377z" />
    <glyph glyph-name="uni2081" unicode="&#x2081;" horiz-adv-x="643" 
d="M506 799v-1004h-131v867l-277 -166l-63 92l340 211h131z" />
    <glyph glyph-name="uni2082" unicode="&#x2082;" horiz-adv-x="835" 
d="M231 -94h562v-111h-752v111l469 424q108 94 108 200v5q0 83 -61 125t-154 42h-2q-170 -3 -286 -104l-66 88q140 127 359 127h2q155 0 248.5 -72t93.5 -200v-9q0 -82 -40 -149t-114 -131l-367 -338v-8z" />
    <glyph glyph-name="uni2083" unicode="&#x2083;" horiz-adv-x="884" 
d="M426 813q161 0 252.5 -71t91.5 -193v-10q0 -77 -43.5 -135t-112.5 -85v-6q95 -24 150 -86t55 -155v-11q0 -130 -103 -205t-284 -75h-2q-246 0 -389 127l68 88q114 -102 315 -105h2q128 1 194 50t66 135v6q0 81 -57 126.5t-150 45.5h-188v111h166q81 0 132.5 42.5
t51.5 118.5v4q0 79 -60 124.5t-163 47.5h-4q-171 0 -291 -104l-68 88q143 127 367 127h4z" />
    <glyph glyph-name="uni2084" unicode="&#x2084;" horiz-adv-x="907" 
d="M602 799h131v-688h131v-113h-131v-203h-131v203h-561v113zM188 111h414v518h-8l-406 -510v-8z" />
    <glyph glyph-name="uni2085" unicode="&#x2085;" horiz-adv-x="884" 
d="M819 98q0 -143 -104 -230t-283 -87h-2q-246 0 -389 127l68 88q114 -102 315 -105h2q129 1 194.5 57t65.5 148v4q0 86 -57.5 137.5t-161.5 51.5h-356l43 510h612v-111h-504l-29 -287h232q92 0 162 -24.5t111 -66.5t61 -93.5t20 -110.5v-8z" />
    <glyph glyph-name="uni2086" unicode="&#x2086;" horiz-adv-x="915" 
d="M727 129q0 108 -67.5 166.5t-188.5 58.5h-2q-124 0 -195 -54.5t-71 -168.5v-10q0 -111 70 -170.5t192 -59.5h2q122 2 191 60.5t69 165.5v12zM74 152v14q0 277 158.5 435t502.5 210l21 -104q-77 -11 -142 -26.5t-136 -45t-123 -69t-92 -101t-54 -137.5h6q76 136 289 139h2
q159 -2 254.5 -88t95.5 -244v-14q0 -154 -102 -247t-281 -93h-4q-189 0 -292 100.5t-103 270.5z" />
    <glyph glyph-name="uni2087" unicode="&#x2087;" horiz-adv-x="798" 
d="M199 -205q49 477 426 885v8h-590v111h729v-105q-389 -426 -434 -899h-131z" />
    <glyph glyph-name="uni2088" unicode="&#x2088;" horiz-adv-x="909" 
d="M457 813q158 0 247 -70.5t89 -191.5v-8q0 -80 -44.5 -138.5t-117.5 -85.5v-6q96 -24 153.5 -86t57.5 -155v-11q0 -129 -102.5 -204.5t-282.5 -75.5h-4q-181 0 -284 75t-103 205v11q0 93 57.5 155t155.5 86v6q-72 28 -118 86t-46 138v8q0 121 89 191.5t249 70.5h4zM199 74
q0 -86 64 -134.5t190 -48.5h2q126 1 191 49.5t65 133.5v6q0 83 -66.5 128.5t-189.5 45.5h-2q-122 -2 -188 -46.5t-66 -127.5v-6zM242 530q0 -78 59 -121.5t152 -43.5h4q93 2 151 44t58 121v2q0 81 -55.5 125.5t-155.5 44.5h-2q-100 -2 -155.5 -45.5t-55.5 -124.5v-2z" />
    <glyph glyph-name="uni2089" unicode="&#x2089;" horiz-adv-x="915" 
d="M188 465q0 -108 67.5 -166.5t188.5 -58.5h2q123 0 195 54.5t72 168.5v10q0 111 -69.5 170t-190.5 59h-4q-121 -2 -191 -59.5t-70 -165.5v-12zM59 461v14q0 153 102.5 245.5t282.5 92.5h2q189 0 292.5 -100.5t103.5 -270.5v-14q0 -277 -159 -435t-503 -210l-18 104
q62 9 115.5 21t114 32t109.5 49t92.5 67t72.5 91.5t41 118.5h-7q-74 -136 -286 -139h-4q-160 2 -255.5 88.5t-95.5 245.5z" />
    <glyph glyph-name="colonmonetary" unicode="&#x20a1;" horiz-adv-x="1353" 
d="M430 -205l41 238q-168 74 -260 241t-92 422v41q0 342 160.5 524t441.5 193l33 184h94l-33 -186q77 -3 162 -20l35 206h96l-41 -235q115 -45 207 -127l-82 -115q-68 59 -156 101l-200 -1139q208 20 356 149l82 -114q-187 -163 -457 -176l-33 -187h-96l33 185
q-82 3 -160 22l-37 -207h-94zM287 700q0 -380 217 -514l201 1125q-201 -19 -309.5 -165t-108.5 -413v-33zM580 150q73 -26 174 -29l204 1167q-84 22 -174 25z" />
    <glyph glyph-name="uni20A6" unicode="&#x20a6;" horiz-adv-x="1572" 
d="M246 0v567h-205v95h205v772h174l366 -568h381v568h160v-568h205v-94h-205v-772h-174l-367 567h-378v-567h-162zM408 662h317l-307 477h-10v-477zM848 772l309 -477h10v477h-319z" />
    <glyph glyph-name="uni20A8" unicode="&#x20a8;" horiz-adv-x="1380" 
d="M1065 0q-168 363 -436 625h-510v129h549q134 0 211 59.5t86 173.5h-846v74h846q-10 113 -87 172t-210 59h-549v142h1220v-97h-338q120 -97 132 -266h206v-94h-206q-10 -136 -95 -221.5t-233 -108.5v-10q262 -262 434 -637h-174z" />
    <glyph glyph-name="uni20A9" unicode="&#x20a9;" horiz-adv-x="2105" 
d="M53 676v96h193l-189 662h164l187 -662h337l185 662h246l184 -662h338l186 662h164l-188 -662h192v-96h-221l-193 -676h-225l-190 676h-342l-191 -676h-225l-193 676h-219zM434 676l137 -488h11l137 488h-285zM909 772h285l-137 488h-10zM1386 676l138 -488h10l137 488
h-285z" />
    <glyph glyph-name="uni20AA" unicode="&#x20aa;" horiz-adv-x="1519" 
d="M594 1434q223 0 338 -109.5t115 -327.5v-546h-138v546q0 150 -70.5 222.5t-215.5 72.5h-299v-1292h-164v1434h434zM549 436v547h137v-547q0 -150 71 -222.5t218 -72.5h297v1293h164v-1434h-435q-223 0 -337.5 109t-114.5 327z" />
    <glyph glyph-name="dong" unicode="&#x20ab;" horiz-adv-x="1312" 
d="M561 1174v94h389v166h158v-166h104v-94h-104v-969h-158v203h-10q-48 -108 -147.5 -166t-239.5 -58h-4q-205 0 -328 115.5t-123 300.5v41q0 185 123 301.5t328 116.5h4q140 0 239.5 -58t147.5 -165h10v338h-389zM98 0v92h1114v-92h-1114zM260 604q0 -130 90.5 -211.5
t251.5 -81.5h4q159 0 251.5 82t92.5 211v35q0 129 -92.5 211t-251.5 82h-4q-161 0 -251.5 -81.5t-90.5 -211.5v-35z" />
    <glyph glyph-name="Euro" unicode="&#x20ac;" horiz-adv-x="1447" 
d="M41 526v92h174q-2 25 -2 78v41q0 53 2 78h-174v92h184q39 270 203 408.5t422 138.5h4q170 0 292.5 -45t221.5 -133l-82 -115q-176 152 -424 152h-4q-190 0 -309 -102t-154 -304h463v-92h-475q-2 -27 -2 -82v-33q0 -55 2 -82h475v-92h-463q35 -201 154 -303t309 -102h4
q249 0 424 151l82 -114q-99 -88 -221.5 -133t-292.5 -45h-4q-258 0 -422 138t-203 408h-184z" />
    <glyph glyph-name="uni20AD" unicode="&#x20ad;" horiz-adv-x="1400" 
d="M246 0v676h-205v96h205v662h164v-662h202q308 274 543 662h182q-231 -379 -520 -662h412v-96h-400l537 -676h-192l-545 676h-219v-676h-164z" />
    <glyph glyph-name="uni20AE" unicode="&#x20ae;" horiz-adv-x="1236" 
d="M236 369v92l301 80v196l-301 -80v95l301 79v461h-486v142h1135v-142h-486v-415l301 79v-94l-301 -80v-196l301 80v-93l-301 -79v-494h-163v449z" />
    <glyph glyph-name="uni20B1" unicode="&#x20b1;" horiz-adv-x="1517" 
d="M246 0v840h-205v96h205v190h-205v97h205v211h569q151 0 257 -54.5t157 -156.5h248v-97h-215q10 -52 10 -100v-12q0 -40 -6 -78h211v-96h-238q-48 -111 -157 -171.5t-267 -60.5h-405v-608h-164zM410 748h395q143 0 222 69t79 201v6q0 130 -79 199t-222 69h-395v-544z" />
    <glyph glyph-name="uni20B2" unicode="&#x20b2;" horiz-adv-x="1495" 
d="M715 -205v187q-277 15 -436.5 197t-159.5 517v41q0 334 159.5 515.5t436.5 199.5v186h96v-184q154 -4 269 -49.5t210 -128.5l-84 -115q-159 143 -395 152v-553h565v-98q0 -79 -10 -152t-33 -151t-65.5 -142t-103 -116.5t-151 -84t-202.5 -36.5v-185h-96zM287 700
q0 -269 111.5 -414t316.5 -163v1188q-202 -21 -315 -167.5t-113 -410.5v-33zM811 121q401 21 401 497h-401v-497z" />
    <glyph glyph-name="uni20B4" unicode="&#x20b4;" horiz-adv-x="1515" 
d="M41 526v92h1434v-92h-977q-84 -58 -84 -135v-16q0 -254 385 -254h4q125 0 240 30.5t190 81.5l84 -116q-87 -63 -219.5 -100t-296.5 -37h-4q-123 0 -222.5 23.5t-173.5 71t-114.5 125.5t-40.5 181v20q0 73 24 125h-229zM41 815v92h932q63 32 96 71t33 95v17
q0 77 -47.5 128.5t-119.5 73t-165 21.5h-4q-231 0 -414 -144l-84 119q214 166 498 166h4q229 0 364.5 -98.5t135.5 -270.5v-20q0 -92 -53 -158h258v-92h-1434z" />
    <glyph glyph-name="uni20B5" unicode="&#x20b5;" horiz-adv-x="1353" 
d="M719 -205v185q-281 12 -440.5 193.5t-159.5 522.5v41q0 341 159.5 523t440.5 194v184h94v-186q148 -6 259 -50.5t202 -125.5l-82 -115q-160 141 -385 152v-1192q226 11 385 151l82 -114q-91 -81 -202 -125.5t-259 -50.5v-187h-94zM287 700q0 -275 114 -420.5t324 -156.5
v1188q-210 -11 -324 -156.5t-114 -421.5v-33z" />
    <glyph glyph-name="uni20BA" unicode="&#x20ba;" horiz-adv-x="1245" 
d="M752 0h-506v524l-205 -59v92l205 59v197l-205 -59v92l205 59v529h164v-482l344 99v-93l-344 -98v-196l344 98v-92l-344 -99v-430h342q146 0 217 72t71 223v41h164v-41q0 -218 -114.5 -327t-337.5 -109z" />
    <glyph glyph-name="uni20BD" unicode="&#x20bd;" horiz-adv-x="1347" 
d="M860 322h-450v-322h-164v322h-205v94h205v192h-205v94h205v732h569q215 0 336 -108.5t121 -299.5v-12q0 -190 -121 -298t-336 -108h-405v-192h450v-94zM410 748h395q143 0 222 69t79 201v6q0 130 -79 199t-222 69h-395v-544z" />
    <glyph glyph-name="uni20BF" unicode="&#x20bf;" horiz-adv-x="1335" 
d="M432 -205v205h-272v1434h272v204h96v-204h156h35v204h96v-215q156 -27 241 -116.5t85 -233.5v-12q0 -117 -53 -195t-148 -114v-11q132 -31 204.5 -120.5t72.5 -227.5v-12q0 -170 -105.5 -268.5t-296.5 -110.5v-207h-96v205h-191v-205h-96zM324 141h432q140 0 216.5 66
t76.5 192v9q0 126 -76.5 192t-216.5 66h-432v-525zM324 805h401q121 0 186.5 60.5t65.5 178.5v7q0 119 -76.5 181t-216.5 62h-360v-489z" />
    <glyph glyph-name="uni2116" unicode="&#x2116;" horiz-adv-x="2277" 
d="M160 0v1434h174l737 -1139h10v1139h160v-1434h-174l-735 1139h-10v-1139h-162zM1479 508v92h725v-92h-725zM1481 1067v29q0 174 95.5 266t262.5 92h2q168 0 264.5 -93t96.5 -265v-29q0 -172 -96.5 -265t-264.5 -93h-2q-167 0 -262.5 92t-95.5 266zM1614 1069
q0 -126 57.5 -191t167.5 -65h2q112 0 169.5 65t57.5 191v25q0 126 -57.5 191t-169.5 65h-2q-110 0 -167.5 -65t-57.5 -191v-25z" />
    <glyph glyph-name="trademark" unicode="&#x2122;" horiz-adv-x="2074" 
d="M571 1317v-887h-137v887h-332v117h803v-117h-334zM1030 430v1004h137l330 -512h8l330 512h137v-1004h-135v778h-6l-272 -432h-115l-273 432h-8v-778h-133z" />
    <glyph glyph-name="oneeighth" unicode="&#x215b;" horiz-adv-x="1968" 
d="M506 1434v-1004h-131v866l-277 -166l-63 93l340 211h131zM426 0l776 1434h131l-776 -1434h-131zM1124 266v10q0 94 57.5 156t155.5 86v6q-72 28 -117.5 85.5t-45.5 138.5v8q0 121 88.5 191.5t248.5 70.5h5q158 0 246.5 -70.5t88.5 -191.5v-8q0 -81 -44 -139t-117 -85v-6
q96 -24 153.5 -86.5t57.5 -155.5v-10q0 -129 -102.5 -204.5t-282.5 -75.5h-5q-181 0 -284 75t-103 205zM1257 279q0 -86 64 -134.5t190 -48.5h2q126 1 191 49.5t65 133.5v6q0 83 -66.5 128.5t-189.5 45.5h-2q-122 -2 -188 -46.5t-66 -127.5v-6zM1300 735q0 -78 59 -122
t152 -44h5q93 2 150.5 44.5t57.5 121.5v2q0 81 -55.5 125.5t-155.5 44.5h-2q-100 -2 -155.5 -45.5t-55.5 -124.5v-2z" />
    <glyph glyph-name="threeeighths" unicode="&#x215c;" horiz-adv-x="2185" 
d="M426 1448q161 0 252.5 -71t91.5 -193v-10q0 -77 -43.5 -135t-112.5 -85v-6q95 -24 150 -86t55 -155v-11q0 -130 -103 -205t-284 -75h-2q-246 0 -389 127l68 88q114 -102 315 -105h2q128 1 194 50t66 135v6q0 81 -57 126.5t-150 45.5h-188v110h166q81 0 132.5 43t51.5 119
v4q0 79 -60 124.5t-163 47.5h-4q-171 0 -291 -104l-68 88q143 127 367 127h4zM643 0l776 1434h131l-776 -1434h-131zM1341 266v10q0 94 57.5 156t155.5 86v6q-72 28 -117.5 85.5t-45.5 138.5v8q0 121 89 191.5t249 70.5h4q158 0 246.5 -70.5t88.5 -191.5v-8q0 -81 -44 -139
t-117 -85v-6q96 -24 153.5 -86.5t57.5 -155.5v-10q0 -129 -102.5 -204.5t-282.5 -75.5h-4q-181 0 -284.5 75.5t-103.5 204.5zM1475 279q0 -86 64 -134.5t190 -48.5h2q126 1 191 49.5t65 133.5v6q0 83 -66.5 128.5t-189.5 45.5h-2q-122 -2 -188 -46.5t-66 -127.5v-6z
M1518 735q0 -78 59 -122t152 -44h4q93 2 151 44.5t58 121.5v2q0 81 -55.5 125.5t-155.5 44.5h-2q-100 -2 -155.5 -45.5t-55.5 -124.5v-2z" />
    <glyph glyph-name="fiveeighths" unicode="&#x215d;" horiz-adv-x="2181" 
d="M819 733q0 -143 -104 -230t-283 -87h-2q-246 0 -389 127l68 88q114 -102 315 -105h2q129 1 194.5 57t65.5 148v4q0 86 -57.5 137.5t-161.5 51.5h-356l43 510h612v-111h-504l-29 -287h232q92 0 162 -24.5t111 -66.5t61 -93.5t20 -110.5v-8zM639 0l776 1434h131l-776 -1434
h-131zM1337 266v10q0 94 57.5 156t155.5 86v6q-72 28 -118 86t-46 138v8q0 121 89 191.5t249 70.5h5q158 0 246.5 -70.5t88.5 -191.5v-8q0 -81 -44 -139t-117 -85v-6q96 -24 153.5 -86.5t57.5 -155.5v-10q0 -129 -102.5 -204.5t-282.5 -75.5h-5q-181 0 -284 75t-103 205z
M1470 279q0 -86 64 -134.5t190 -48.5h2q126 1 191 49.5t65 133.5v6q0 83 -66.5 128.5t-189.5 45.5h-2q-122 -2 -188 -46.5t-66 -127.5v-6zM1513 735q0 -78 59 -122t152 -44h5q93 2 150.5 44.5t57.5 121.5v2q0 81 -55.5 125.5t-155.5 44.5h-2q-100 -2 -155.5 -45.5
t-55.5 -124.5v-2z" />
    </font>
</defs>
</svg>
